<svg width="395" height="83" viewBox="0 0 395 83" fill="none" xmlns="http://www.w3.org/2000/svg">
<mask id="path-1-outside-1_260_70" maskUnits="userSpaceOnUse" x="0" y="0" width="395" height="83" fill="black">
<rect fill="white" width="395" height="83"/>
<path d="M383.733 25.744C382.069 34.96 380.981 39.824 380.085 48.4C379.829 48.784 379.317 48.976 378.485 48.912C377.973 48.912 377.525 48.784 376.949 48.784L373.749 48.4C373.045 47.952 372.917 45.456 372.981 42.192L373.301 15.248C373.493 14.16 374.837 14.416 375.605 14.416C375.989 14.48 376.373 14.544 376.757 14.544C379.509 14.736 382.325 14.736 385.013 14.864C385.269 15.44 385.333 16.208 385.333 17.168C385.269 17.36 385.269 17.616 385.205 17.936L383.733 25.744ZM370.037 58.064C369.909 59.92 371.701 61.584 374.005 61.712H374.261C375.541 61.776 377.077 61.776 377.781 61.712C379.829 61.84 381.685 59.984 381.813 57.488L381.877 56.912C382.005 54.48 380.277 52.496 378.101 52.368H377.845C376.949 52.304 375.221 52.304 374.197 52.368C372.085 52.304 370.165 54.544 370.037 57.424V58.064Z"/>
<path d="M340.303 60.368V52.816L340.559 52.432L341.135 51.216L341.583 50.256L342.095 49.232C342.351 48.72 342.799 48.208 343.311 47.76L343.759 46.928C344.399 45.776 344.975 44.56 345.551 43.344L346.191 42C346.575 41.168 346.959 40.528 347.279 39.632L347.663 38.608L348.751 36.112L349.391 34.576L349.839 33.488L350.543 31.888L351.951 28.56C352.335 27.6 352.783 26.64 353.231 25.68L353.743 24.528L354.895 22.096C355.151 21.712 355.215 21.264 355.471 20.88H355.023C354.703 20.88 354.447 20.944 354.127 20.944H352.783C352.335 20.944 351.823 21.008 351.311 21.008C349.839 21.008 348.495 21.072 346.703 21.072H343.759C340.047 21.072 341.199 20.752 340.175 20.56L339.407 16.784C339.407 15.44 339.599 13.648 340.367 12.112H342.095C342.863 12.112 343.567 12.176 344.335 12.176H347.215C348.367 12.176 349.455 12.24 350.607 12.24L367.695 12.432L367.439 14.032L367.183 15.568L366.671 18.704C366.351 19.024 365.647 20.112 365.007 21.52L364.111 23.44L362.767 26.384L362.063 27.856L360.399 31.376L359.631 32.912L358.415 35.472L357.711 37.008L356.687 39.056L355.471 41.744L353.807 44.368L352.911 46.544L352.143 48.208L350.799 51.536L350.543 52.112H351.439C351.759 52.112 352.015 52.048 352.271 52.048C352.847 52.048 353.423 51.984 353.999 51.984C356.303 51.856 358.287 51.792 360.079 51.792H361.615C363.855 51.792 365.775 51.6 367.311 51.6C367.631 51.6 367.951 51.536 368.207 51.536C368.335 52.176 368.463 53.072 368.527 54.288C368.527 55.952 368.463 57.616 368.463 59.28V60.368H365.519C362.767 60.368 360.207 60.24 357.455 60.24H354.895C353.679 60.24 352.463 60.304 351.247 60.304H349.007C348.495 60.304 347.855 60.368 347.343 60.368H340.303Z"/>
<path d="M305.864 71.888L305.736 70.672L305.224 66.896C306.632 65.104 306.952 63.76 308.104 61.584L309.448 59.088L310.92 56.208C311.112 55.824 311.24 55.312 326.344 33.296L327.048 32.272L327.432 31.76C326.152 31.76 323.464 31.888 321.992 31.888H320.392C318.856 31.888 316.424 31.632 310.856 31.632H307.976C307.464 31.632 306.952 31.568 306.376 31.568L305.608 27.664C305.608 27.664 305.544 22.992 307.272 22.992C307.976 22.992 308.616 23.056 309.32 23.056H312.84C314.44 23.056 316.104 23.12 317.704 23.12C318.408 23.12 319.048 23.184 319.752 23.184C325.576 23.312 331.336 23.248 337.16 23.376C337.16 25.424 337.352 27.536 337.352 29.584C337.224 29.84 336.776 32.528 336.328 33.424H336.136C335.816 33.744 335.56 34.128 335.24 34.512L334.28 35.792L332.744 38.224L331.784 39.824C331.208 40.784 329.992 41.296 318.664 59.6L317.832 60.944L316.104 63.632L315.656 64.272C316.424 64.272 317.192 64.208 317.96 64.208L330.952 63.824C334.088 63.76 337.224 63.76 340.36 63.504H341.64C342.664 63.504 343.752 63.376 344.776 63.376C344.904 64.016 345.032 64.976 345.096 66.128C345.096 67.984 345.032 69.712 345.032 71.568V72.208H343.112C342.28 72.208 341.384 72.272 340.552 72.272C338.12 72.272 335.624 72.144 333.192 72.144H330.312C329.608 72.144 328.84 72.08 328.136 72.08H326.728C321.928 72.08 317.064 71.952 312.328 71.952H311.048C310.408 71.952 309.704 71.888 309.064 71.888H305.864Z"/>
<path d="M303.434 59.344C303.562 60.24 303.626 59.664 294.154 60.56C293.962 59.216 293.385 58.128 293.385 56.464V55.44C293.385 54.48 293.257 53.52 293.001 52.56H292.617C292.489 52.56 292.361 52.624 292.233 52.624H291.146C290.762 52.624 290.441 52.688 290.057 52.688L286.665 52.752C285.449 52.752 284.169 52.752 282.953 52.88L281.482 53.008C280.202 53.136 280.393 54.16 280.329 55.248L280.137 57.552C280.201 57.552 280.393 61.136 277.513 60.944L275.658 60.816L273.993 60.624C273.673 60.112 273.546 59.408 273.546 58.832C273.546 58.128 273.737 57.296 273.865 56.592L274.314 54.416L274.826 51.024L274.953 50.256C275.081 49.36 275.273 48.528 275.465 47.632L275.594 46.928L276.169 43.92L276.361 42.768L276.617 41.744L277.258 38.864L277.641 36.688L277.77 35.6L277.961 34.448L278.345 32.272L279.049 29.712L279.689 27.536L280.266 25.36C280.394 24.976 280.393 24.656 280.521 24.272L280.841 23.184C281.033 22.48 281.673 20.496 281.673 19.664C281.673 19.024 281.353 18.896 280.777 18.896H279.882C277.898 18.896 275.658 19.28 273.482 19.28C272.458 19.28 271.497 19.216 270.473 19.216C269.513 19.216 268.938 19.472 268.938 18.192L269.322 13.392C269.386 12.752 269.385 12.176 270.025 12.176C270.665 12.304 271.369 12.304 272.073 12.304C273.929 12.304 276.682 12.048 278.922 12.048H280.714C281.098 12.048 281.417 12.112 281.801 12.112H283.658C284.81 12.112 285.898 11.984 286.986 11.856L290.314 11.472C291.338 11.344 292.553 11.216 293.641 11.216H294.793C295.049 11.28 295.497 11.28 296.009 11.28C296.713 11.28 297.93 11.216 299.21 11.216C300.042 11.216 301.001 11.152 301.961 11.152C302.857 11.152 303.818 11.088 304.714 11.024L308.362 10.832C308.362 12.56 308.874 18 306.378 18.576L303.945 18.832C302.601 18.96 301.257 19.024 299.913 19.024C298.953 19.024 297.417 18.96 297.161 19.216C297.161 19.344 297.225 19.472 297.225 19.6L297.737 21.84L298.121 23.632L298.378 24.784L298.633 25.872L298.953 27.728L299.21 29.52L299.337 31.056C299.465 32.656 299.338 35.28 299.658 37.328L300.042 39.888L300.553 42.064L300.745 42.768L301.513 44.944C301.641 45.328 301.705 45.712 301.833 46.032L302.09 47.12C302.346 48.208 302.601 49.36 302.793 50.448L302.922 51.216C302.986 51.408 303.049 51.664 303.049 51.856C303.049 52.688 302.857 53.456 302.857 54.288C302.857 54.992 302.858 55.76 302.986 56.464L303.305 58.576L303.434 59.344ZM281.098 47.504H282.057C283.913 47.504 285.769 47.376 287.625 47.376H288.266C288.778 47.376 289.289 47.312 289.801 47.312C290.633 47.312 291.465 47.248 292.297 47.248L292.169 46.608L291.594 44.112C291.53 43.92 291.593 43.728 291.529 43.536L291.401 42.896L290.953 40.848C290.889 40.656 290.953 40.4 290.889 40.208L290.505 38.416C290.441 38.224 290.505 37.968 290.441 37.776L290.249 36.88L289.93 35.344L289.482 32.528C289.418 32.016 289.289 31.504 289.225 30.992L289.098 29.776C288.97 28.816 288.777 27.728 288.777 26.64C288.777 25.424 288.393 24.144 288.393 22.928L288.266 22.096C288.138 21.392 287.817 20.752 287.305 20.24L286.538 22.672L286.345 23.312L286.09 24.208L285.961 24.784L285.513 26.256L285.129 27.728L284.874 28.624L284.681 29.2C284.681 29.456 284.49 29.904 284.426 30.16L284.233 30.736C284.041 31.312 283.529 33.04 283.529 34.768L283.401 35.664L282.762 39.376L282.569 40.272L282.249 41.808L281.93 43.408L281.546 45.264L281.098 47.504Z"/>
<path d="M240.171 57.808C240.171 56.912 240.363 55.952 240.363 55.056C244.139 54.928 247.915 55.056 251.819 55.44C251.755 57.232 251.883 59.024 252.331 60.944C252.587 62.416 253.419 64.08 255.979 64.08C259.819 64.08 260.459 62.416 260.779 60.112V59.6C260.779 57.936 261.035 56.144 261.035 54.48V47.12C261.035 45.264 260.971 43.856 260.907 42.192L260.779 36.624C260.715 35.024 260.587 33.296 260.587 31.696V31.12H260.011L255.595 31.312C251.883 31.504 248.171 31.568 244.459 31.824C244.203 31.824 244.139 31.76 244.075 31.44L243.563 27.152C243.563 23.824 245.419 24.72 248.043 24.592C250.091 24.464 252.203 24.464 254.251 24.336L265.003 23.824C265.579 23.824 266.091 23.76 266.667 23.76L270.059 23.632C270.187 24.528 270.379 25.68 270.379 26.96V27.536C270.379 28.88 270.507 30.224 270.507 31.568C270.507 31.952 270.571 32.336 270.571 32.72V33.872C270.571 34.832 270.635 35.728 270.635 36.688C270.635 37.072 270.699 37.456 270.699 37.84V38.992C270.699 40.336 270.763 41.616 270.763 42.96V45.136C270.763 46.224 270.827 47.312 270.827 48.4V50.064C270.827 50.896 270.891 51.664 270.891 52.496V53.712C270.891 54.096 270.955 54.416 270.955 54.8V56.336C270.955 58 270.955 59.728 270.699 61.328L270.507 62.672C269.803 67.6 267.051 68.816 263.723 69.456L262.699 69.648C260.523 70.032 257.771 70.544 255.403 70.544C253.291 70.544 251.115 70.544 249.131 70.096C244.907 69.136 243.051 67.984 241.707 65.36L241.259 64.464C241.003 63.952 240.875 63.504 240.747 62.928L240.491 61.776C240.235 60.496 240.171 59.216 240.171 57.808Z"/>
<path d="M209.317 23.376C212.837 23.376 213.925 23.248 218.597 23.248V32.528C218.085 32.592 217.509 32.592 216.805 32.592H215.525C215.205 32.592 215.013 32.528 214.629 32.528H213.925C211.621 32.528 211.173 32.592 209.573 32.592V40.912C209.573 42.576 209.637 44.112 209.637 45.584V46.672C209.637 53.136 210.085 55.824 209.893 62.224C209.765 62.224 207.973 62.864 204.581 62.928C201.317 62.992 200.037 62.928 200.037 62.224C200.037 60.688 200.165 59.28 200.165 57.744C200.165 56.464 200.293 55.12 200.293 53.776C200.293 52.88 200.357 52.112 200.357 51.152C200.357 50.704 200.421 50.192 200.421 49.68V42.192C200.421 40.848 200.357 39.76 200.357 38.544V36.688C200.357 35.856 200.421 35.024 200.421 34.192V33.552C198.949 33.424 198.117 33.488 196.773 33.36C196.325 33.36 190.629 34.064 190.629 31.056C190.821 29.328 190.693 26.256 191.077 24.4L191.269 23.44C191.525 23.248 192.101 23.12 192.805 23.12H195.045C195.749 23.12 196.453 23.184 197.157 23.184C200.933 23.184 204.005 23.376 209.317 23.376Z"/>
<path d="M187.559 59.344C187.687 60.24 187.75 59.664 178.278 60.56C178.086 59.216 177.51 58.128 177.51 56.464V55.44C177.51 54.48 177.382 53.52 177.126 52.56H176.742C176.614 52.56 176.486 52.624 176.358 52.624H175.27C174.886 52.624 174.566 52.688 174.182 52.688L170.79 52.752C169.574 52.752 168.294 52.752 167.078 52.88L165.606 53.008C164.326 53.136 164.518 54.16 164.454 55.248L164.262 57.552C164.326 57.552 164.518 61.136 161.638 60.944L159.783 60.816L158.118 60.624C157.798 60.112 157.67 59.408 157.67 58.832C157.67 58.128 157.862 57.296 157.99 56.592L158.438 54.416L158.951 51.024L159.078 50.256C159.206 49.36 159.398 48.528 159.59 47.632L159.718 46.928L160.294 43.92L160.486 42.768L160.742 41.744L161.382 38.864L161.766 36.688L161.895 35.6L162.086 34.448L162.47 32.272L163.174 29.712L163.814 27.536L164.39 25.36C164.518 24.976 164.518 24.656 164.646 24.272L164.966 23.184C165.158 22.48 165.798 20.496 165.798 19.664C165.798 19.024 165.478 18.896 164.902 18.896H164.007C162.023 18.896 159.782 19.28 157.606 19.28C156.582 19.28 155.622 19.216 154.598 19.216C153.638 19.216 153.062 19.472 153.062 18.192L153.446 13.392C153.51 12.752 153.51 12.176 154.15 12.176C154.79 12.304 155.494 12.304 156.198 12.304C158.054 12.304 160.806 12.048 163.046 12.048H164.839C165.223 12.048 165.542 12.112 165.926 12.112H167.783C168.935 12.112 170.022 11.984 171.11 11.856L174.438 11.472C175.462 11.344 176.678 11.216 177.766 11.216H178.918C179.174 11.28 179.622 11.28 180.134 11.28C180.838 11.28 182.055 11.216 183.335 11.216C184.167 11.216 185.126 11.152 186.086 11.152C186.982 11.152 187.943 11.088 188.839 11.024L192.486 10.832C192.486 12.56 192.999 18 190.503 18.576L188.07 18.832C186.726 18.96 185.382 19.024 184.038 19.024C183.078 19.024 181.542 18.96 181.286 19.216C181.286 19.344 181.35 19.472 181.35 19.6L181.862 21.84L182.246 23.632L182.503 24.784L182.758 25.872L183.078 27.728L183.335 29.52L183.462 31.056C183.59 32.656 183.463 35.28 183.783 37.328L184.166 39.888L184.678 42.064L184.87 42.768L185.638 44.944C185.766 45.328 185.83 45.712 185.958 46.032L186.214 47.12C186.47 48.208 186.726 49.36 186.918 50.448L187.046 51.216C187.11 51.408 187.174 51.664 187.174 51.856C187.174 52.688 186.982 53.456 186.982 54.288C186.982 54.992 186.982 55.76 187.11 56.464L187.43 58.576L187.559 59.344ZM165.222 47.504H166.182C168.038 47.504 169.894 47.376 171.75 47.376H172.39C172.902 47.376 173.414 47.312 173.926 47.312C174.758 47.312 175.59 47.248 176.423 47.248L176.294 46.608L175.718 44.112C175.654 43.92 175.718 43.728 175.654 43.536L175.526 42.896L175.078 40.848C175.014 40.656 175.078 40.4 175.014 40.208L174.63 38.416C174.566 38.224 174.63 37.968 174.566 37.776L174.374 36.88L174.054 35.344L173.606 32.528C173.542 32.016 173.414 31.504 173.35 30.992L173.222 29.776C173.094 28.816 172.902 27.728 172.902 26.64C172.902 25.424 172.518 24.144 172.518 22.928L172.39 22.096C172.262 21.392 171.942 20.752 171.43 20.24L170.662 22.672L170.47 23.312L170.214 24.208L170.086 24.784L169.638 26.256L169.255 27.728L168.998 28.624L168.806 29.2C168.806 29.456 168.614 29.904 168.55 30.16L168.358 30.736C168.166 31.312 167.654 33.04 167.654 34.768L167.526 35.664L166.886 39.376L166.694 40.272L166.374 41.808L166.054 43.408L165.671 45.264L165.222 47.504Z"/>
<path d="M152.636 23.12C153.596 23.12 153.34 23.12 153.404 24.272L153.596 26.896V27.984C153.596 28.304 153.66 28.624 153.66 29.008V39.056C153.66 40.144 153.596 41.104 153.596 42.192C153.596 43.024 153.532 43.92 153.532 44.752C153.532 46.032 153.404 47.248 153.404 48.528V50.576C153.404 51.28 153.34 52.048 153.34 52.752C153.34 53.136 153.276 53.52 153.276 53.904C153.276 54.288 153.212 54.672 153.212 55.056C153.212 55.824 153.148 56.592 153.148 57.424V58.704C153.148 59.984 153.084 61.264 152.956 62.608C152.956 63.568 152.892 64.464 152.892 65.424C152.892 65.872 152.828 66.32 152.828 66.832C152.828 69.712 152.188 69.456 150.524 69.456C150.012 69.392 144.508 69.328 144.508 68.688V66.384C144.508 62.864 144.636 59.344 144.636 55.824V54.736C144.636 54.224 144.572 53.712 144.572 53.2V52.24C144.572 51.536 144.508 50.96 144.508 50.32C144.38 50.32 144.316 50.256 144.188 50.256H143.74C142.332 50.064 140.412 49.936 139.068 49.936H138.172C137.404 49.936 136.636 49.872 135.996 50.192C135.548 50.832 135.612 52.432 135.612 54.8C135.612 55.44 135.676 56.08 135.676 56.784V59.28C135.676 60.112 135.74 60.944 135.74 61.776V62.736C135.74 63.376 135.484 64.016 135.164 64.464L128.572 64.656C127.804 64.656 126.652 64.976 126.652 63.376V62.672C126.652 62.672 126.588 62.544 126.588 62.288C126.588 62.16 126.588 61.904 126.652 61.584C126.652 60.944 126.588 60.24 126.588 59.536C126.588 59.216 126.524 58.832 126.524 58.448C126.524 53.776 126.268 48.336 126.268 41.552V38.032C125.18 38.352 124.348 38.48 124.284 38.16L123.964 31.184C123.9 30.416 124.028 29.52 124.22 28.816C124.732 28.816 125.244 28.752 125.756 28.752C127.612 28.752 129.532 28.496 131.388 28.496H135.1C136.38 29.136 136.188 33.872 136.188 36.816C136.188 38.224 136.252 39.568 136.252 40.72V41.488C136.252 42.896 137.148 42.576 138.812 42.576H139.644C140.22 42.576 140.796 42.576 141.436 42.512C141.628 42.512 141.82 42.576 142.012 42.576C142.396 42.576 142.716 42.512 143.036 42.512C143.932 42.448 143.804 40.528 143.804 39.376V37.456C143.804 36.816 143.868 36.176 143.868 35.6C143.868 34.768 143.932 34.064 143.932 33.296V31.632L143.996 25.424C144.252 22.352 149.052 22.608 152.636 23.12Z"/>
<path d="M133.095 18.768C132.391 18.832 131.559 18.832 130.599 18.832C129.575 18.832 130.407 18.768 127.399 18.768H124.199C122.983 18.768 121.703 18.832 120.487 18.832V28.752C120.487 29.328 120.551 29.968 120.551 30.544V36.304C120.551 36.688 120.615 37.008 120.615 37.392V40.208C120.615 41.168 120.679 42.064 120.679 43.024C120.679 43.6 120.743 44.112 120.743 44.688V45.776C120.743 46.352 120.807 46.864 120.807 47.376V48.464C120.807 48.976 120.871 49.552 120.871 50.064V51.216C120.871 51.792 120.935 52.304 120.935 52.88V54.608C120.935 56.144 120.999 57.616 120.999 59.088C120.999 60.368 116.071 60.304 114.471 60.304C113.703 60.304 110.951 61.328 110.951 57.872V56.336C110.951 54.544 111.079 52.496 111.079 50.576V49.36C111.079 47.056 111.271 44.816 111.271 42.512V41.296C111.271 39.76 111.335 38.224 111.335 36.688V23.056C111.335 21.904 111.399 20.752 111.399 19.664V19.152C110.183 19.152 109.095 19.024 107.943 18.96L105.383 18.832C104.167 18.768 102.951 18.832 101.351 18.704C99.6225 18.704 100.071 17.488 100.071 16.656C100.263 13.968 99.4305 10 102.311 10H104.231C108.967 10 113.191 10.256 119.463 10.256H123.623C127.719 10.256 129.831 10.128 133.095 10.128V18.768Z"/>
<path d="M62.8685 12.112C65.8765 11.728 68.8205 11.408 71.8285 10.96C72.0845 13.648 72.0205 15.952 72.3405 18.32C72.4685 19.536 72.4685 20.688 72.4685 21.904C72.4685 23.12 72.3405 24.4 72.3405 25.616C72.3405 27.6 72.4685 29.776 72.5965 31.76C72.9165 36.56 72.4045 39.632 72.4045 44.048V45.84C72.4045 46.416 72.3405 46.992 72.3405 47.632V53.392C72.5965 53.52 72.7885 53.648 73.0445 53.712C74.0045 54.032 74.9645 53.904 75.9245 53.776C77.1405 53.584 78.5485 53.392 79.8285 53.392C82.0045 53.328 84.3085 53.392 86.2925 53.456C87.2525 53.456 88.2765 53.392 89.3005 53.264C89.3005 53.648 89.4925 55.12 89.4925 55.696C89.4925 57.616 89.6845 60.688 88.4045 60.944C86.9965 60.944 85.6525 60.816 84.0525 60.816C81.1725 60.816 78.5485 61.264 75.8605 61.264H75.0285C74.5165 61.264 74.0045 61.328 73.4285 61.328H71.7645C70.7405 61.52 64.4045 61.776 63.3165 61.52C63.4445 60.688 63.5725 59.856 63.5725 58.96V56.016C63.5725 54.352 63.5085 52.496 63.5085 50.896V37.136C63.4445 36.496 63.3805 35.792 63.3805 35.088V32.784C63.3805 31.952 63.4445 31.184 63.4445 30.352V27.152C63.4445 26.64 63.3805 26.064 63.3805 25.552V24.72C63.3805 20.496 62.9965 16.336 62.8685 12.112Z"/>
<path d="M59.2386 27.216C59.2386 28.048 59.1746 28.944 59.1746 30.032V30.672C59.1746 31.12 59.1106 31.504 59.1106 31.952L58.9186 35.088C58.7906 36.752 58.6626 38.544 58.5986 40.208L58.2786 45.904C58.2146 46.544 58.2786 47.184 58.2146 47.824C58.0866 49.488 58.0866 51.216 57.8946 52.88V54.48C57.8946 56.464 57.5746 59.856 57.5746 61.904L58.0866 65.808C58.2146 65.808 58.8546 65.872 59.4946 65.872H60.9026C61.4786 65.872 62.0546 65.936 62.8226 65.936C63.3346 65.872 63.8466 65.808 64.4226 65.808H66.6626C67.8786 65.808 67.5586 65.872 67.9426 65.872H69.6706C70.5026 65.872 71.7826 66 74.0866 66L72.7426 73.488C71.7186 73.488 71.0786 73.552 70.5026 73.552H63.7186C58.5346 73.552 60.5186 73.104 53.8626 73.104C52.7746 73.104 51.5586 73.232 50.5346 73.232C50.1506 73.232 49.8306 73.168 49.4466 73.168C48.9986 73.168 48.6146 73.296 48.2946 73.296C48.1026 73.296 47.9746 73.232 47.8466 73.168C48.2306 71.056 48.2946 68.496 48.2946 65.936C48.2946 65.488 48.3586 65.04 48.3586 64.592V54.928C48.3586 53.648 48.4226 52.24 48.4226 50.96V46.544C48.4226 45.392 48.2946 43.152 48.2946 42.32V38.48C48.2946 37.648 48.3586 36.688 48.3586 35.664V34.384C48.3586 32.784 48.4226 31.184 48.4226 29.52V27.6C48.4226 26.64 48.4866 25.488 48.4866 24.464V23.312C48.0386 22.736 57.4466 23.44 58.8546 23.44L59.2386 27.216Z"/>
<path d="M43.496 59.344C43.624 60.24 43.688 59.664 34.216 60.56C34.024 59.216 33.448 58.128 33.448 56.464V55.44C33.448 54.48 33.32 53.52 33.064 52.56H32.68C32.552 52.56 32.424 52.624 32.296 52.624H31.208C30.824 52.624 30.504 52.688 30.12 52.688L26.728 52.752C25.512 52.752 24.232 52.752 23.016 52.88L21.544 53.008C20.264 53.136 20.456 54.16 20.392 55.248L20.2 57.552C20.264 57.552 20.456 61.136 17.576 60.944L15.72 60.816L14.056 60.624C13.736 60.112 13.608 59.408 13.608 58.832C13.608 58.128 13.8 57.296 13.928 56.592L14.376 54.416L14.888 51.024L15.016 50.256C15.144 49.36 15.336 48.528 15.528 47.632L15.656 46.928L16.232 43.92L16.424 42.768L16.68 41.744L17.32 38.864L17.704 36.688L17.832 35.6L18.024 34.448L18.408 32.272L19.112 29.712L19.752 27.536L20.328 25.36C20.456 24.976 20.456 24.656 20.584 24.272L20.904 23.184C21.096 22.48 21.736 20.496 21.736 19.664C21.736 19.024 21.416 18.896 20.84 18.896H19.944C17.96 18.896 15.72 19.28 13.544 19.28C12.52 19.28 11.56 19.216 10.536 19.216C9.576 19.216 9 19.472 9 18.192L9.384 13.392C9.448 12.752 9.448 12.176 10.088 12.176C10.728 12.304 11.432 12.304 12.136 12.304C13.992 12.304 16.744 12.048 18.984 12.048H20.776C21.16 12.048 21.48 12.112 21.864 12.112H23.72C24.872 12.112 25.96 11.984 27.048 11.856L30.376 11.472C31.4 11.344 32.616 11.216 33.704 11.216H34.856C35.112 11.28 35.56 11.28 36.072 11.28C36.776 11.28 37.992 11.216 39.272 11.216C40.104 11.216 41.064 11.152 42.024 11.152C42.92 11.152 43.88 11.088 44.776 11.024L48.424 10.832C48.424 12.56 48.936 18 46.44 18.576L44.008 18.832C42.664 18.96 41.32 19.024 39.976 19.024C39.016 19.024 37.48 18.96 37.224 19.216C37.224 19.344 37.288 19.472 37.288 19.6L37.8 21.84L38.184 23.632L38.44 24.784L38.696 25.872L39.016 27.728L39.272 29.52L39.4 31.056C39.528 32.656 39.4 35.28 39.72 37.328L40.104 39.888L40.616 42.064L40.808 42.768L41.576 44.944C41.704 45.328 41.768 45.712 41.896 46.032L42.152 47.12C42.408 48.208 42.664 49.36 42.856 50.448L42.984 51.216C43.048 51.408 43.112 51.664 43.112 51.856C43.112 52.688 42.92 53.456 42.92 54.288C42.92 54.992 42.92 55.76 43.048 56.464L43.368 58.576L43.496 59.344ZM21.16 47.504H22.12C23.976 47.504 25.832 47.376 27.688 47.376H28.328C28.84 47.376 29.352 47.312 29.864 47.312C30.696 47.312 31.528 47.248 32.36 47.248L32.232 46.608L31.656 44.112C31.592 43.92 31.656 43.728 31.592 43.536L31.464 42.896L31.016 40.848C30.952 40.656 31.016 40.4 30.952 40.208L30.568 38.416C30.504 38.224 30.568 37.968 30.504 37.776L30.312 36.88L29.992 35.344L29.544 32.528C29.48 32.016 29.352 31.504 29.288 30.992L29.16 29.776C29.032 28.816 28.84 27.728 28.84 26.64C28.84 25.424 28.456 24.144 28.456 22.928L28.328 22.096C28.2 21.392 27.88 20.752 27.368 20.24L26.6 22.672L26.408 23.312L26.152 24.208L26.024 24.784L25.576 26.256L25.192 27.728L24.936 28.624L24.744 29.2C24.744 29.456 24.552 29.904 24.488 30.16L24.296 30.736C24.104 31.312 23.592 33.04 23.592 34.768L23.464 35.664L22.824 39.376L22.632 40.272L22.312 41.808L21.992 43.408L21.608 45.264L21.16 47.504Z"/>
</mask>
<path d="M383.733 25.744C382.069 34.96 380.981 39.824 380.085 48.4C379.829 48.784 379.317 48.976 378.485 48.912C377.973 48.912 377.525 48.784 376.949 48.784L373.749 48.4C373.045 47.952 372.917 45.456 372.981 42.192L373.301 15.248C373.493 14.16 374.837 14.416 375.605 14.416C375.989 14.48 376.373 14.544 376.757 14.544C379.509 14.736 382.325 14.736 385.013 14.864C385.269 15.44 385.333 16.208 385.333 17.168C385.269 17.36 385.269 17.616 385.205 17.936L383.733 25.744ZM370.037 58.064C369.909 59.92 371.701 61.584 374.005 61.712H374.261C375.541 61.776 377.077 61.776 377.781 61.712C379.829 61.84 381.685 59.984 381.813 57.488L381.877 56.912C382.005 54.48 380.277 52.496 378.101 52.368H377.845C376.949 52.304 375.221 52.304 374.197 52.368C372.085 52.304 370.165 54.544 370.037 57.424V58.064Z" fill="#FF29B0"/>
<path d="M340.303 60.368V52.816L340.559 52.432L341.135 51.216L341.583 50.256L342.095 49.232C342.351 48.72 342.799 48.208 343.311 47.76L343.759 46.928C344.399 45.776 344.975 44.56 345.551 43.344L346.191 42C346.575 41.168 346.959 40.528 347.279 39.632L347.663 38.608L348.751 36.112L349.391 34.576L349.839 33.488L350.543 31.888L351.951 28.56C352.335 27.6 352.783 26.64 353.231 25.68L353.743 24.528L354.895 22.096C355.151 21.712 355.215 21.264 355.471 20.88H355.023C354.703 20.88 354.447 20.944 354.127 20.944H352.783C352.335 20.944 351.823 21.008 351.311 21.008C349.839 21.008 348.495 21.072 346.703 21.072H343.759C340.047 21.072 341.199 20.752 340.175 20.56L339.407 16.784C339.407 15.44 339.599 13.648 340.367 12.112H342.095C342.863 12.112 343.567 12.176 344.335 12.176H347.215C348.367 12.176 349.455 12.24 350.607 12.24L367.695 12.432L367.439 14.032L367.183 15.568L366.671 18.704C366.351 19.024 365.647 20.112 365.007 21.52L364.111 23.44L362.767 26.384L362.063 27.856L360.399 31.376L359.631 32.912L358.415 35.472L357.711 37.008L356.687 39.056L355.471 41.744L353.807 44.368L352.911 46.544L352.143 48.208L350.799 51.536L350.543 52.112H351.439C351.759 52.112 352.015 52.048 352.271 52.048C352.847 52.048 353.423 51.984 353.999 51.984C356.303 51.856 358.287 51.792 360.079 51.792H361.615C363.855 51.792 365.775 51.6 367.311 51.6C367.631 51.6 367.951 51.536 368.207 51.536C368.335 52.176 368.463 53.072 368.527 54.288C368.527 55.952 368.463 57.616 368.463 59.28V60.368H365.519C362.767 60.368 360.207 60.24 357.455 60.24H354.895C353.679 60.24 352.463 60.304 351.247 60.304H349.007C348.495 60.304 347.855 60.368 347.343 60.368H340.303Z" fill="#FF29B0"/>
<path d="M305.864 71.888L305.736 70.672L305.224 66.896C306.632 65.104 306.952 63.76 308.104 61.584L309.448 59.088L310.92 56.208C311.112 55.824 311.24 55.312 326.344 33.296L327.048 32.272L327.432 31.76C326.152 31.76 323.464 31.888 321.992 31.888H320.392C318.856 31.888 316.424 31.632 310.856 31.632H307.976C307.464 31.632 306.952 31.568 306.376 31.568L305.608 27.664C305.608 27.664 305.544 22.992 307.272 22.992C307.976 22.992 308.616 23.056 309.32 23.056H312.84C314.44 23.056 316.104 23.12 317.704 23.12C318.408 23.12 319.048 23.184 319.752 23.184C325.576 23.312 331.336 23.248 337.16 23.376C337.16 25.424 337.352 27.536 337.352 29.584C337.224 29.84 336.776 32.528 336.328 33.424H336.136C335.816 33.744 335.56 34.128 335.24 34.512L334.28 35.792L332.744 38.224L331.784 39.824C331.208 40.784 329.992 41.296 318.664 59.6L317.832 60.944L316.104 63.632L315.656 64.272C316.424 64.272 317.192 64.208 317.96 64.208L330.952 63.824C334.088 63.76 337.224 63.76 340.36 63.504H341.64C342.664 63.504 343.752 63.376 344.776 63.376C344.904 64.016 345.032 64.976 345.096 66.128C345.096 67.984 345.032 69.712 345.032 71.568V72.208H343.112C342.28 72.208 341.384 72.272 340.552 72.272C338.12 72.272 335.624 72.144 333.192 72.144H330.312C329.608 72.144 328.84 72.08 328.136 72.08H326.728C321.928 72.08 317.064 71.952 312.328 71.952H311.048C310.408 71.952 309.704 71.888 309.064 71.888H305.864Z" fill="#FF29B0"/>
<path d="M303.434 59.344C303.562 60.24 303.626 59.664 294.154 60.56C293.962 59.216 293.385 58.128 293.385 56.464V55.44C293.385 54.48 293.257 53.52 293.001 52.56H292.617C292.489 52.56 292.361 52.624 292.233 52.624H291.146C290.762 52.624 290.441 52.688 290.057 52.688L286.665 52.752C285.449 52.752 284.169 52.752 282.953 52.88L281.482 53.008C280.202 53.136 280.393 54.16 280.329 55.248L280.137 57.552C280.201 57.552 280.393 61.136 277.513 60.944L275.658 60.816L273.993 60.624C273.673 60.112 273.546 59.408 273.546 58.832C273.546 58.128 273.737 57.296 273.865 56.592L274.314 54.416L274.826 51.024L274.953 50.256C275.081 49.36 275.273 48.528 275.465 47.632L275.594 46.928L276.169 43.92L276.361 42.768L276.617 41.744L277.258 38.864L277.641 36.688L277.77 35.6L277.961 34.448L278.345 32.272L279.049 29.712L279.689 27.536L280.266 25.36C280.394 24.976 280.393 24.656 280.521 24.272L280.841 23.184C281.033 22.48 281.673 20.496 281.673 19.664C281.673 19.024 281.353 18.896 280.777 18.896H279.882C277.898 18.896 275.658 19.28 273.482 19.28C272.458 19.28 271.497 19.216 270.473 19.216C269.513 19.216 268.938 19.472 268.938 18.192L269.322 13.392C269.386 12.752 269.385 12.176 270.025 12.176C270.665 12.304 271.369 12.304 272.073 12.304C273.929 12.304 276.682 12.048 278.922 12.048H280.714C281.098 12.048 281.417 12.112 281.801 12.112H283.658C284.81 12.112 285.898 11.984 286.986 11.856L290.314 11.472C291.338 11.344 292.553 11.216 293.641 11.216H294.793C295.049 11.28 295.497 11.28 296.009 11.28C296.713 11.28 297.93 11.216 299.21 11.216C300.042 11.216 301.001 11.152 301.961 11.152C302.857 11.152 303.818 11.088 304.714 11.024L308.362 10.832C308.362 12.56 308.874 18 306.378 18.576L303.945 18.832C302.601 18.96 301.257 19.024 299.913 19.024C298.953 19.024 297.417 18.96 297.161 19.216C297.161 19.344 297.225 19.472 297.225 19.6L297.737 21.84L298.121 23.632L298.378 24.784L298.633 25.872L298.953 27.728L299.21 29.52L299.337 31.056C299.465 32.656 299.338 35.28 299.658 37.328L300.042 39.888L300.553 42.064L300.745 42.768L301.513 44.944C301.641 45.328 301.705 45.712 301.833 46.032L302.09 47.12C302.346 48.208 302.601 49.36 302.793 50.448L302.922 51.216C302.986 51.408 303.049 51.664 303.049 51.856C303.049 52.688 302.857 53.456 302.857 54.288C302.857 54.992 302.858 55.76 302.986 56.464L303.305 58.576L303.434 59.344ZM281.098 47.504H282.057C283.913 47.504 285.769 47.376 287.625 47.376H288.266C288.778 47.376 289.289 47.312 289.801 47.312C290.633 47.312 291.465 47.248 292.297 47.248L292.169 46.608L291.594 44.112C291.53 43.92 291.593 43.728 291.529 43.536L291.401 42.896L290.953 40.848C290.889 40.656 290.953 40.4 290.889 40.208L290.505 38.416C290.441 38.224 290.505 37.968 290.441 37.776L290.249 36.88L289.93 35.344L289.482 32.528C289.418 32.016 289.289 31.504 289.225 30.992L289.098 29.776C288.97 28.816 288.777 27.728 288.777 26.64C288.777 25.424 288.393 24.144 288.393 22.928L288.266 22.096C288.138 21.392 287.817 20.752 287.305 20.24L286.538 22.672L286.345 23.312L286.09 24.208L285.961 24.784L285.513 26.256L285.129 27.728L284.874 28.624L284.681 29.2C284.681 29.456 284.49 29.904 284.426 30.16L284.233 30.736C284.041 31.312 283.529 33.04 283.529 34.768L283.401 35.664L282.762 39.376L282.569 40.272L282.249 41.808L281.93 43.408L281.546 45.264L281.098 47.504Z" fill="#FF29B0"/>
<path d="M240.171 57.808C240.171 56.912 240.363 55.952 240.363 55.056C244.139 54.928 247.915 55.056 251.819 55.44C251.755 57.232 251.883 59.024 252.331 60.944C252.587 62.416 253.419 64.08 255.979 64.08C259.819 64.08 260.459 62.416 260.779 60.112V59.6C260.779 57.936 261.035 56.144 261.035 54.48V47.12C261.035 45.264 260.971 43.856 260.907 42.192L260.779 36.624C260.715 35.024 260.587 33.296 260.587 31.696V31.12H260.011L255.595 31.312C251.883 31.504 248.171 31.568 244.459 31.824C244.203 31.824 244.139 31.76 244.075 31.44L243.563 27.152C243.563 23.824 245.419 24.72 248.043 24.592C250.091 24.464 252.203 24.464 254.251 24.336L265.003 23.824C265.579 23.824 266.091 23.76 266.667 23.76L270.059 23.632C270.187 24.528 270.379 25.68 270.379 26.96V27.536C270.379 28.88 270.507 30.224 270.507 31.568C270.507 31.952 270.571 32.336 270.571 32.72V33.872C270.571 34.832 270.635 35.728 270.635 36.688C270.635 37.072 270.699 37.456 270.699 37.84V38.992C270.699 40.336 270.763 41.616 270.763 42.96V45.136C270.763 46.224 270.827 47.312 270.827 48.4V50.064C270.827 50.896 270.891 51.664 270.891 52.496V53.712C270.891 54.096 270.955 54.416 270.955 54.8V56.336C270.955 58 270.955 59.728 270.699 61.328L270.507 62.672C269.803 67.6 267.051 68.816 263.723 69.456L262.699 69.648C260.523 70.032 257.771 70.544 255.403 70.544C253.291 70.544 251.115 70.544 249.131 70.096C244.907 69.136 243.051 67.984 241.707 65.36L241.259 64.464C241.003 63.952 240.875 63.504 240.747 62.928L240.491 61.776C240.235 60.496 240.171 59.216 240.171 57.808Z" fill="#FF29B0"/>
<path d="M209.317 23.376C212.837 23.376 213.925 23.248 218.597 23.248V32.528C218.085 32.592 217.509 32.592 216.805 32.592H215.525C215.205 32.592 215.013 32.528 214.629 32.528H213.925C211.621 32.528 211.173 32.592 209.573 32.592V40.912C209.573 42.576 209.637 44.112 209.637 45.584V46.672C209.637 53.136 210.085 55.824 209.893 62.224C209.765 62.224 207.973 62.864 204.581 62.928C201.317 62.992 200.037 62.928 200.037 62.224C200.037 60.688 200.165 59.28 200.165 57.744C200.165 56.464 200.293 55.12 200.293 53.776C200.293 52.88 200.357 52.112 200.357 51.152C200.357 50.704 200.421 50.192 200.421 49.68V42.192C200.421 40.848 200.357 39.76 200.357 38.544V36.688C200.357 35.856 200.421 35.024 200.421 34.192V33.552C198.949 33.424 198.117 33.488 196.773 33.36C196.325 33.36 190.629 34.064 190.629 31.056C190.821 29.328 190.693 26.256 191.077 24.4L191.269 23.44C191.525 23.248 192.101 23.12 192.805 23.12H195.045C195.749 23.12 196.453 23.184 197.157 23.184C200.933 23.184 204.005 23.376 209.317 23.376Z" fill="#FF29B0"/>
<path d="M187.559 59.344C187.687 60.24 187.75 59.664 178.278 60.56C178.086 59.216 177.51 58.128 177.51 56.464V55.44C177.51 54.48 177.382 53.52 177.126 52.56H176.742C176.614 52.56 176.486 52.624 176.358 52.624H175.27C174.886 52.624 174.566 52.688 174.182 52.688L170.79 52.752C169.574 52.752 168.294 52.752 167.078 52.88L165.606 53.008C164.326 53.136 164.518 54.16 164.454 55.248L164.262 57.552C164.326 57.552 164.518 61.136 161.638 60.944L159.783 60.816L158.118 60.624C157.798 60.112 157.67 59.408 157.67 58.832C157.67 58.128 157.862 57.296 157.99 56.592L158.438 54.416L158.951 51.024L159.078 50.256C159.206 49.36 159.398 48.528 159.59 47.632L159.718 46.928L160.294 43.92L160.486 42.768L160.742 41.744L161.382 38.864L161.766 36.688L161.895 35.6L162.086 34.448L162.47 32.272L163.174 29.712L163.814 27.536L164.39 25.36C164.518 24.976 164.518 24.656 164.646 24.272L164.966 23.184C165.158 22.48 165.798 20.496 165.798 19.664C165.798 19.024 165.478 18.896 164.902 18.896H164.007C162.023 18.896 159.782 19.28 157.606 19.28C156.582 19.28 155.622 19.216 154.598 19.216C153.638 19.216 153.062 19.472 153.062 18.192L153.446 13.392C153.51 12.752 153.51 12.176 154.15 12.176C154.79 12.304 155.494 12.304 156.198 12.304C158.054 12.304 160.806 12.048 163.046 12.048H164.839C165.223 12.048 165.542 12.112 165.926 12.112H167.783C168.935 12.112 170.022 11.984 171.11 11.856L174.438 11.472C175.462 11.344 176.678 11.216 177.766 11.216H178.918C179.174 11.28 179.622 11.28 180.134 11.28C180.838 11.28 182.055 11.216 183.335 11.216C184.167 11.216 185.126 11.152 186.086 11.152C186.982 11.152 187.943 11.088 188.839 11.024L192.486 10.832C192.486 12.56 192.999 18 190.503 18.576L188.07 18.832C186.726 18.96 185.382 19.024 184.038 19.024C183.078 19.024 181.542 18.96 181.286 19.216C181.286 19.344 181.35 19.472 181.35 19.6L181.862 21.84L182.246 23.632L182.503 24.784L182.758 25.872L183.078 27.728L183.335 29.52L183.462 31.056C183.59 32.656 183.463 35.28 183.783 37.328L184.166 39.888L184.678 42.064L184.87 42.768L185.638 44.944C185.766 45.328 185.83 45.712 185.958 46.032L186.214 47.12C186.47 48.208 186.726 49.36 186.918 50.448L187.046 51.216C187.11 51.408 187.174 51.664 187.174 51.856C187.174 52.688 186.982 53.456 186.982 54.288C186.982 54.992 186.982 55.76 187.11 56.464L187.43 58.576L187.559 59.344ZM165.222 47.504H166.182C168.038 47.504 169.894 47.376 171.75 47.376H172.39C172.902 47.376 173.414 47.312 173.926 47.312C174.758 47.312 175.59 47.248 176.423 47.248L176.294 46.608L175.718 44.112C175.654 43.92 175.718 43.728 175.654 43.536L175.526 42.896L175.078 40.848C175.014 40.656 175.078 40.4 175.014 40.208L174.63 38.416C174.566 38.224 174.63 37.968 174.566 37.776L174.374 36.88L174.054 35.344L173.606 32.528C173.542 32.016 173.414 31.504 173.35 30.992L173.222 29.776C173.094 28.816 172.902 27.728 172.902 26.64C172.902 25.424 172.518 24.144 172.518 22.928L172.39 22.096C172.262 21.392 171.942 20.752 171.43 20.24L170.662 22.672L170.47 23.312L170.214 24.208L170.086 24.784L169.638 26.256L169.255 27.728L168.998 28.624L168.806 29.2C168.806 29.456 168.614 29.904 168.55 30.16L168.358 30.736C168.166 31.312 167.654 33.04 167.654 34.768L167.526 35.664L166.886 39.376L166.694 40.272L166.374 41.808L166.054 43.408L165.671 45.264L165.222 47.504Z" fill="#FF29B0"/>
<path d="M152.636 23.12C153.596 23.12 153.34 23.12 153.404 24.272L153.596 26.896V27.984C153.596 28.304 153.66 28.624 153.66 29.008V39.056C153.66 40.144 153.596 41.104 153.596 42.192C153.596 43.024 153.532 43.92 153.532 44.752C153.532 46.032 153.404 47.248 153.404 48.528V50.576C153.404 51.28 153.34 52.048 153.34 52.752C153.34 53.136 153.276 53.52 153.276 53.904C153.276 54.288 153.212 54.672 153.212 55.056C153.212 55.824 153.148 56.592 153.148 57.424V58.704C153.148 59.984 153.084 61.264 152.956 62.608C152.956 63.568 152.892 64.464 152.892 65.424C152.892 65.872 152.828 66.32 152.828 66.832C152.828 69.712 152.188 69.456 150.524 69.456C150.012 69.392 144.508 69.328 144.508 68.688V66.384C144.508 62.864 144.636 59.344 144.636 55.824V54.736C144.636 54.224 144.572 53.712 144.572 53.2V52.24C144.572 51.536 144.508 50.96 144.508 50.32C144.38 50.32 144.316 50.256 144.188 50.256H143.74C142.332 50.064 140.412 49.936 139.068 49.936H138.172C137.404 49.936 136.636 49.872 135.996 50.192C135.548 50.832 135.612 52.432 135.612 54.8C135.612 55.44 135.676 56.08 135.676 56.784V59.28C135.676 60.112 135.74 60.944 135.74 61.776V62.736C135.74 63.376 135.484 64.016 135.164 64.464L128.572 64.656C127.804 64.656 126.652 64.976 126.652 63.376V62.672C126.652 62.672 126.588 62.544 126.588 62.288C126.588 62.16 126.588 61.904 126.652 61.584C126.652 60.944 126.588 60.24 126.588 59.536C126.588 59.216 126.524 58.832 126.524 58.448C126.524 53.776 126.268 48.336 126.268 41.552V38.032C125.18 38.352 124.348 38.48 124.284 38.16L123.964 31.184C123.9 30.416 124.028 29.52 124.22 28.816C124.732 28.816 125.244 28.752 125.756 28.752C127.612 28.752 129.532 28.496 131.388 28.496H135.1C136.38 29.136 136.188 33.872 136.188 36.816C136.188 38.224 136.252 39.568 136.252 40.72V41.488C136.252 42.896 137.148 42.576 138.812 42.576H139.644C140.22 42.576 140.796 42.576 141.436 42.512C141.628 42.512 141.82 42.576 142.012 42.576C142.396 42.576 142.716 42.512 143.036 42.512C143.932 42.448 143.804 40.528 143.804 39.376V37.456C143.804 36.816 143.868 36.176 143.868 35.6C143.868 34.768 143.932 34.064 143.932 33.296V31.632L143.996 25.424C144.252 22.352 149.052 22.608 152.636 23.12Z" fill="#FF29B0"/>
<path d="M133.095 18.768C132.391 18.832 131.559 18.832 130.599 18.832C129.575 18.832 130.407 18.768 127.399 18.768H124.199C122.983 18.768 121.703 18.832 120.487 18.832V28.752C120.487 29.328 120.551 29.968 120.551 30.544V36.304C120.551 36.688 120.615 37.008 120.615 37.392V40.208C120.615 41.168 120.679 42.064 120.679 43.024C120.679 43.6 120.743 44.112 120.743 44.688V45.776C120.743 46.352 120.807 46.864 120.807 47.376V48.464C120.807 48.976 120.871 49.552 120.871 50.064V51.216C120.871 51.792 120.935 52.304 120.935 52.88V54.608C120.935 56.144 120.999 57.616 120.999 59.088C120.999 60.368 116.071 60.304 114.471 60.304C113.703 60.304 110.951 61.328 110.951 57.872V56.336C110.951 54.544 111.079 52.496 111.079 50.576V49.36C111.079 47.056 111.271 44.816 111.271 42.512V41.296C111.271 39.76 111.335 38.224 111.335 36.688V23.056C111.335 21.904 111.399 20.752 111.399 19.664V19.152C110.183 19.152 109.095 19.024 107.943 18.96L105.383 18.832C104.167 18.768 102.951 18.832 101.351 18.704C99.6225 18.704 100.071 17.488 100.071 16.656C100.263 13.968 99.4305 10 102.311 10H104.231C108.967 10 113.191 10.256 119.463 10.256H123.623C127.719 10.256 129.831 10.128 133.095 10.128V18.768Z" fill="#FF29B0"/>
<path d="M62.8685 12.112C65.8765 11.728 68.8205 11.408 71.8285 10.96C72.0845 13.648 72.0205 15.952 72.3405 18.32C72.4685 19.536 72.4685 20.688 72.4685 21.904C72.4685 23.12 72.3405 24.4 72.3405 25.616C72.3405 27.6 72.4685 29.776 72.5965 31.76C72.9165 36.56 72.4045 39.632 72.4045 44.048V45.84C72.4045 46.416 72.3405 46.992 72.3405 47.632V53.392C72.5965 53.52 72.7885 53.648 73.0445 53.712C74.0045 54.032 74.9645 53.904 75.9245 53.776C77.1405 53.584 78.5485 53.392 79.8285 53.392C82.0045 53.328 84.3085 53.392 86.2925 53.456C87.2525 53.456 88.2765 53.392 89.3005 53.264C89.3005 53.648 89.4925 55.12 89.4925 55.696C89.4925 57.616 89.6845 60.688 88.4045 60.944C86.9965 60.944 85.6525 60.816 84.0525 60.816C81.1725 60.816 78.5485 61.264 75.8605 61.264H75.0285C74.5165 61.264 74.0045 61.328 73.4285 61.328H71.7645C70.7405 61.52 64.4045 61.776 63.3165 61.52C63.4445 60.688 63.5725 59.856 63.5725 58.96V56.016C63.5725 54.352 63.5085 52.496 63.5085 50.896V37.136C63.4445 36.496 63.3805 35.792 63.3805 35.088V32.784C63.3805 31.952 63.4445 31.184 63.4445 30.352V27.152C63.4445 26.64 63.3805 26.064 63.3805 25.552V24.72C63.3805 20.496 62.9965 16.336 62.8685 12.112Z" fill="#FF29B0"/>
<path d="M59.2386 27.216C59.2386 28.048 59.1746 28.944 59.1746 30.032V30.672C59.1746 31.12 59.1106 31.504 59.1106 31.952L58.9186 35.088C58.7906 36.752 58.6626 38.544 58.5986 40.208L58.2786 45.904C58.2146 46.544 58.2786 47.184 58.2146 47.824C58.0866 49.488 58.0866 51.216 57.8946 52.88V54.48C57.8946 56.464 57.5746 59.856 57.5746 61.904L58.0866 65.808C58.2146 65.808 58.8546 65.872 59.4946 65.872H60.9026C61.4786 65.872 62.0546 65.936 62.8226 65.936C63.3346 65.872 63.8466 65.808 64.4226 65.808H66.6626C67.8786 65.808 67.5586 65.872 67.9426 65.872H69.6706C70.5026 65.872 71.7826 66 74.0866 66L72.7426 73.488C71.7186 73.488 71.0786 73.552 70.5026 73.552H63.7186C58.5346 73.552 60.5186 73.104 53.8626 73.104C52.7746 73.104 51.5586 73.232 50.5346 73.232C50.1506 73.232 49.8306 73.168 49.4466 73.168C48.9986 73.168 48.6146 73.296 48.2946 73.296C48.1026 73.296 47.9746 73.232 47.8466 73.168C48.2306 71.056 48.2946 68.496 48.2946 65.936C48.2946 65.488 48.3586 65.04 48.3586 64.592V54.928C48.3586 53.648 48.4226 52.24 48.4226 50.96V46.544C48.4226 45.392 48.2946 43.152 48.2946 42.32V38.48C48.2946 37.648 48.3586 36.688 48.3586 35.664V34.384C48.3586 32.784 48.4226 31.184 48.4226 29.52V27.6C48.4226 26.64 48.4866 25.488 48.4866 24.464V23.312C48.0386 22.736 57.4466 23.44 58.8546 23.44L59.2386 27.216Z" fill="#FF29B0"/>
<path d="M43.496 59.344C43.624 60.24 43.688 59.664 34.216 60.56C34.024 59.216 33.448 58.128 33.448 56.464V55.44C33.448 54.48 33.32 53.52 33.064 52.56H32.68C32.552 52.56 32.424 52.624 32.296 52.624H31.208C30.824 52.624 30.504 52.688 30.12 52.688L26.728 52.752C25.512 52.752 24.232 52.752 23.016 52.88L21.544 53.008C20.264 53.136 20.456 54.16 20.392 55.248L20.2 57.552C20.264 57.552 20.456 61.136 17.576 60.944L15.72 60.816L14.056 60.624C13.736 60.112 13.608 59.408 13.608 58.832C13.608 58.128 13.8 57.296 13.928 56.592L14.376 54.416L14.888 51.024L15.016 50.256C15.144 49.36 15.336 48.528 15.528 47.632L15.656 46.928L16.232 43.92L16.424 42.768L16.68 41.744L17.32 38.864L17.704 36.688L17.832 35.6L18.024 34.448L18.408 32.272L19.112 29.712L19.752 27.536L20.328 25.36C20.456 24.976 20.456 24.656 20.584 24.272L20.904 23.184C21.096 22.48 21.736 20.496 21.736 19.664C21.736 19.024 21.416 18.896 20.84 18.896H19.944C17.96 18.896 15.72 19.28 13.544 19.28C12.52 19.28 11.56 19.216 10.536 19.216C9.576 19.216 9 19.472 9 18.192L9.384 13.392C9.448 12.752 9.448 12.176 10.088 12.176C10.728 12.304 11.432 12.304 12.136 12.304C13.992 12.304 16.744 12.048 18.984 12.048H20.776C21.16 12.048 21.48 12.112 21.864 12.112H23.72C24.872 12.112 25.96 11.984 27.048 11.856L30.376 11.472C31.4 11.344 32.616 11.216 33.704 11.216H34.856C35.112 11.28 35.56 11.28 36.072 11.28C36.776 11.28 37.992 11.216 39.272 11.216C40.104 11.216 41.064 11.152 42.024 11.152C42.92 11.152 43.88 11.088 44.776 11.024L48.424 10.832C48.424 12.56 48.936 18 46.44 18.576L44.008 18.832C42.664 18.96 41.32 19.024 39.976 19.024C39.016 19.024 37.48 18.96 37.224 19.216C37.224 19.344 37.288 19.472 37.288 19.6L37.8 21.84L38.184 23.632L38.44 24.784L38.696 25.872L39.016 27.728L39.272 29.52L39.4 31.056C39.528 32.656 39.4 35.28 39.72 37.328L40.104 39.888L40.616 42.064L40.808 42.768L41.576 44.944C41.704 45.328 41.768 45.712 41.896 46.032L42.152 47.12C42.408 48.208 42.664 49.36 42.856 50.448L42.984 51.216C43.048 51.408 43.112 51.664 43.112 51.856C43.112 52.688 42.92 53.456 42.92 54.288C42.92 54.992 42.92 55.76 43.048 56.464L43.368 58.576L43.496 59.344ZM21.16 47.504H22.12C23.976 47.504 25.832 47.376 27.688 47.376H28.328C28.84 47.376 29.352 47.312 29.864 47.312C30.696 47.312 31.528 47.248 32.36 47.248L32.232 46.608L31.656 44.112C31.592 43.92 31.656 43.728 31.592 43.536L31.464 42.896L31.016 40.848C30.952 40.656 31.016 40.4 30.952 40.208L30.568 38.416C30.504 38.224 30.568 37.968 30.504 37.776L30.312 36.88L29.992 35.344L29.544 32.528C29.48 32.016 29.352 31.504 29.288 30.992L29.16 29.776C29.032 28.816 28.84 27.728 28.84 26.64C28.84 25.424 28.456 24.144 28.456 22.928L28.328 22.096C28.2 21.392 27.88 20.752 27.368 20.24L26.6 22.672L26.408 23.312L26.152 24.208L26.024 24.784L25.576 26.256L25.192 27.728L24.936 28.624L24.744 29.2C24.744 29.456 24.552 29.904 24.488 30.16L24.296 30.736C24.104 31.312 23.592 33.04 23.592 34.768L23.464 35.664L22.824 39.376L22.632 40.272L22.312 41.808L21.992 43.408L21.608 45.264L21.16 47.504Z" fill="#FF29B0"/>
<path d="M383.733 25.744C382.069 34.96 380.981 39.824 380.085 48.4C379.829 48.784 379.317 48.976 378.485 48.912C377.973 48.912 377.525 48.784 376.949 48.784L373.749 48.4C373.045 47.952 372.917 45.456 372.981 42.192L373.301 15.248C373.493 14.16 374.837 14.416 375.605 14.416C375.989 14.48 376.373 14.544 376.757 14.544C379.509 14.736 382.325 14.736 385.013 14.864C385.269 15.44 385.333 16.208 385.333 17.168C385.269 17.36 385.269 17.616 385.205 17.936L383.733 25.744ZM370.037 58.064C369.909 59.92 371.701 61.584 374.005 61.712H374.261C375.541 61.776 377.077 61.776 377.781 61.712C379.829 61.84 381.685 59.984 381.813 57.488L381.877 56.912C382.005 54.48 380.277 52.496 378.101 52.368H377.845C376.949 52.304 375.221 52.304 374.197 52.368C372.085 52.304 370.165 54.544 370.037 57.424V58.064Z" stroke="#4F4F4E" stroke-width="18" mask="url(#path-1-outside-1_260_70)"/>
<path d="M340.303 60.368V52.816L340.559 52.432L341.135 51.216L341.583 50.256L342.095 49.232C342.351 48.72 342.799 48.208 343.311 47.76L343.759 46.928C344.399 45.776 344.975 44.56 345.551 43.344L346.191 42C346.575 41.168 346.959 40.528 347.279 39.632L347.663 38.608L348.751 36.112L349.391 34.576L349.839 33.488L350.543 31.888L351.951 28.56C352.335 27.6 352.783 26.64 353.231 25.68L353.743 24.528L354.895 22.096C355.151 21.712 355.215 21.264 355.471 20.88H355.023C354.703 20.88 354.447 20.944 354.127 20.944H352.783C352.335 20.944 351.823 21.008 351.311 21.008C349.839 21.008 348.495 21.072 346.703 21.072H343.759C340.047 21.072 341.199 20.752 340.175 20.56L339.407 16.784C339.407 15.44 339.599 13.648 340.367 12.112H342.095C342.863 12.112 343.567 12.176 344.335 12.176H347.215C348.367 12.176 349.455 12.24 350.607 12.24L367.695 12.432L367.439 14.032L367.183 15.568L366.671 18.704C366.351 19.024 365.647 20.112 365.007 21.52L364.111 23.44L362.767 26.384L362.063 27.856L360.399 31.376L359.631 32.912L358.415 35.472L357.711 37.008L356.687 39.056L355.471 41.744L353.807 44.368L352.911 46.544L352.143 48.208L350.799 51.536L350.543 52.112H351.439C351.759 52.112 352.015 52.048 352.271 52.048C352.847 52.048 353.423 51.984 353.999 51.984C356.303 51.856 358.287 51.792 360.079 51.792H361.615C363.855 51.792 365.775 51.6 367.311 51.6C367.631 51.6 367.951 51.536 368.207 51.536C368.335 52.176 368.463 53.072 368.527 54.288C368.527 55.952 368.463 57.616 368.463 59.28V60.368H365.519C362.767 60.368 360.207 60.24 357.455 60.24H354.895C353.679 60.24 352.463 60.304 351.247 60.304H349.007C348.495 60.304 347.855 60.368 347.343 60.368H340.303Z" stroke="#4F4F4E" stroke-width="18" mask="url(#path-1-outside-1_260_70)"/>
<path d="M305.864 71.888L305.736 70.672L305.224 66.896C306.632 65.104 306.952 63.76 308.104 61.584L309.448 59.088L310.92 56.208C311.112 55.824 311.24 55.312 326.344 33.296L327.048 32.272L327.432 31.76C326.152 31.76 323.464 31.888 321.992 31.888H320.392C318.856 31.888 316.424 31.632 310.856 31.632H307.976C307.464 31.632 306.952 31.568 306.376 31.568L305.608 27.664C305.608 27.664 305.544 22.992 307.272 22.992C307.976 22.992 308.616 23.056 309.32 23.056H312.84C314.44 23.056 316.104 23.12 317.704 23.12C318.408 23.12 319.048 23.184 319.752 23.184C325.576 23.312 331.336 23.248 337.16 23.376C337.16 25.424 337.352 27.536 337.352 29.584C337.224 29.84 336.776 32.528 336.328 33.424H336.136C335.816 33.744 335.56 34.128 335.24 34.512L334.28 35.792L332.744 38.224L331.784 39.824C331.208 40.784 329.992 41.296 318.664 59.6L317.832 60.944L316.104 63.632L315.656 64.272C316.424 64.272 317.192 64.208 317.96 64.208L330.952 63.824C334.088 63.76 337.224 63.76 340.36 63.504H341.64C342.664 63.504 343.752 63.376 344.776 63.376C344.904 64.016 345.032 64.976 345.096 66.128C345.096 67.984 345.032 69.712 345.032 71.568V72.208H343.112C342.28 72.208 341.384 72.272 340.552 72.272C338.12 72.272 335.624 72.144 333.192 72.144H330.312C329.608 72.144 328.84 72.08 328.136 72.08H326.728C321.928 72.08 317.064 71.952 312.328 71.952H311.048C310.408 71.952 309.704 71.888 309.064 71.888H305.864Z" stroke="#4F4F4E" stroke-width="18" mask="url(#path-1-outside-1_260_70)"/>
<path d="M303.434 59.344C303.562 60.24 303.626 59.664 294.154 60.56C293.962 59.216 293.385 58.128 293.385 56.464V55.44C293.385 54.48 293.257 53.52 293.001 52.56H292.617C292.489 52.56 292.361 52.624 292.233 52.624H291.146C290.762 52.624 290.441 52.688 290.057 52.688L286.665 52.752C285.449 52.752 284.169 52.752 282.953 52.88L281.482 53.008C280.202 53.136 280.393 54.16 280.329 55.248L280.137 57.552C280.201 57.552 280.393 61.136 277.513 60.944L275.658 60.816L273.993 60.624C273.673 60.112 273.546 59.408 273.546 58.832C273.546 58.128 273.737 57.296 273.865 56.592L274.314 54.416L274.826 51.024L274.953 50.256C275.081 49.36 275.273 48.528 275.465 47.632L275.594 46.928L276.169 43.92L276.361 42.768L276.617 41.744L277.258 38.864L277.641 36.688L277.77 35.6L277.961 34.448L278.345 32.272L279.049 29.712L279.689 27.536L280.266 25.36C280.394 24.976 280.393 24.656 280.521 24.272L280.841 23.184C281.033 22.48 281.673 20.496 281.673 19.664C281.673 19.024 281.353 18.896 280.777 18.896H279.882C277.898 18.896 275.658 19.28 273.482 19.28C272.458 19.28 271.497 19.216 270.473 19.216C269.513 19.216 268.938 19.472 268.938 18.192L269.322 13.392C269.386 12.752 269.385 12.176 270.025 12.176C270.665 12.304 271.369 12.304 272.073 12.304C273.929 12.304 276.682 12.048 278.922 12.048H280.714C281.098 12.048 281.417 12.112 281.801 12.112H283.658C284.81 12.112 285.898 11.984 286.986 11.856L290.314 11.472C291.338 11.344 292.553 11.216 293.641 11.216H294.793C295.049 11.28 295.497 11.28 296.009 11.28C296.713 11.28 297.93 11.216 299.21 11.216C300.042 11.216 301.001 11.152 301.961 11.152C302.857 11.152 303.818 11.088 304.714 11.024L308.362 10.832C308.362 12.56 308.874 18 306.378 18.576L303.945 18.832C302.601 18.96 301.257 19.024 299.913 19.024C298.953 19.024 297.417 18.96 297.161 19.216C297.161 19.344 297.225 19.472 297.225 19.6L297.737 21.84L298.121 23.632L298.378 24.784L298.633 25.872L298.953 27.728L299.21 29.52L299.337 31.056C299.465 32.656 299.338 35.28 299.658 37.328L300.042 39.888L300.553 42.064L300.745 42.768L301.513 44.944C301.641 45.328 301.705 45.712 301.833 46.032L302.09 47.12C302.346 48.208 302.601 49.36 302.793 50.448L302.922 51.216C302.986 51.408 303.049 51.664 303.049 51.856C303.049 52.688 302.857 53.456 302.857 54.288C302.857 54.992 302.858 55.76 302.986 56.464L303.305 58.576L303.434 59.344ZM281.098 47.504H282.057C283.913 47.504 285.769 47.376 287.625 47.376H288.266C288.778 47.376 289.289 47.312 289.801 47.312C290.633 47.312 291.465 47.248 292.297 47.248L292.169 46.608L291.594 44.112C291.53 43.92 291.593 43.728 291.529 43.536L291.401 42.896L290.953 40.848C290.889 40.656 290.953 40.4 290.889 40.208L290.505 38.416C290.441 38.224 290.505 37.968 290.441 37.776L290.249 36.88L289.93 35.344L289.482 32.528C289.418 32.016 289.289 31.504 289.225 30.992L289.098 29.776C288.97 28.816 288.777 27.728 288.777 26.64C288.777 25.424 288.393 24.144 288.393 22.928L288.266 22.096C288.138 21.392 287.817 20.752 287.305 20.24L286.538 22.672L286.345 23.312L286.09 24.208L285.961 24.784L285.513 26.256L285.129 27.728L284.874 28.624L284.681 29.2C284.681 29.456 284.49 29.904 284.426 30.16L284.233 30.736C284.041 31.312 283.529 33.04 283.529 34.768L283.401 35.664L282.762 39.376L282.569 40.272L282.249 41.808L281.93 43.408L281.546 45.264L281.098 47.504Z" stroke="#4F4F4E" stroke-width="18" mask="url(#path-1-outside-1_260_70)"/>
<path d="M240.171 57.808C240.171 56.912 240.363 55.952 240.363 55.056C244.139 54.928 247.915 55.056 251.819 55.44C251.755 57.232 251.883 59.024 252.331 60.944C252.587 62.416 253.419 64.08 255.979 64.08C259.819 64.08 260.459 62.416 260.779 60.112V59.6C260.779 57.936 261.035 56.144 261.035 54.48V47.12C261.035 45.264 260.971 43.856 260.907 42.192L260.779 36.624C260.715 35.024 260.587 33.296 260.587 31.696V31.12H260.011L255.595 31.312C251.883 31.504 248.171 31.568 244.459 31.824C244.203 31.824 244.139 31.76 244.075 31.44L243.563 27.152C243.563 23.824 245.419 24.72 248.043 24.592C250.091 24.464 252.203 24.464 254.251 24.336L265.003 23.824C265.579 23.824 266.091 23.76 266.667 23.76L270.059 23.632C270.187 24.528 270.379 25.68 270.379 26.96V27.536C270.379 28.88 270.507 30.224 270.507 31.568C270.507 31.952 270.571 32.336 270.571 32.72V33.872C270.571 34.832 270.635 35.728 270.635 36.688C270.635 37.072 270.699 37.456 270.699 37.84V38.992C270.699 40.336 270.763 41.616 270.763 42.96V45.136C270.763 46.224 270.827 47.312 270.827 48.4V50.064C270.827 50.896 270.891 51.664 270.891 52.496V53.712C270.891 54.096 270.955 54.416 270.955 54.8V56.336C270.955 58 270.955 59.728 270.699 61.328L270.507 62.672C269.803 67.6 267.051 68.816 263.723 69.456L262.699 69.648C260.523 70.032 257.771 70.544 255.403 70.544C253.291 70.544 251.115 70.544 249.131 70.096C244.907 69.136 243.051 67.984 241.707 65.36L241.259 64.464C241.003 63.952 240.875 63.504 240.747 62.928L240.491 61.776C240.235 60.496 240.171 59.216 240.171 57.808Z" stroke="#4F4F4E" stroke-width="18" mask="url(#path-1-outside-1_260_70)"/>
<path d="M209.317 23.376C212.837 23.376 213.925 23.248 218.597 23.248V32.528C218.085 32.592 217.509 32.592 216.805 32.592H215.525C215.205 32.592 215.013 32.528 214.629 32.528H213.925C211.621 32.528 211.173 32.592 209.573 32.592V40.912C209.573 42.576 209.637 44.112 209.637 45.584V46.672C209.637 53.136 210.085 55.824 209.893 62.224C209.765 62.224 207.973 62.864 204.581 62.928C201.317 62.992 200.037 62.928 200.037 62.224C200.037 60.688 200.165 59.28 200.165 57.744C200.165 56.464 200.293 55.12 200.293 53.776C200.293 52.88 200.357 52.112 200.357 51.152C200.357 50.704 200.421 50.192 200.421 49.68V42.192C200.421 40.848 200.357 39.76 200.357 38.544V36.688C200.357 35.856 200.421 35.024 200.421 34.192V33.552C198.949 33.424 198.117 33.488 196.773 33.36C196.325 33.36 190.629 34.064 190.629 31.056C190.821 29.328 190.693 26.256 191.077 24.4L191.269 23.44C191.525 23.248 192.101 23.12 192.805 23.12H195.045C195.749 23.12 196.453 23.184 197.157 23.184C200.933 23.184 204.005 23.376 209.317 23.376Z" stroke="#4F4F4E" stroke-width="18" mask="url(#path-1-outside-1_260_70)"/>
<path d="M187.559 59.344C187.687 60.24 187.75 59.664 178.278 60.56C178.086 59.216 177.51 58.128 177.51 56.464V55.44C177.51 54.48 177.382 53.52 177.126 52.56H176.742C176.614 52.56 176.486 52.624 176.358 52.624H175.27C174.886 52.624 174.566 52.688 174.182 52.688L170.79 52.752C169.574 52.752 168.294 52.752 167.078 52.88L165.606 53.008C164.326 53.136 164.518 54.16 164.454 55.248L164.262 57.552C164.326 57.552 164.518 61.136 161.638 60.944L159.783 60.816L158.118 60.624C157.798 60.112 157.67 59.408 157.67 58.832C157.67 58.128 157.862 57.296 157.99 56.592L158.438 54.416L158.951 51.024L159.078 50.256C159.206 49.36 159.398 48.528 159.59 47.632L159.718 46.928L160.294 43.92L160.486 42.768L160.742 41.744L161.382 38.864L161.766 36.688L161.895 35.6L162.086 34.448L162.47 32.272L163.174 29.712L163.814 27.536L164.39 25.36C164.518 24.976 164.518 24.656 164.646 24.272L164.966 23.184C165.158 22.48 165.798 20.496 165.798 19.664C165.798 19.024 165.478 18.896 164.902 18.896H164.007C162.023 18.896 159.782 19.28 157.606 19.28C156.582 19.28 155.622 19.216 154.598 19.216C153.638 19.216 153.062 19.472 153.062 18.192L153.446 13.392C153.51 12.752 153.51 12.176 154.15 12.176C154.79 12.304 155.494 12.304 156.198 12.304C158.054 12.304 160.806 12.048 163.046 12.048H164.839C165.223 12.048 165.542 12.112 165.926 12.112H167.783C168.935 12.112 170.022 11.984 171.11 11.856L174.438 11.472C175.462 11.344 176.678 11.216 177.766 11.216H178.918C179.174 11.28 179.622 11.28 180.134 11.28C180.838 11.28 182.055 11.216 183.335 11.216C184.167 11.216 185.126 11.152 186.086 11.152C186.982 11.152 187.943 11.088 188.839 11.024L192.486 10.832C192.486 12.56 192.999 18 190.503 18.576L188.07 18.832C186.726 18.96 185.382 19.024 184.038 19.024C183.078 19.024 181.542 18.96 181.286 19.216C181.286 19.344 181.35 19.472 181.35 19.6L181.862 21.84L182.246 23.632L182.503 24.784L182.758 25.872L183.078 27.728L183.335 29.52L183.462 31.056C183.59 32.656 183.463 35.28 183.783 37.328L184.166 39.888L184.678 42.064L184.87 42.768L185.638 44.944C185.766 45.328 185.83 45.712 185.958 46.032L186.214 47.12C186.47 48.208 186.726 49.36 186.918 50.448L187.046 51.216C187.11 51.408 187.174 51.664 187.174 51.856C187.174 52.688 186.982 53.456 186.982 54.288C186.982 54.992 186.982 55.76 187.11 56.464L187.43 58.576L187.559 59.344ZM165.222 47.504H166.182C168.038 47.504 169.894 47.376 171.75 47.376H172.39C172.902 47.376 173.414 47.312 173.926 47.312C174.758 47.312 175.59 47.248 176.423 47.248L176.294 46.608L175.718 44.112C175.654 43.92 175.718 43.728 175.654 43.536L175.526 42.896L175.078 40.848C175.014 40.656 175.078 40.4 175.014 40.208L174.63 38.416C174.566 38.224 174.63 37.968 174.566 37.776L174.374 36.88L174.054 35.344L173.606 32.528C173.542 32.016 173.414 31.504 173.35 30.992L173.222 29.776C173.094 28.816 172.902 27.728 172.902 26.64C172.902 25.424 172.518 24.144 172.518 22.928L172.39 22.096C172.262 21.392 171.942 20.752 171.43 20.24L170.662 22.672L170.47 23.312L170.214 24.208L170.086 24.784L169.638 26.256L169.255 27.728L168.998 28.624L168.806 29.2C168.806 29.456 168.614 29.904 168.55 30.16L168.358 30.736C168.166 31.312 167.654 33.04 167.654 34.768L167.526 35.664L166.886 39.376L166.694 40.272L166.374 41.808L166.054 43.408L165.671 45.264L165.222 47.504Z" stroke="#4F4F4E" stroke-width="18" mask="url(#path-1-outside-1_260_70)"/>
<path d="M152.636 23.12C153.596 23.12 153.34 23.12 153.404 24.272L153.596 26.896V27.984C153.596 28.304 153.66 28.624 153.66 29.008V39.056C153.66 40.144 153.596 41.104 153.596 42.192C153.596 43.024 153.532 43.92 153.532 44.752C153.532 46.032 153.404 47.248 153.404 48.528V50.576C153.404 51.28 153.34 52.048 153.34 52.752C153.34 53.136 153.276 53.52 153.276 53.904C153.276 54.288 153.212 54.672 153.212 55.056C153.212 55.824 153.148 56.592 153.148 57.424V58.704C153.148 59.984 153.084 61.264 152.956 62.608C152.956 63.568 152.892 64.464 152.892 65.424C152.892 65.872 152.828 66.32 152.828 66.832C152.828 69.712 152.188 69.456 150.524 69.456C150.012 69.392 144.508 69.328 144.508 68.688V66.384C144.508 62.864 144.636 59.344 144.636 55.824V54.736C144.636 54.224 144.572 53.712 144.572 53.2V52.24C144.572 51.536 144.508 50.96 144.508 50.32C144.38 50.32 144.316 50.256 144.188 50.256H143.74C142.332 50.064 140.412 49.936 139.068 49.936H138.172C137.404 49.936 136.636 49.872 135.996 50.192C135.548 50.832 135.612 52.432 135.612 54.8C135.612 55.44 135.676 56.08 135.676 56.784V59.28C135.676 60.112 135.74 60.944 135.74 61.776V62.736C135.74 63.376 135.484 64.016 135.164 64.464L128.572 64.656C127.804 64.656 126.652 64.976 126.652 63.376V62.672C126.652 62.672 126.588 62.544 126.588 62.288C126.588 62.16 126.588 61.904 126.652 61.584C126.652 60.944 126.588 60.24 126.588 59.536C126.588 59.216 126.524 58.832 126.524 58.448C126.524 53.776 126.268 48.336 126.268 41.552V38.032C125.18 38.352 124.348 38.48 124.284 38.16L123.964 31.184C123.9 30.416 124.028 29.52 124.22 28.816C124.732 28.816 125.244 28.752 125.756 28.752C127.612 28.752 129.532 28.496 131.388 28.496H135.1C136.38 29.136 136.188 33.872 136.188 36.816C136.188 38.224 136.252 39.568 136.252 40.72V41.488C136.252 42.896 137.148 42.576 138.812 42.576H139.644C140.22 42.576 140.796 42.576 141.436 42.512C141.628 42.512 141.82 42.576 142.012 42.576C142.396 42.576 142.716 42.512 143.036 42.512C143.932 42.448 143.804 40.528 143.804 39.376V37.456C143.804 36.816 143.868 36.176 143.868 35.6C143.868 34.768 143.932 34.064 143.932 33.296V31.632L143.996 25.424C144.252 22.352 149.052 22.608 152.636 23.12Z" stroke="#4F4F4E" stroke-width="18" mask="url(#path-1-outside-1_260_70)"/>
<path d="M133.095 18.768C132.391 18.832 131.559 18.832 130.599 18.832C129.575 18.832 130.407 18.768 127.399 18.768H124.199C122.983 18.768 121.703 18.832 120.487 18.832V28.752C120.487 29.328 120.551 29.968 120.551 30.544V36.304C120.551 36.688 120.615 37.008 120.615 37.392V40.208C120.615 41.168 120.679 42.064 120.679 43.024C120.679 43.6 120.743 44.112 120.743 44.688V45.776C120.743 46.352 120.807 46.864 120.807 47.376V48.464C120.807 48.976 120.871 49.552 120.871 50.064V51.216C120.871 51.792 120.935 52.304 120.935 52.88V54.608C120.935 56.144 120.999 57.616 120.999 59.088C120.999 60.368 116.071 60.304 114.471 60.304C113.703 60.304 110.951 61.328 110.951 57.872V56.336C110.951 54.544 111.079 52.496 111.079 50.576V49.36C111.079 47.056 111.271 44.816 111.271 42.512V41.296C111.271 39.76 111.335 38.224 111.335 36.688V23.056C111.335 21.904 111.399 20.752 111.399 19.664V19.152C110.183 19.152 109.095 19.024 107.943 18.96L105.383 18.832C104.167 18.768 102.951 18.832 101.351 18.704C99.6225 18.704 100.071 17.488 100.071 16.656C100.263 13.968 99.4305 10 102.311 10H104.231C108.967 10 113.191 10.256 119.463 10.256H123.623C127.719 10.256 129.831 10.128 133.095 10.128V18.768Z" stroke="#4F4F4E" stroke-width="18" mask="url(#path-1-outside-1_260_70)"/>
<path d="M62.8685 12.112C65.8765 11.728 68.8205 11.408 71.8285 10.96C72.0845 13.648 72.0205 15.952 72.3405 18.32C72.4685 19.536 72.4685 20.688 72.4685 21.904C72.4685 23.12 72.3405 24.4 72.3405 25.616C72.3405 27.6 72.4685 29.776 72.5965 31.76C72.9165 36.56 72.4045 39.632 72.4045 44.048V45.84C72.4045 46.416 72.3405 46.992 72.3405 47.632V53.392C72.5965 53.52 72.7885 53.648 73.0445 53.712C74.0045 54.032 74.9645 53.904 75.9245 53.776C77.1405 53.584 78.5485 53.392 79.8285 53.392C82.0045 53.328 84.3085 53.392 86.2925 53.456C87.2525 53.456 88.2765 53.392 89.3005 53.264C89.3005 53.648 89.4925 55.12 89.4925 55.696C89.4925 57.616 89.6845 60.688 88.4045 60.944C86.9965 60.944 85.6525 60.816 84.0525 60.816C81.1725 60.816 78.5485 61.264 75.8605 61.264H75.0285C74.5165 61.264 74.0045 61.328 73.4285 61.328H71.7645C70.7405 61.52 64.4045 61.776 63.3165 61.52C63.4445 60.688 63.5725 59.856 63.5725 58.96V56.016C63.5725 54.352 63.5085 52.496 63.5085 50.896V37.136C63.4445 36.496 63.3805 35.792 63.3805 35.088V32.784C63.3805 31.952 63.4445 31.184 63.4445 30.352V27.152C63.4445 26.64 63.3805 26.064 63.3805 25.552V24.72C63.3805 20.496 62.9965 16.336 62.8685 12.112Z" stroke="#4F4F4E" stroke-width="18" mask="url(#path-1-outside-1_260_70)"/>
<path d="M59.2386 27.216C59.2386 28.048 59.1746 28.944 59.1746 30.032V30.672C59.1746 31.12 59.1106 31.504 59.1106 31.952L58.9186 35.088C58.7906 36.752 58.6626 38.544 58.5986 40.208L58.2786 45.904C58.2146 46.544 58.2786 47.184 58.2146 47.824C58.0866 49.488 58.0866 51.216 57.8946 52.88V54.48C57.8946 56.464 57.5746 59.856 57.5746 61.904L58.0866 65.808C58.2146 65.808 58.8546 65.872 59.4946 65.872H60.9026C61.4786 65.872 62.0546 65.936 62.8226 65.936C63.3346 65.872 63.8466 65.808 64.4226 65.808H66.6626C67.8786 65.808 67.5586 65.872 67.9426 65.872H69.6706C70.5026 65.872 71.7826 66 74.0866 66L72.7426 73.488C71.7186 73.488 71.0786 73.552 70.5026 73.552H63.7186C58.5346 73.552 60.5186 73.104 53.8626 73.104C52.7746 73.104 51.5586 73.232 50.5346 73.232C50.1506 73.232 49.8306 73.168 49.4466 73.168C48.9986 73.168 48.6146 73.296 48.2946 73.296C48.1026 73.296 47.9746 73.232 47.8466 73.168C48.2306 71.056 48.2946 68.496 48.2946 65.936C48.2946 65.488 48.3586 65.04 48.3586 64.592V54.928C48.3586 53.648 48.4226 52.24 48.4226 50.96V46.544C48.4226 45.392 48.2946 43.152 48.2946 42.32V38.48C48.2946 37.648 48.3586 36.688 48.3586 35.664V34.384C48.3586 32.784 48.4226 31.184 48.4226 29.52V27.6C48.4226 26.64 48.4866 25.488 48.4866 24.464V23.312C48.0386 22.736 57.4466 23.44 58.8546 23.44L59.2386 27.216Z" stroke="#4F4F4E" stroke-width="18" mask="url(#path-1-outside-1_260_70)"/>
<path d="M43.496 59.344C43.624 60.24 43.688 59.664 34.216 60.56C34.024 59.216 33.448 58.128 33.448 56.464V55.44C33.448 54.48 33.32 53.52 33.064 52.56H32.68C32.552 52.56 32.424 52.624 32.296 52.624H31.208C30.824 52.624 30.504 52.688 30.12 52.688L26.728 52.752C25.512 52.752 24.232 52.752 23.016 52.88L21.544 53.008C20.264 53.136 20.456 54.16 20.392 55.248L20.2 57.552C20.264 57.552 20.456 61.136 17.576 60.944L15.72 60.816L14.056 60.624C13.736 60.112 13.608 59.408 13.608 58.832C13.608 58.128 13.8 57.296 13.928 56.592L14.376 54.416L14.888 51.024L15.016 50.256C15.144 49.36 15.336 48.528 15.528 47.632L15.656 46.928L16.232 43.92L16.424 42.768L16.68 41.744L17.32 38.864L17.704 36.688L17.832 35.6L18.024 34.448L18.408 32.272L19.112 29.712L19.752 27.536L20.328 25.36C20.456 24.976 20.456 24.656 20.584 24.272L20.904 23.184C21.096 22.48 21.736 20.496 21.736 19.664C21.736 19.024 21.416 18.896 20.84 18.896H19.944C17.96 18.896 15.72 19.28 13.544 19.28C12.52 19.28 11.56 19.216 10.536 19.216C9.576 19.216 9 19.472 9 18.192L9.384 13.392C9.448 12.752 9.448 12.176 10.088 12.176C10.728 12.304 11.432 12.304 12.136 12.304C13.992 12.304 16.744 12.048 18.984 12.048H20.776C21.16 12.048 21.48 12.112 21.864 12.112H23.72C24.872 12.112 25.96 11.984 27.048 11.856L30.376 11.472C31.4 11.344 32.616 11.216 33.704 11.216H34.856C35.112 11.28 35.56 11.28 36.072 11.28C36.776 11.28 37.992 11.216 39.272 11.216C40.104 11.216 41.064 11.152 42.024 11.152C42.92 11.152 43.88 11.088 44.776 11.024L48.424 10.832C48.424 12.56 48.936 18 46.44 18.576L44.008 18.832C42.664 18.96 41.32 19.024 39.976 19.024C39.016 19.024 37.48 18.96 37.224 19.216C37.224 19.344 37.288 19.472 37.288 19.6L37.8 21.84L38.184 23.632L38.44 24.784L38.696 25.872L39.016 27.728L39.272 29.52L39.4 31.056C39.528 32.656 39.4 35.28 39.72 37.328L40.104 39.888L40.616 42.064L40.808 42.768L41.576 44.944C41.704 45.328 41.768 45.712 41.896 46.032L42.152 47.12C42.408 48.208 42.664 49.36 42.856 50.448L42.984 51.216C43.048 51.408 43.112 51.664 43.112 51.856C43.112 52.688 42.92 53.456 42.92 54.288C42.92 54.992 42.92 55.76 43.048 56.464L43.368 58.576L43.496 59.344ZM21.16 47.504H22.12C23.976 47.504 25.832 47.376 27.688 47.376H28.328C28.84 47.376 29.352 47.312 29.864 47.312C30.696 47.312 31.528 47.248 32.36 47.248L32.232 46.608L31.656 44.112C31.592 43.92 31.656 43.728 31.592 43.536L31.464 42.896L31.016 40.848C30.952 40.656 31.016 40.4 30.952 40.208L30.568 38.416C30.504 38.224 30.568 37.968 30.504 37.776L30.312 36.88L29.992 35.344L29.544 32.528C29.48 32.016 29.352 31.504 29.288 30.992L29.16 29.776C29.032 28.816 28.84 27.728 28.84 26.64C28.84 25.424 28.456 24.144 28.456 22.928L28.328 22.096C28.2 21.392 27.88 20.752 27.368 20.24L26.6 22.672L26.408 23.312L26.152 24.208L26.024 24.784L25.576 26.256L25.192 27.728L24.936 28.624L24.744 29.2C24.744 29.456 24.552 29.904 24.488 30.16L24.296 30.736C24.104 31.312 23.592 33.04 23.592 34.768L23.464 35.664L22.824 39.376L22.632 40.272L22.312 41.808L21.992 43.408L21.608 45.264L21.16 47.504Z" stroke="#4F4F4E" stroke-width="18" mask="url(#path-1-outside-1_260_70)"/>
</svg>
