<svg width="395" height="83" viewBox="0 0 395 83" fill="none" xmlns="http://www.w3.org/2000/svg">
<mask id="path-1-outside-1_260_56" maskUnits="userSpaceOnUse" x="0.0751953" y="-0.00805664" width="395" height="83" fill="black">
<rect fill="white" x="0.0751953" y="-0.00805664" width="395" height="83"/>
<path d="M383.808 25.7359C382.144 34.9519 381.056 39.8159 380.16 48.3919C379.904 48.7759 379.392 48.9679 378.56 48.9039C378.048 48.9039 377.6 48.7759 377.024 48.7759L373.824 48.3919C373.12 47.9439 372.992 45.4479 373.056 42.1839L373.376 15.2399C373.568 14.1519 374.912 14.4079 375.68 14.4079C376.064 14.4719 376.448 14.5359 376.832 14.5359C379.584 14.7279 382.4 14.7279 385.088 14.8559C385.344 15.4319 385.408 16.1999 385.408 17.1599C385.344 17.3519 385.344 17.6079 385.28 17.9279L383.808 25.7359ZM370.112 58.0559C369.984 59.9119 371.776 61.5759 374.08 61.7039H374.336C375.616 61.7679 377.152 61.7679 377.856 61.7039C379.904 61.8319 381.76 59.9759 381.888 57.4799L381.952 56.9039C382.08 54.4719 380.352 52.4879 378.176 52.3599H377.92C377.024 52.2959 375.296 52.2959 374.272 52.3599C372.16 52.2959 370.24 54.5359 370.112 57.4159V58.0559Z"/>
<path d="M340.378 60.3599V52.8079L340.634 52.4239L341.21 51.2079L341.658 50.2479L342.17 49.2239C342.426 48.7119 342.874 48.1999 343.386 47.7519L343.834 46.9199C344.474 45.7679 345.05 44.5519 345.626 43.3359L346.266 41.9919C346.65 41.1599 347.034 40.5199 347.354 39.6239L347.738 38.5999L348.826 36.1039L349.466 34.5679L349.914 33.4799L350.618 31.8799L352.026 28.5519C352.41 27.5919 352.858 26.6319 353.306 25.6719L353.818 24.5199L354.97 22.0879C355.226 21.7039 355.29 21.2559 355.546 20.8719H355.098C354.778 20.8719 354.522 20.9359 354.202 20.9359H352.858C352.41 20.9359 351.898 20.9999 351.386 20.9999C349.914 20.9999 348.57 21.0639 346.778 21.0639H343.834C340.122 21.0639 341.274 20.7439 340.25 20.5519L339.482 16.7759C339.482 15.4319 339.674 13.6399 340.442 12.1039H342.17C342.938 12.1039 343.642 12.1679 344.41 12.1679H347.29C348.442 12.1679 349.53 12.2319 350.682 12.2319L367.77 12.4239L367.514 14.0239L367.258 15.5599L366.746 18.6959C366.426 19.0159 365.722 20.1039 365.082 21.5119L364.186 23.4319L362.842 26.3759L362.138 27.8479L360.474 31.3679L359.706 32.9039L358.49 35.4639L357.786 36.9999L356.762 39.0479L355.546 41.7359L353.882 44.3599L352.986 46.5359L352.218 48.1999L350.874 51.5279L350.618 52.1039H351.514C351.834 52.1039 352.09 52.0399 352.346 52.0399C352.922 52.0399 353.498 51.9759 354.074 51.9759C356.378 51.8479 358.362 51.7839 360.154 51.7839H361.69C363.93 51.7839 365.85 51.5919 367.386 51.5919C367.706 51.5919 368.026 51.5279 368.282 51.5279C368.41 52.1679 368.538 53.0639 368.602 54.2799C368.602 55.9439 368.538 57.6079 368.538 59.2719V60.3599H365.594C362.842 60.3599 360.282 60.2319 357.53 60.2319H354.97C353.754 60.2319 352.538 60.2959 351.322 60.2959H349.082C348.57 60.2959 347.93 60.3599 347.418 60.3599H340.378Z"/>
<path d="M305.939 71.8799L305.811 70.664L305.299 66.888C306.707 65.096 307.027 63.752 308.179 61.576L309.523 59.08L310.995 56.2C311.187 55.816 311.315 55.304 326.419 33.2879L327.123 32.2639L327.507 31.7519C326.227 31.7519 323.539 31.8799 322.067 31.8799H320.467C318.931 31.8799 316.499 31.6239 310.931 31.6239H308.051C307.539 31.6239 307.027 31.5599 306.451 31.5599L305.683 27.6559C305.683 27.6559 305.619 22.9839 307.347 22.9839C308.051 22.9839 308.691 23.0479 309.395 23.0479H312.915C314.515 23.0479 316.179 23.1119 317.779 23.1119C318.483 23.1119 319.123 23.1759 319.827 23.1759C325.651 23.3039 331.411 23.2399 337.235 23.368C337.235 25.4159 337.427 27.528 337.427 29.5759C337.299 29.8319 336.851 32.5199 336.403 33.4159H336.211C335.891 33.7359 335.635 34.1199 335.315 34.5039L334.355 35.7839L332.819 38.216L331.859 39.8159C331.283 40.7759 330.067 41.2879 318.739 59.5919L317.907 60.936L316.179 63.624L315.731 64.264C316.499 64.264 317.267 64.2 318.035 64.2L331.027 63.816C334.163 63.752 337.299 63.7519 340.435 63.4959H341.715C342.739 63.4959 343.827 63.368 344.851 63.368C344.979 64.008 345.107 64.9679 345.171 66.1199C345.171 67.9759 345.107 69.7039 345.107 71.5599V72.1999H343.187C342.355 72.1999 341.459 72.264 340.627 72.264C338.195 72.264 335.699 72.136 333.267 72.136H330.387C329.683 72.136 328.915 72.0719 328.211 72.0719H326.803C322.003 72.0719 317.139 71.944 312.403 71.944H311.123C310.483 71.944 309.779 71.8799 309.139 71.8799H305.939Z"/>
<path d="M303.509 59.3359C303.637 60.2319 303.701 59.6559 294.229 60.5519C294.037 59.2079 293.461 58.1199 293.461 56.4559V55.4319C293.461 54.4719 293.333 53.5119 293.077 52.5519H292.693C292.565 52.5519 292.437 52.6159 292.309 52.6159H291.221C290.837 52.6159 290.517 52.6799 290.133 52.6799L286.741 52.7439C285.525 52.7439 284.245 52.7439 283.029 52.8719L281.557 52.9999C280.277 53.1279 280.469 54.1519 280.405 55.2399L280.213 57.5439C280.277 57.5439 280.469 61.1279 277.589 60.9359L275.733 60.8079L274.069 60.6159C273.749 60.1039 273.621 59.3999 273.621 58.8239C273.621 58.1199 273.813 57.2879 273.941 56.5839L274.389 54.4079L274.901 51.0159L275.029 50.2479C275.157 49.3519 275.349 48.5199 275.541 47.6239L275.669 46.9199L276.245 43.9119L276.437 42.7599L276.693 41.7359L277.333 38.8559L277.717 36.6799L277.845 35.5919L278.037 34.4399L278.421 32.2639L279.125 29.7039L279.765 27.5279L280.341 25.3519C280.469 24.9679 280.469 24.6479 280.597 24.2639L280.917 23.1759C281.109 22.4719 281.749 20.4879 281.749 19.6559C281.749 19.0159 281.429 18.8879 280.853 18.8879H279.957C277.973 18.8879 275.733 19.2719 273.557 19.2719C272.533 19.2719 271.573 19.2079 270.549 19.2079C269.589 19.2079 269.013 19.4639 269.013 18.1839L269.397 13.3839C269.461 12.7439 269.461 12.1679 270.101 12.1679C270.741 12.2959 271.445 12.2959 272.149 12.2959C274.005 12.2959 276.757 12.0399 278.997 12.0399H280.789C281.173 12.0399 281.493 12.1039 281.877 12.1039H283.733C284.885 12.1039 285.973 11.9759 287.061 11.8479L290.389 11.4639C291.413 11.3359 292.629 11.2079 293.717 11.2079H294.869C295.125 11.2719 295.573 11.2719 296.085 11.2719C296.789 11.2719 298.005 11.2079 299.285 11.2079C300.117 11.2079 301.077 11.1439 302.037 11.1439C302.933 11.1439 303.893 11.0799 304.789 11.0159L308.437 10.8239C308.437 12.5519 308.949 17.9919 306.453 18.5679L304.021 18.8239C302.677 18.9519 301.333 19.0159 299.989 19.0159C299.029 19.0159 297.493 18.9519 297.237 19.2079C297.237 19.3359 297.301 19.4639 297.301 19.5919L297.813 21.8319L298.197 23.6239L298.453 24.7759L298.709 25.8639L299.029 27.7199L299.285 29.5119L299.413 31.0479C299.541 32.6479 299.413 35.2719 299.733 37.3199L300.117 39.8799L300.629 42.0559L300.821 42.7599L301.589 44.9359C301.717 45.3199 301.781 45.7039 301.909 46.0239L302.165 47.1119C302.421 48.1999 302.677 49.3519 302.869 50.4399L302.997 51.2079C303.061 51.3999 303.125 51.6559 303.125 51.8479C303.125 52.6799 302.933 53.4479 302.933 54.2799C302.933 54.9839 302.933 55.7519 303.061 56.4559L303.381 58.5679L303.509 59.3359ZM281.173 47.4959H282.133C283.989 47.4959 285.845 47.3679 287.701 47.3679H288.341C288.853 47.3679 289.365 47.3039 289.877 47.3039C290.709 47.3039 291.541 47.2399 292.373 47.2399L292.245 46.5999L291.669 44.1039C291.605 43.9119 291.669 43.7199 291.605 43.5279L291.477 42.8879L291.029 40.8399C290.965 40.6479 291.029 40.3919 290.965 40.1999L290.581 38.4079C290.517 38.2159 290.581 37.9599 290.517 37.7679L290.325 36.8719L290.005 35.3359L289.557 32.5199C289.493 32.0079 289.365 31.4959 289.301 30.9839L289.173 29.7679C289.045 28.8079 288.853 27.7199 288.853 26.6319C288.853 25.4159 288.469 24.1359 288.469 22.9199L288.341 22.0879C288.213 21.3839 287.893 20.7439 287.381 20.2319L286.613 22.6639L286.421 23.3039L286.165 24.1999L286.037 24.7759L285.589 26.2479L285.205 27.7199L284.949 28.6159L284.757 29.1919C284.757 29.4479 284.565 29.8959 284.501 30.1519L284.309 30.7279C284.117 31.3039 283.605 33.0319 283.605 34.7599L283.477 35.6559L282.837 39.3679L282.645 40.2639L282.325 41.7999L282.005 43.3999L281.621 45.2559L281.173 47.4959Z"/>
<path d="M240.246 57.7999C240.246 56.9039 240.438 55.9439 240.438 55.0479C244.214 54.9199 247.99 55.0479 251.894 55.4319C251.83 57.2239 251.958 59.0159 252.406 60.9359C252.662 62.4079 253.494 64.0719 256.054 64.0719C259.894 64.0719 260.534 62.4079 260.854 60.1039V59.5919C260.854 57.9279 261.11 56.1359 261.11 54.4719V47.1119C261.11 45.2559 261.046 43.8479 260.982 42.1839L260.854 36.6159C260.79 35.0159 260.662 33.2879 260.662 31.6879V31.1119H260.086L255.67 31.3039C251.958 31.4959 248.246 31.5599 244.534 31.8159C244.278 31.8159 244.214 31.7519 244.15 31.4319L243.638 27.1439C243.638 23.8159 245.494 24.7119 248.118 24.5839C250.166 24.4559 252.278 24.4559 254.326 24.3279L265.078 23.8159C265.654 23.8159 266.166 23.7519 266.742 23.7519L270.134 23.6239C270.262 24.5199 270.454 25.6719 270.454 26.9519V27.5279C270.454 28.8719 270.582 30.2159 270.582 31.5599C270.582 31.9439 270.646 32.3279 270.646 32.7119V33.8639C270.646 34.8239 270.71 35.7199 270.71 36.6799C270.71 37.0639 270.774 37.4479 270.774 37.8319V38.9839C270.774 40.3279 270.838 41.6079 270.838 42.9519V45.1279C270.838 46.2159 270.902 47.3039 270.902 48.3919V50.0559C270.902 50.8879 270.966 51.6559 270.966 52.4879V53.7039C270.966 54.0879 271.03 54.4079 271.03 54.7919V56.3279C271.03 57.9919 271.03 59.7199 270.774 61.3199L270.582 62.6639C269.878 67.5919 267.126 68.8079 263.798 69.4479L262.774 69.6399C260.598 70.0239 257.846 70.5359 255.478 70.5359C253.366 70.5359 251.19 70.5359 249.206 70.0879C244.982 69.1279 243.126 67.9759 241.782 65.3519L241.334 64.4559C241.078 63.9439 240.95 63.4959 240.822 62.9199L240.566 61.7679C240.31 60.4879 240.246 59.2079 240.246 57.7999Z"/>
<path d="M209.392 23.3679C212.912 23.3679 214 23.2399 218.672 23.2399V32.5199C218.16 32.5839 217.584 32.5839 216.88 32.5839H215.6C215.28 32.5839 215.088 32.5199 214.704 32.5199H214C211.696 32.5199 211.248 32.5839 209.648 32.5839V40.9039C209.648 42.5679 209.712 44.1039 209.712 45.5759V46.6639C209.712 53.1279 210.16 55.8159 209.968 62.2159C209.84 62.2159 208.048 62.8559 204.656 62.9199C201.392 62.9839 200.112 62.9199 200.112 62.2159C200.112 60.6799 200.24 59.2719 200.24 57.7359C200.24 56.4559 200.368 55.1119 200.368 53.7679C200.368 52.8719 200.432 52.1039 200.432 51.1439C200.432 50.6959 200.496 50.1839 200.496 49.6719V42.1839C200.496 40.8399 200.432 39.7519 200.432 38.5359V36.6799C200.432 35.8479 200.496 35.0159 200.496 34.1839V33.5439C199.024 33.4159 198.192 33.4799 196.848 33.3519C196.4 33.3519 190.704 34.0559 190.704 31.0479C190.896 29.3199 190.768 26.2479 191.152 24.3919L191.344 23.4319C191.6 23.2399 192.176 23.1119 192.88 23.1119H195.12C195.824 23.1119 196.528 23.1759 197.232 23.1759C201.008 23.1759 204.08 23.3679 209.392 23.3679Z"/>
<path d="M187.634 59.3359C187.762 60.2319 187.826 59.6559 178.354 60.5519C178.162 59.2079 177.586 58.1199 177.586 56.4559V55.4319C177.586 54.4719 177.458 53.5119 177.202 52.5519H176.818C176.69 52.5519 176.562 52.6159 176.434 52.6159H175.346C174.962 52.6159 174.642 52.6799 174.258 52.6799L170.866 52.7439C169.65 52.7439 168.37 52.7439 167.154 52.8719L165.682 52.9999C164.402 53.1279 164.594 54.1519 164.53 55.2399L164.338 57.5439C164.402 57.5439 164.594 61.1279 161.714 60.9359L159.858 60.8079L158.194 60.6159C157.874 60.1039 157.746 59.3999 157.746 58.8239C157.746 58.1199 157.938 57.2879 158.066 56.5839L158.514 54.4079L159.026 51.0159L159.154 50.2479C159.282 49.3519 159.474 48.5199 159.666 47.6239L159.794 46.9199L160.37 43.9119L160.562 42.7599L160.818 41.7359L161.458 38.8559L161.842 36.6799L161.97 35.5919L162.162 34.4399L162.546 32.2639L163.25 29.7039L163.89 27.5279L164.466 25.3519C164.594 24.9679 164.594 24.6479 164.722 24.2639L165.042 23.1759C165.234 22.4719 165.874 20.4879 165.874 19.6559C165.874 19.0159 165.554 18.8879 164.978 18.8879H164.082C162.098 18.8879 159.858 19.2719 157.682 19.2719C156.658 19.2719 155.698 19.2079 154.674 19.2079C153.714 19.2079 153.138 19.4639 153.138 18.1839L153.522 13.3839C153.586 12.7439 153.586 12.1679 154.226 12.1679C154.866 12.2959 155.57 12.2959 156.274 12.2959C158.13 12.2959 160.882 12.0399 163.122 12.0399H164.914C165.298 12.0399 165.618 12.1039 166.002 12.1039H167.858C169.01 12.1039 170.098 11.9759 171.186 11.8479L174.514 11.4639C175.538 11.3359 176.754 11.2079 177.842 11.2079H178.994C179.25 11.2719 179.698 11.2719 180.21 11.2719C180.914 11.2719 182.13 11.2079 183.41 11.2079C184.242 11.2079 185.202 11.1439 186.162 11.1439C187.058 11.1439 188.018 11.0799 188.914 11.0159L192.562 10.8239C192.562 12.5519 193.074 17.9919 190.578 18.5679L188.146 18.8239C186.802 18.9519 185.458 19.0159 184.114 19.0159C183.154 19.0159 181.618 18.9519 181.362 19.2079C181.362 19.3359 181.426 19.4639 181.426 19.5919L181.938 21.8319L182.322 23.6239L182.578 24.7759L182.834 25.8639L183.154 27.7199L183.41 29.5119L183.538 31.0479C183.666 32.6479 183.538 35.2719 183.858 37.3199L184.242 39.8799L184.754 42.0559L184.946 42.7599L185.714 44.9359C185.842 45.3199 185.906 45.7039 186.034 46.0239L186.29 47.1119C186.546 48.1999 186.802 49.3519 186.994 50.4399L187.122 51.2079C187.186 51.3999 187.25 51.6559 187.25 51.8479C187.25 52.6799 187.058 53.4479 187.058 54.2799C187.058 54.9839 187.058 55.7519 187.186 56.4559L187.506 58.5679L187.634 59.3359ZM165.298 47.4959H166.258C168.114 47.4959 169.97 47.3679 171.826 47.3679H172.466C172.978 47.3679 173.49 47.3039 174.002 47.3039C174.834 47.3039 175.666 47.2399 176.498 47.2399L176.37 46.5999L175.794 44.1039C175.73 43.9119 175.794 43.7199 175.73 43.5279L175.602 42.8879L175.154 40.8399C175.09 40.6479 175.154 40.3919 175.09 40.1999L174.706 38.4079C174.642 38.2159 174.706 37.9599 174.642 37.7679L174.45 36.8719L174.13 35.3359L173.682 32.5199C173.618 32.0079 173.49 31.4959 173.426 30.9839L173.298 29.7679C173.17 28.8079 172.978 27.7199 172.978 26.6319C172.978 25.4159 172.594 24.1359 172.594 22.9199L172.466 22.0879C172.338 21.3839 172.018 20.7439 171.506 20.2319L170.738 22.6639L170.546 23.3039L170.29 24.1999L170.162 24.7759L169.714 26.2479L169.33 27.7199L169.074 28.6159L168.882 29.1919C168.882 29.4479 168.69 29.8959 168.626 30.1519L168.434 30.7279C168.242 31.3039 167.73 33.0319 167.73 34.7599L167.602 35.6559L166.962 39.3679L166.77 40.2639L166.45 41.7999L166.13 43.3999L165.746 45.2559L165.298 47.4959Z"/>
<path d="M152.711 23.1119C153.671 23.1119 153.415 23.1119 153.479 24.2639L153.671 26.8879V27.9759C153.671 28.2959 153.735 28.6159 153.735 28.9999V39.0479C153.735 40.1359 153.671 41.0959 153.671 42.1839C153.671 43.0159 153.607 43.9119 153.607 44.7439C153.607 46.0239 153.479 47.2399 153.479 48.5199V50.5679C153.479 51.2719 153.415 52.0399 153.415 52.7439C153.415 53.1279 153.351 53.5119 153.351 53.8959C153.351 54.2799 153.287 54.6639 153.287 55.0479C153.287 55.8159 153.223 56.5839 153.223 57.4159V58.6959C153.223 59.9759 153.159 61.2559 153.031 62.5999C153.031 63.5599 152.967 64.4559 152.967 65.4159C152.967 65.8639 152.903 66.3119 152.903 66.8239C152.903 69.7039 152.263 69.4479 150.599 69.4479C150.087 69.3839 144.583 69.3199 144.583 68.6799V66.3759C144.583 62.8559 144.711 59.3359 144.711 55.8159V54.7279C144.711 54.2159 144.647 53.7039 144.647 53.1919V52.2319C144.647 51.5279 144.583 50.9519 144.583 50.3119C144.455 50.3119 144.391 50.2479 144.263 50.2479H143.815C142.407 50.0559 140.487 49.9279 139.143 49.9279H138.247C137.479 49.9279 136.711 49.8639 136.071 50.1839C135.623 50.8239 135.687 52.4239 135.687 54.7919C135.687 55.4319 135.751 56.0719 135.751 56.7759V59.2719C135.751 60.1039 135.815 60.9359 135.815 61.7679V62.7279C135.815 63.3679 135.559 64.0079 135.239 64.4559L128.647 64.6479C127.879 64.6479 126.727 64.9679 126.727 63.3679V62.6639C126.727 62.6639 126.663 62.5359 126.663 62.2799C126.663 62.1519 126.663 61.8959 126.727 61.5759C126.727 60.9359 126.663 60.2319 126.663 59.5279C126.663 59.2079 126.599 58.8239 126.599 58.4399C126.599 53.7679 126.343 48.3279 126.343 41.5439V38.0239C125.255 38.3439 124.423 38.4719 124.359 38.1519L124.039 31.1759C123.975 30.4079 124.103 29.5119 124.295 28.8079C124.807 28.8079 125.319 28.7439 125.831 28.7439C127.687 28.7439 129.607 28.4879 131.463 28.4879H135.175C136.455 29.1279 136.263 33.8639 136.263 36.8079C136.263 38.2159 136.327 39.5599 136.327 40.7119V41.4799C136.327 42.8879 137.223 42.5679 138.887 42.5679H139.719C140.295 42.5679 140.871 42.5679 141.511 42.5039C141.703 42.5039 141.895 42.5679 142.087 42.5679C142.471 42.5679 142.791 42.5039 143.111 42.5039C144.007 42.4399 143.879 40.5199 143.879 39.3679V37.4479C143.879 36.8079 143.943 36.1679 143.943 35.5919C143.943 34.7599 144.007 34.0559 144.007 33.2879V31.6239L144.071 25.4159C144.327 22.3439 149.127 22.5999 152.711 23.1119Z"/>
<path d="M133.17 18.7599C132.466 18.8239 131.634 18.8239 130.674 18.8239C129.65 18.8239 130.482 18.7599 127.474 18.7599H124.274C123.058 18.7599 121.778 18.8239 120.562 18.8239V28.7439C120.562 29.3199 120.626 29.9599 120.626 30.5359V36.2959C120.626 36.6799 120.69 36.9999 120.69 37.3839V40.1999C120.69 41.1599 120.754 42.0559 120.754 43.0159C120.754 43.5919 120.818 44.1039 120.818 44.6799V45.7679C120.818 46.3439 120.882 46.8559 120.882 47.3679V48.4559C120.882 48.9679 120.946 49.5439 120.946 50.0559V51.2079C120.946 51.7839 121.01 52.2959 121.01 52.8719V54.5999C121.01 56.1359 121.074 57.6079 121.074 59.0799C121.074 60.3599 116.146 60.2959 114.546 60.2959C113.778 60.2959 111.026 61.3199 111.026 57.8639V56.3279C111.026 54.5359 111.154 52.4879 111.154 50.5679V49.3519C111.154 47.0479 111.346 44.8079 111.346 42.5039V41.2879C111.346 39.7519 111.41 38.2159 111.41 36.6799V23.0479C111.41 21.8959 111.474 20.7439 111.474 19.6559V19.1439C110.258 19.1439 109.17 19.0159 108.018 18.9519L105.458 18.8239C104.242 18.7599 103.026 18.8239 101.426 18.6959C99.6977 18.6959 100.146 17.4799 100.146 16.6479C100.338 13.9599 99.5057 9.99194 102.386 9.99194H104.306C109.042 9.99194 113.266 10.2479 119.538 10.2479H123.698C127.794 10.2479 129.906 10.1199 133.17 10.1199V18.7599Z"/>
<path d="M62.9437 12.1039C65.9517 11.7199 68.8957 11.3999 71.9037 10.9519C72.1597 13.6399 72.0957 15.9439 72.4157 18.3119C72.5437 19.5279 72.5437 20.6799 72.5437 21.8959C72.5437 23.1119 72.4157 24.3919 72.4157 25.6079C72.4157 27.5919 72.5437 29.7679 72.6717 31.7519C72.9917 36.5519 72.4797 39.6239 72.4797 44.0399V45.8319C72.4797 46.4079 72.4157 46.9839 72.4157 47.6239V53.3839C72.6717 53.5119 72.8637 53.6399 73.1197 53.7039C74.0797 54.0239 75.0397 53.8959 75.9997 53.7679C77.2157 53.5759 78.6237 53.3839 79.9037 53.3839C82.0797 53.3199 84.3837 53.3839 86.3677 53.4479C87.3277 53.4479 88.3517 53.3839 89.3757 53.2559C89.3757 53.6399 89.5677 55.1119 89.5677 55.6879C89.5677 57.6079 89.7597 60.6799 88.4797 60.9359C87.0717 60.9359 85.7277 60.8079 84.1277 60.8079C81.2477 60.8079 78.6237 61.2559 75.9357 61.2559H75.1037C74.5917 61.2559 74.0797 61.3199 73.5037 61.3199H71.8397C70.8157 61.5119 64.4797 61.7679 63.3917 61.5119C63.5197 60.6799 63.6477 59.8479 63.6477 58.9519V56.0079C63.6477 54.3439 63.5837 52.4879 63.5837 50.8879V37.1279C63.5197 36.4879 63.4557 35.7839 63.4557 35.0799V32.7759C63.4557 31.9439 63.5197 31.1759 63.5197 30.3439V27.1439C63.5197 26.6319 63.4557 26.0559 63.4557 25.5439V24.7119C63.4557 20.4879 63.0717 16.3279 62.9437 12.1039Z"/>
<path d="M59.3138 27.2079C59.3138 28.0399 59.2497 28.9359 59.2497 30.0239V30.6639C59.2497 31.1119 59.1858 31.4959 59.1858 31.9439L58.9938 35.0799C58.8658 36.7439 58.7378 38.5359 58.6738 40.1999L58.3538 45.8959C58.2898 46.5359 58.3537 47.1759 58.2897 47.8159C58.1617 49.4799 58.1617 51.2079 57.9697 52.8719V54.4719C57.9697 56.4559 57.6497 59.8479 57.6497 61.8959L58.1618 65.7999C58.2898 65.7999 58.9297 65.8639 59.5697 65.8639H60.9778C61.5538 65.8639 62.1298 65.9279 62.8978 65.9279C63.4097 65.8639 63.9217 65.7999 64.4977 65.7999H66.7377C67.9537 65.7999 67.6338 65.8639 68.0178 65.8639H69.7458C70.5778 65.8639 71.8578 65.9919 74.1618 65.9919L72.8177 73.4799C71.7937 73.4799 71.1538 73.5439 70.5778 73.5439H63.7937C58.6097 73.5439 60.5938 73.0959 53.9378 73.0959C52.8498 73.0959 51.6337 73.2239 50.6097 73.2239C50.2257 73.2239 49.9058 73.1599 49.5218 73.1599C49.0738 73.1599 48.6898 73.2879 48.3698 73.2879C48.1778 73.2879 48.0498 73.2239 47.9218 73.1599C48.3058 71.0479 48.3698 68.4879 48.3698 65.9279C48.3698 65.4799 48.4337 65.0319 48.4337 64.5839V54.9199C48.4337 53.6399 48.4977 52.2319 48.4977 50.9519V46.5359C48.4977 45.3839 48.3698 43.1439 48.3698 42.3119V38.4719C48.3698 37.6399 48.4337 36.6799 48.4337 35.6559V34.3759C48.4337 32.7759 48.4977 31.1759 48.4977 29.5119V27.5919C48.4977 26.6319 48.5618 25.4799 48.5618 24.4559V23.3039C48.1138 22.7279 57.5217 23.4319 58.9297 23.4319L59.3138 27.2079Z"/>
<path d="M43.5712 59.3359C43.6992 60.2319 43.7632 59.6559 34.2912 60.5519C34.0992 59.2079 33.5232 58.1199 33.5232 56.4559V55.4319C33.5232 54.4719 33.3952 53.5119 33.1392 52.5519H32.7552C32.6272 52.5519 32.4992 52.6159 32.3712 52.6159H31.2832C30.8992 52.6159 30.5792 52.6799 30.1952 52.6799L26.8032 52.7439C25.5872 52.7439 24.3072 52.7439 23.0912 52.8719L21.6192 52.9999C20.3392 53.1279 20.5312 54.1519 20.4672 55.2399L20.2752 57.5439C20.3392 57.5439 20.5312 61.1279 17.6512 60.9359L15.7952 60.8079L14.1312 60.6159C13.8112 60.1039 13.6832 59.3999 13.6832 58.8239C13.6832 58.1199 13.8752 57.2879 14.0032 56.5839L14.4512 54.4079L14.9632 51.0159L15.0912 50.2479C15.2192 49.3519 15.4112 48.5199 15.6032 47.6239L15.7312 46.9199L16.3072 43.9119L16.4992 42.7599L16.7552 41.7359L17.3952 38.8559L17.7792 36.6799L17.9072 35.5919L18.0992 34.4399L18.4832 32.2639L19.1872 29.7039L19.8272 27.5279L20.4032 25.3519C20.5312 24.9679 20.5312 24.6479 20.6592 24.2639L20.9792 23.1759C21.1712 22.4719 21.8112 20.4879 21.8112 19.6559C21.8112 19.0159 21.4912 18.8879 20.9152 18.8879H20.0192C18.0352 18.8879 15.7952 19.2719 13.6192 19.2719C12.5952 19.2719 11.6352 19.2079 10.6112 19.2079C9.6512 19.2079 9.0752 19.4639 9.0752 18.1839L9.4592 13.3839C9.5232 12.7439 9.5232 12.1679 10.1632 12.1679C10.8032 12.2959 11.5072 12.2959 12.2112 12.2959C14.0672 12.2959 16.8192 12.0399 19.0592 12.0399H20.8512C21.2352 12.0399 21.5552 12.1039 21.9392 12.1039H23.7952C24.9472 12.1039 26.0352 11.9759 27.1232 11.8479L30.4512 11.4639C31.4752 11.3359 32.6912 11.2079 33.7792 11.2079H34.9312C35.1872 11.2719 35.6352 11.2719 36.1472 11.2719C36.8512 11.2719 38.0672 11.2079 39.3472 11.2079C40.1792 11.2079 41.1392 11.1439 42.0992 11.1439C42.9952 11.1439 43.9552 11.0799 44.8512 11.0159L48.4992 10.8239C48.4992 12.5519 49.0112 17.9919 46.5152 18.5679L44.0832 18.8239C42.7392 18.9519 41.3952 19.0159 40.0512 19.0159C39.0912 19.0159 37.5552 18.9519 37.2992 19.2079C37.2992 19.3359 37.3632 19.4639 37.3632 19.5919L37.8752 21.8319L38.2592 23.6239L38.5152 24.7759L38.7712 25.8639L39.0912 27.7199L39.3472 29.5119L39.4752 31.0479C39.6032 32.6479 39.4752 35.2719 39.7952 37.3199L40.1792 39.8799L40.6912 42.0559L40.8832 42.7599L41.6512 44.9359C41.7792 45.3199 41.8432 45.7039 41.9712 46.0239L42.2272 47.1119C42.4832 48.1999 42.7392 49.3519 42.9312 50.4399L43.0592 51.2079C43.1232 51.3999 43.1872 51.6559 43.1872 51.8479C43.1872 52.6799 42.9952 53.4479 42.9952 54.2799C42.9952 54.9839 42.9952 55.7519 43.1232 56.4559L43.4432 58.5679L43.5712 59.3359ZM21.2352 47.4959H22.1952C24.0512 47.4959 25.9072 47.3679 27.7632 47.3679H28.4032C28.9152 47.3679 29.4272 47.3039 29.9392 47.3039C30.7712 47.3039 31.6032 47.2399 32.4352 47.2399L32.3072 46.5999L31.7312 44.1039C31.6672 43.9119 31.7312 43.7199 31.6672 43.5279L31.5392 42.8879L31.0912 40.8399C31.0272 40.6479 31.0912 40.3919 31.0272 40.1999L30.6432 38.4079C30.5792 38.2159 30.6432 37.9599 30.5792 37.7679L30.3872 36.8719L30.0672 35.3359L29.6192 32.5199C29.5552 32.0079 29.4272 31.4959 29.3632 30.9839L29.2352 29.7679C29.1072 28.8079 28.9152 27.7199 28.9152 26.6319C28.9152 25.4159 28.5312 24.1359 28.5312 22.9199L28.4032 22.0879C28.2752 21.3839 27.9552 20.7439 27.4432 20.2319L26.6752 22.6639L26.4832 23.3039L26.2272 24.1999L26.0992 24.7759L25.6512 26.2479L25.2672 27.7199L25.0112 28.6159L24.8192 29.1919C24.8192 29.4479 24.6272 29.8959 24.5632 30.1519L24.3712 30.7279C24.1792 31.3039 23.6672 33.0319 23.6672 34.7599L23.5392 35.6559L22.8992 39.3679L22.7072 40.2639L22.3872 41.7999L22.0672 43.3999L21.6832 45.2559L21.2352 47.4959Z"/>
</mask>
<path d="M383.808 25.7359C382.144 34.9519 381.056 39.8159 380.16 48.3919C379.904 48.7759 379.392 48.9679 378.56 48.9039C378.048 48.9039 377.6 48.7759 377.024 48.7759L373.824 48.3919C373.12 47.9439 372.992 45.4479 373.056 42.1839L373.376 15.2399C373.568 14.1519 374.912 14.4079 375.68 14.4079C376.064 14.4719 376.448 14.5359 376.832 14.5359C379.584 14.7279 382.4 14.7279 385.088 14.8559C385.344 15.4319 385.408 16.1999 385.408 17.1599C385.344 17.3519 385.344 17.6079 385.28 17.9279L383.808 25.7359ZM370.112 58.0559C369.984 59.9119 371.776 61.5759 374.08 61.7039H374.336C375.616 61.7679 377.152 61.7679 377.856 61.7039C379.904 61.8319 381.76 59.9759 381.888 57.4799L381.952 56.9039C382.08 54.4719 380.352 52.4879 378.176 52.3599H377.92C377.024 52.2959 375.296 52.2959 374.272 52.3599C372.16 52.2959 370.24 54.5359 370.112 57.4159V58.0559Z" fill="#6D16CF"/>
<path d="M340.378 60.3599V52.8079L340.634 52.4239L341.21 51.2079L341.658 50.2479L342.17 49.2239C342.426 48.7119 342.874 48.1999 343.386 47.7519L343.834 46.9199C344.474 45.7679 345.05 44.5519 345.626 43.3359L346.266 41.9919C346.65 41.1599 347.034 40.5199 347.354 39.6239L347.738 38.5999L348.826 36.1039L349.466 34.5679L349.914 33.4799L350.618 31.8799L352.026 28.5519C352.41 27.5919 352.858 26.6319 353.306 25.6719L353.818 24.5199L354.97 22.0879C355.226 21.7039 355.29 21.2559 355.546 20.8719H355.098C354.778 20.8719 354.522 20.9359 354.202 20.9359H352.858C352.41 20.9359 351.898 20.9999 351.386 20.9999C349.914 20.9999 348.57 21.0639 346.778 21.0639H343.834C340.122 21.0639 341.274 20.7439 340.25 20.5519L339.482 16.7759C339.482 15.4319 339.674 13.6399 340.442 12.1039H342.17C342.938 12.1039 343.642 12.1679 344.41 12.1679H347.29C348.442 12.1679 349.53 12.2319 350.682 12.2319L367.77 12.4239L367.514 14.0239L367.258 15.5599L366.746 18.6959C366.426 19.0159 365.722 20.1039 365.082 21.5119L364.186 23.4319L362.842 26.3759L362.138 27.8479L360.474 31.3679L359.706 32.9039L358.49 35.4639L357.786 36.9999L356.762 39.0479L355.546 41.7359L353.882 44.3599L352.986 46.5359L352.218 48.1999L350.874 51.5279L350.618 52.1039H351.514C351.834 52.1039 352.09 52.0399 352.346 52.0399C352.922 52.0399 353.498 51.9759 354.074 51.9759C356.378 51.8479 358.362 51.7839 360.154 51.7839H361.69C363.93 51.7839 365.85 51.5919 367.386 51.5919C367.706 51.5919 368.026 51.5279 368.282 51.5279C368.41 52.1679 368.538 53.0639 368.602 54.2799C368.602 55.9439 368.538 57.6079 368.538 59.2719V60.3599H365.594C362.842 60.3599 360.282 60.2319 357.53 60.2319H354.97C353.754 60.2319 352.538 60.2959 351.322 60.2959H349.082C348.57 60.2959 347.93 60.3599 347.418 60.3599H340.378Z" fill="#6D16CF"/>
<path d="M305.939 71.8799L305.811 70.664L305.299 66.888C306.707 65.096 307.027 63.752 308.179 61.576L309.523 59.08L310.995 56.2C311.187 55.816 311.315 55.304 326.419 33.2879L327.123 32.2639L327.507 31.7519C326.227 31.7519 323.539 31.8799 322.067 31.8799H320.467C318.931 31.8799 316.499 31.6239 310.931 31.6239H308.051C307.539 31.6239 307.027 31.5599 306.451 31.5599L305.683 27.6559C305.683 27.6559 305.619 22.9839 307.347 22.9839C308.051 22.9839 308.691 23.0479 309.395 23.0479H312.915C314.515 23.0479 316.179 23.1119 317.779 23.1119C318.483 23.1119 319.123 23.1759 319.827 23.1759C325.651 23.3039 331.411 23.2399 337.235 23.368C337.235 25.4159 337.427 27.528 337.427 29.5759C337.299 29.8319 336.851 32.5199 336.403 33.4159H336.211C335.891 33.7359 335.635 34.1199 335.315 34.5039L334.355 35.7839L332.819 38.216L331.859 39.8159C331.283 40.7759 330.067 41.2879 318.739 59.5919L317.907 60.936L316.179 63.624L315.731 64.264C316.499 64.264 317.267 64.2 318.035 64.2L331.027 63.816C334.163 63.752 337.299 63.7519 340.435 63.4959H341.715C342.739 63.4959 343.827 63.368 344.851 63.368C344.979 64.008 345.107 64.9679 345.171 66.1199C345.171 67.9759 345.107 69.7039 345.107 71.5599V72.1999H343.187C342.355 72.1999 341.459 72.264 340.627 72.264C338.195 72.264 335.699 72.136 333.267 72.136H330.387C329.683 72.136 328.915 72.0719 328.211 72.0719H326.803C322.003 72.0719 317.139 71.944 312.403 71.944H311.123C310.483 71.944 309.779 71.8799 309.139 71.8799H305.939Z" fill="#6D16CF"/>
<path d="M303.509 59.3359C303.637 60.2319 303.701 59.6559 294.229 60.5519C294.037 59.2079 293.461 58.1199 293.461 56.4559V55.4319C293.461 54.4719 293.333 53.5119 293.077 52.5519H292.693C292.565 52.5519 292.437 52.6159 292.309 52.6159H291.221C290.837 52.6159 290.517 52.6799 290.133 52.6799L286.741 52.7439C285.525 52.7439 284.245 52.7439 283.029 52.8719L281.557 52.9999C280.277 53.1279 280.469 54.1519 280.405 55.2399L280.213 57.5439C280.277 57.5439 280.469 61.1279 277.589 60.9359L275.733 60.8079L274.069 60.6159C273.749 60.1039 273.621 59.3999 273.621 58.8239C273.621 58.1199 273.813 57.2879 273.941 56.5839L274.389 54.4079L274.901 51.0159L275.029 50.2479C275.157 49.3519 275.349 48.5199 275.541 47.6239L275.669 46.9199L276.245 43.9119L276.437 42.7599L276.693 41.7359L277.333 38.8559L277.717 36.6799L277.845 35.5919L278.037 34.4399L278.421 32.2639L279.125 29.7039L279.765 27.5279L280.341 25.3519C280.469 24.9679 280.469 24.6479 280.597 24.2639L280.917 23.1759C281.109 22.4719 281.749 20.4879 281.749 19.6559C281.749 19.0159 281.429 18.8879 280.853 18.8879H279.957C277.973 18.8879 275.733 19.2719 273.557 19.2719C272.533 19.2719 271.573 19.2079 270.549 19.2079C269.589 19.2079 269.013 19.4639 269.013 18.1839L269.397 13.3839C269.461 12.7439 269.461 12.1679 270.101 12.1679C270.741 12.2959 271.445 12.2959 272.149 12.2959C274.005 12.2959 276.757 12.0399 278.997 12.0399H280.789C281.173 12.0399 281.493 12.1039 281.877 12.1039H283.733C284.885 12.1039 285.973 11.9759 287.061 11.8479L290.389 11.4639C291.413 11.3359 292.629 11.2079 293.717 11.2079H294.869C295.125 11.2719 295.573 11.2719 296.085 11.2719C296.789 11.2719 298.005 11.2079 299.285 11.2079C300.117 11.2079 301.077 11.1439 302.037 11.1439C302.933 11.1439 303.893 11.0799 304.789 11.0159L308.437 10.8239C308.437 12.5519 308.949 17.9919 306.453 18.5679L304.021 18.8239C302.677 18.9519 301.333 19.0159 299.989 19.0159C299.029 19.0159 297.493 18.9519 297.237 19.2079C297.237 19.3359 297.301 19.4639 297.301 19.5919L297.813 21.8319L298.197 23.6239L298.453 24.7759L298.709 25.8639L299.029 27.7199L299.285 29.5119L299.413 31.0479C299.541 32.6479 299.413 35.2719 299.733 37.3199L300.117 39.8799L300.629 42.0559L300.821 42.7599L301.589 44.9359C301.717 45.3199 301.781 45.7039 301.909 46.0239L302.165 47.1119C302.421 48.1999 302.677 49.3519 302.869 50.4399L302.997 51.2079C303.061 51.3999 303.125 51.6559 303.125 51.8479C303.125 52.6799 302.933 53.4479 302.933 54.2799C302.933 54.9839 302.933 55.7519 303.061 56.4559L303.381 58.5679L303.509 59.3359ZM281.173 47.4959H282.133C283.989 47.4959 285.845 47.3679 287.701 47.3679H288.341C288.853 47.3679 289.365 47.3039 289.877 47.3039C290.709 47.3039 291.541 47.2399 292.373 47.2399L292.245 46.5999L291.669 44.1039C291.605 43.9119 291.669 43.7199 291.605 43.5279L291.477 42.8879L291.029 40.8399C290.965 40.6479 291.029 40.3919 290.965 40.1999L290.581 38.4079C290.517 38.2159 290.581 37.9599 290.517 37.7679L290.325 36.8719L290.005 35.3359L289.557 32.5199C289.493 32.0079 289.365 31.4959 289.301 30.9839L289.173 29.7679C289.045 28.8079 288.853 27.7199 288.853 26.6319C288.853 25.4159 288.469 24.1359 288.469 22.9199L288.341 22.0879C288.213 21.3839 287.893 20.7439 287.381 20.2319L286.613 22.6639L286.421 23.3039L286.165 24.1999L286.037 24.7759L285.589 26.2479L285.205 27.7199L284.949 28.6159L284.757 29.1919C284.757 29.4479 284.565 29.8959 284.501 30.1519L284.309 30.7279C284.117 31.3039 283.605 33.0319 283.605 34.7599L283.477 35.6559L282.837 39.3679L282.645 40.2639L282.325 41.7999L282.005 43.3999L281.621 45.2559L281.173 47.4959Z" fill="#6D16CF"/>
<path d="M240.246 57.7999C240.246 56.9039 240.438 55.9439 240.438 55.0479C244.214 54.9199 247.99 55.0479 251.894 55.4319C251.83 57.2239 251.958 59.0159 252.406 60.9359C252.662 62.4079 253.494 64.0719 256.054 64.0719C259.894 64.0719 260.534 62.4079 260.854 60.1039V59.5919C260.854 57.9279 261.11 56.1359 261.11 54.4719V47.1119C261.11 45.2559 261.046 43.8479 260.982 42.1839L260.854 36.6159C260.79 35.0159 260.662 33.2879 260.662 31.6879V31.1119H260.086L255.67 31.3039C251.958 31.4959 248.246 31.5599 244.534 31.8159C244.278 31.8159 244.214 31.7519 244.15 31.4319L243.638 27.1439C243.638 23.8159 245.494 24.7119 248.118 24.5839C250.166 24.4559 252.278 24.4559 254.326 24.3279L265.078 23.8159C265.654 23.8159 266.166 23.7519 266.742 23.7519L270.134 23.6239C270.262 24.5199 270.454 25.6719 270.454 26.9519V27.5279C270.454 28.8719 270.582 30.2159 270.582 31.5599C270.582 31.9439 270.646 32.3279 270.646 32.7119V33.8639C270.646 34.8239 270.71 35.7199 270.71 36.6799C270.71 37.0639 270.774 37.4479 270.774 37.8319V38.9839C270.774 40.3279 270.838 41.6079 270.838 42.9519V45.1279C270.838 46.2159 270.902 47.3039 270.902 48.3919V50.0559C270.902 50.8879 270.966 51.6559 270.966 52.4879V53.7039C270.966 54.0879 271.03 54.4079 271.03 54.7919V56.3279C271.03 57.9919 271.03 59.7199 270.774 61.3199L270.582 62.6639C269.878 67.5919 267.126 68.8079 263.798 69.4479L262.774 69.6399C260.598 70.0239 257.846 70.5359 255.478 70.5359C253.366 70.5359 251.19 70.5359 249.206 70.0879C244.982 69.1279 243.126 67.9759 241.782 65.3519L241.334 64.4559C241.078 63.9439 240.95 63.4959 240.822 62.9199L240.566 61.7679C240.31 60.4879 240.246 59.2079 240.246 57.7999Z" fill="#6D16CF"/>
<path d="M209.392 23.3679C212.912 23.3679 214 23.2399 218.672 23.2399V32.5199C218.16 32.5839 217.584 32.5839 216.88 32.5839H215.6C215.28 32.5839 215.088 32.5199 214.704 32.5199H214C211.696 32.5199 211.248 32.5839 209.648 32.5839V40.9039C209.648 42.5679 209.712 44.1039 209.712 45.5759V46.6639C209.712 53.1279 210.16 55.8159 209.968 62.2159C209.84 62.2159 208.048 62.8559 204.656 62.9199C201.392 62.9839 200.112 62.9199 200.112 62.2159C200.112 60.6799 200.24 59.2719 200.24 57.7359C200.24 56.4559 200.368 55.1119 200.368 53.7679C200.368 52.8719 200.432 52.1039 200.432 51.1439C200.432 50.6959 200.496 50.1839 200.496 49.6719V42.1839C200.496 40.8399 200.432 39.7519 200.432 38.5359V36.6799C200.432 35.8479 200.496 35.0159 200.496 34.1839V33.5439C199.024 33.4159 198.192 33.4799 196.848 33.3519C196.4 33.3519 190.704 34.0559 190.704 31.0479C190.896 29.3199 190.768 26.2479 191.152 24.3919L191.344 23.4319C191.6 23.2399 192.176 23.1119 192.88 23.1119H195.12C195.824 23.1119 196.528 23.1759 197.232 23.1759C201.008 23.1759 204.08 23.3679 209.392 23.3679Z" fill="#6D16CF"/>
<path d="M187.634 59.3359C187.762 60.2319 187.826 59.6559 178.354 60.5519C178.162 59.2079 177.586 58.1199 177.586 56.4559V55.4319C177.586 54.4719 177.458 53.5119 177.202 52.5519H176.818C176.69 52.5519 176.562 52.6159 176.434 52.6159H175.346C174.962 52.6159 174.642 52.6799 174.258 52.6799L170.866 52.7439C169.65 52.7439 168.37 52.7439 167.154 52.8719L165.682 52.9999C164.402 53.1279 164.594 54.1519 164.53 55.2399L164.338 57.5439C164.402 57.5439 164.594 61.1279 161.714 60.9359L159.858 60.8079L158.194 60.6159C157.874 60.1039 157.746 59.3999 157.746 58.8239C157.746 58.1199 157.938 57.2879 158.066 56.5839L158.514 54.4079L159.026 51.0159L159.154 50.2479C159.282 49.3519 159.474 48.5199 159.666 47.6239L159.794 46.9199L160.37 43.9119L160.562 42.7599L160.818 41.7359L161.458 38.8559L161.842 36.6799L161.97 35.5919L162.162 34.4399L162.546 32.2639L163.25 29.7039L163.89 27.5279L164.466 25.3519C164.594 24.9679 164.594 24.6479 164.722 24.2639L165.042 23.1759C165.234 22.4719 165.874 20.4879 165.874 19.6559C165.874 19.0159 165.554 18.8879 164.978 18.8879H164.082C162.098 18.8879 159.858 19.2719 157.682 19.2719C156.658 19.2719 155.698 19.2079 154.674 19.2079C153.714 19.2079 153.138 19.4639 153.138 18.1839L153.522 13.3839C153.586 12.7439 153.586 12.1679 154.226 12.1679C154.866 12.2959 155.57 12.2959 156.274 12.2959C158.13 12.2959 160.882 12.0399 163.122 12.0399H164.914C165.298 12.0399 165.618 12.1039 166.002 12.1039H167.858C169.01 12.1039 170.098 11.9759 171.186 11.8479L174.514 11.4639C175.538 11.3359 176.754 11.2079 177.842 11.2079H178.994C179.25 11.2719 179.698 11.2719 180.21 11.2719C180.914 11.2719 182.13 11.2079 183.41 11.2079C184.242 11.2079 185.202 11.1439 186.162 11.1439C187.058 11.1439 188.018 11.0799 188.914 11.0159L192.562 10.8239C192.562 12.5519 193.074 17.9919 190.578 18.5679L188.146 18.8239C186.802 18.9519 185.458 19.0159 184.114 19.0159C183.154 19.0159 181.618 18.9519 181.362 19.2079C181.362 19.3359 181.426 19.4639 181.426 19.5919L181.938 21.8319L182.322 23.6239L182.578 24.7759L182.834 25.8639L183.154 27.7199L183.41 29.5119L183.538 31.0479C183.666 32.6479 183.538 35.2719 183.858 37.3199L184.242 39.8799L184.754 42.0559L184.946 42.7599L185.714 44.9359C185.842 45.3199 185.906 45.7039 186.034 46.0239L186.29 47.1119C186.546 48.1999 186.802 49.3519 186.994 50.4399L187.122 51.2079C187.186 51.3999 187.25 51.6559 187.25 51.8479C187.25 52.6799 187.058 53.4479 187.058 54.2799C187.058 54.9839 187.058 55.7519 187.186 56.4559L187.506 58.5679L187.634 59.3359ZM165.298 47.4959H166.258C168.114 47.4959 169.97 47.3679 171.826 47.3679H172.466C172.978 47.3679 173.49 47.3039 174.002 47.3039C174.834 47.3039 175.666 47.2399 176.498 47.2399L176.37 46.5999L175.794 44.1039C175.73 43.9119 175.794 43.7199 175.73 43.5279L175.602 42.8879L175.154 40.8399C175.09 40.6479 175.154 40.3919 175.09 40.1999L174.706 38.4079C174.642 38.2159 174.706 37.9599 174.642 37.7679L174.45 36.8719L174.13 35.3359L173.682 32.5199C173.618 32.0079 173.49 31.4959 173.426 30.9839L173.298 29.7679C173.17 28.8079 172.978 27.7199 172.978 26.6319C172.978 25.4159 172.594 24.1359 172.594 22.9199L172.466 22.0879C172.338 21.3839 172.018 20.7439 171.506 20.2319L170.738 22.6639L170.546 23.3039L170.29 24.1999L170.162 24.7759L169.714 26.2479L169.33 27.7199L169.074 28.6159L168.882 29.1919C168.882 29.4479 168.69 29.8959 168.626 30.1519L168.434 30.7279C168.242 31.3039 167.73 33.0319 167.73 34.7599L167.602 35.6559L166.962 39.3679L166.77 40.2639L166.45 41.7999L166.13 43.3999L165.746 45.2559L165.298 47.4959Z" fill="#6D16CF"/>
<path d="M152.711 23.1119C153.671 23.1119 153.415 23.1119 153.479 24.2639L153.671 26.8879V27.9759C153.671 28.2959 153.735 28.6159 153.735 28.9999V39.0479C153.735 40.1359 153.671 41.0959 153.671 42.1839C153.671 43.0159 153.607 43.9119 153.607 44.7439C153.607 46.0239 153.479 47.2399 153.479 48.5199V50.5679C153.479 51.2719 153.415 52.0399 153.415 52.7439C153.415 53.1279 153.351 53.5119 153.351 53.8959C153.351 54.2799 153.287 54.6639 153.287 55.0479C153.287 55.8159 153.223 56.5839 153.223 57.4159V58.6959C153.223 59.9759 153.159 61.2559 153.031 62.5999C153.031 63.5599 152.967 64.4559 152.967 65.4159C152.967 65.8639 152.903 66.3119 152.903 66.8239C152.903 69.7039 152.263 69.4479 150.599 69.4479C150.087 69.3839 144.583 69.3199 144.583 68.6799V66.3759C144.583 62.8559 144.711 59.3359 144.711 55.8159V54.7279C144.711 54.2159 144.647 53.7039 144.647 53.1919V52.2319C144.647 51.5279 144.583 50.9519 144.583 50.3119C144.455 50.3119 144.391 50.2479 144.263 50.2479H143.815C142.407 50.0559 140.487 49.9279 139.143 49.9279H138.247C137.479 49.9279 136.711 49.8639 136.071 50.1839C135.623 50.8239 135.687 52.4239 135.687 54.7919C135.687 55.4319 135.751 56.0719 135.751 56.7759V59.2719C135.751 60.1039 135.815 60.9359 135.815 61.7679V62.7279C135.815 63.3679 135.559 64.0079 135.239 64.4559L128.647 64.6479C127.879 64.6479 126.727 64.9679 126.727 63.3679V62.6639C126.727 62.6639 126.663 62.5359 126.663 62.2799C126.663 62.1519 126.663 61.8959 126.727 61.5759C126.727 60.9359 126.663 60.2319 126.663 59.5279C126.663 59.2079 126.599 58.8239 126.599 58.4399C126.599 53.7679 126.343 48.3279 126.343 41.5439V38.0239C125.255 38.3439 124.423 38.4719 124.359 38.1519L124.039 31.1759C123.975 30.4079 124.103 29.5119 124.295 28.8079C124.807 28.8079 125.319 28.7439 125.831 28.7439C127.687 28.7439 129.607 28.4879 131.463 28.4879H135.175C136.455 29.1279 136.263 33.8639 136.263 36.8079C136.263 38.2159 136.327 39.5599 136.327 40.7119V41.4799C136.327 42.8879 137.223 42.5679 138.887 42.5679H139.719C140.295 42.5679 140.871 42.5679 141.511 42.5039C141.703 42.5039 141.895 42.5679 142.087 42.5679C142.471 42.5679 142.791 42.5039 143.111 42.5039C144.007 42.4399 143.879 40.5199 143.879 39.3679V37.4479C143.879 36.8079 143.943 36.1679 143.943 35.5919C143.943 34.7599 144.007 34.0559 144.007 33.2879V31.6239L144.071 25.4159C144.327 22.3439 149.127 22.5999 152.711 23.1119Z" fill="#6D16CF"/>
<path d="M133.17 18.7599C132.466 18.8239 131.634 18.8239 130.674 18.8239C129.65 18.8239 130.482 18.7599 127.474 18.7599H124.274C123.058 18.7599 121.778 18.8239 120.562 18.8239V28.7439C120.562 29.3199 120.626 29.9599 120.626 30.5359V36.2959C120.626 36.6799 120.69 36.9999 120.69 37.3839V40.1999C120.69 41.1599 120.754 42.0559 120.754 43.0159C120.754 43.5919 120.818 44.1039 120.818 44.6799V45.7679C120.818 46.3439 120.882 46.8559 120.882 47.3679V48.4559C120.882 48.9679 120.946 49.5439 120.946 50.0559V51.2079C120.946 51.7839 121.01 52.2959 121.01 52.8719V54.5999C121.01 56.1359 121.074 57.6079 121.074 59.0799C121.074 60.3599 116.146 60.2959 114.546 60.2959C113.778 60.2959 111.026 61.3199 111.026 57.8639V56.3279C111.026 54.5359 111.154 52.4879 111.154 50.5679V49.3519C111.154 47.0479 111.346 44.8079 111.346 42.5039V41.2879C111.346 39.7519 111.41 38.2159 111.41 36.6799V23.0479C111.41 21.8959 111.474 20.7439 111.474 19.6559V19.1439C110.258 19.1439 109.17 19.0159 108.018 18.9519L105.458 18.8239C104.242 18.7599 103.026 18.8239 101.426 18.6959C99.6977 18.6959 100.146 17.4799 100.146 16.6479C100.338 13.9599 99.5057 9.99194 102.386 9.99194H104.306C109.042 9.99194 113.266 10.2479 119.538 10.2479H123.698C127.794 10.2479 129.906 10.1199 133.17 10.1199V18.7599Z" fill="#6D16CF"/>
<path d="M62.9437 12.1039C65.9517 11.7199 68.8957 11.3999 71.9037 10.9519C72.1597 13.6399 72.0957 15.9439 72.4157 18.3119C72.5437 19.5279 72.5437 20.6799 72.5437 21.8959C72.5437 23.1119 72.4157 24.3919 72.4157 25.6079C72.4157 27.5919 72.5437 29.7679 72.6717 31.7519C72.9917 36.5519 72.4797 39.6239 72.4797 44.0399V45.8319C72.4797 46.4079 72.4157 46.9839 72.4157 47.6239V53.3839C72.6717 53.5119 72.8637 53.6399 73.1197 53.7039C74.0797 54.0239 75.0397 53.8959 75.9997 53.7679C77.2157 53.5759 78.6237 53.3839 79.9037 53.3839C82.0797 53.3199 84.3837 53.3839 86.3677 53.4479C87.3277 53.4479 88.3517 53.3839 89.3757 53.2559C89.3757 53.6399 89.5677 55.1119 89.5677 55.6879C89.5677 57.6079 89.7597 60.6799 88.4797 60.9359C87.0717 60.9359 85.7277 60.8079 84.1277 60.8079C81.2477 60.8079 78.6237 61.2559 75.9357 61.2559H75.1037C74.5917 61.2559 74.0797 61.3199 73.5037 61.3199H71.8397C70.8157 61.5119 64.4797 61.7679 63.3917 61.5119C63.5197 60.6799 63.6477 59.8479 63.6477 58.9519V56.0079C63.6477 54.3439 63.5837 52.4879 63.5837 50.8879V37.1279C63.5197 36.4879 63.4557 35.7839 63.4557 35.0799V32.7759C63.4557 31.9439 63.5197 31.1759 63.5197 30.3439V27.1439C63.5197 26.6319 63.4557 26.0559 63.4557 25.5439V24.7119C63.4557 20.4879 63.0717 16.3279 62.9437 12.1039Z" fill="#6D16CF"/>
<path d="M59.3138 27.2079C59.3138 28.0399 59.2497 28.9359 59.2497 30.0239V30.6639C59.2497 31.1119 59.1858 31.4959 59.1858 31.9439L58.9938 35.0799C58.8658 36.7439 58.7378 38.5359 58.6738 40.1999L58.3538 45.8959C58.2898 46.5359 58.3537 47.1759 58.2897 47.8159C58.1617 49.4799 58.1617 51.2079 57.9697 52.8719V54.4719C57.9697 56.4559 57.6497 59.8479 57.6497 61.8959L58.1618 65.7999C58.2898 65.7999 58.9297 65.8639 59.5697 65.8639H60.9778C61.5538 65.8639 62.1298 65.9279 62.8978 65.9279C63.4097 65.8639 63.9217 65.7999 64.4977 65.7999H66.7377C67.9537 65.7999 67.6338 65.8639 68.0178 65.8639H69.7458C70.5778 65.8639 71.8578 65.9919 74.1618 65.9919L72.8177 73.4799C71.7937 73.4799 71.1538 73.5439 70.5778 73.5439H63.7937C58.6097 73.5439 60.5938 73.0959 53.9378 73.0959C52.8498 73.0959 51.6337 73.2239 50.6097 73.2239C50.2257 73.2239 49.9058 73.1599 49.5218 73.1599C49.0738 73.1599 48.6898 73.2879 48.3698 73.2879C48.1778 73.2879 48.0498 73.2239 47.9218 73.1599C48.3058 71.0479 48.3698 68.4879 48.3698 65.9279C48.3698 65.4799 48.4337 65.0319 48.4337 64.5839V54.9199C48.4337 53.6399 48.4977 52.2319 48.4977 50.9519V46.5359C48.4977 45.3839 48.3698 43.1439 48.3698 42.3119V38.4719C48.3698 37.6399 48.4337 36.6799 48.4337 35.6559V34.3759C48.4337 32.7759 48.4977 31.1759 48.4977 29.5119V27.5919C48.4977 26.6319 48.5618 25.4799 48.5618 24.4559V23.3039C48.1138 22.7279 57.5217 23.4319 58.9297 23.4319L59.3138 27.2079Z" fill="#6D16CF"/>
<path d="M43.5712 59.3359C43.6992 60.2319 43.7632 59.6559 34.2912 60.5519C34.0992 59.2079 33.5232 58.1199 33.5232 56.4559V55.4319C33.5232 54.4719 33.3952 53.5119 33.1392 52.5519H32.7552C32.6272 52.5519 32.4992 52.6159 32.3712 52.6159H31.2832C30.8992 52.6159 30.5792 52.6799 30.1952 52.6799L26.8032 52.7439C25.5872 52.7439 24.3072 52.7439 23.0912 52.8719L21.6192 52.9999C20.3392 53.1279 20.5312 54.1519 20.4672 55.2399L20.2752 57.5439C20.3392 57.5439 20.5312 61.1279 17.6512 60.9359L15.7952 60.8079L14.1312 60.6159C13.8112 60.1039 13.6832 59.3999 13.6832 58.8239C13.6832 58.1199 13.8752 57.2879 14.0032 56.5839L14.4512 54.4079L14.9632 51.0159L15.0912 50.2479C15.2192 49.3519 15.4112 48.5199 15.6032 47.6239L15.7312 46.9199L16.3072 43.9119L16.4992 42.7599L16.7552 41.7359L17.3952 38.8559L17.7792 36.6799L17.9072 35.5919L18.0992 34.4399L18.4832 32.2639L19.1872 29.7039L19.8272 27.5279L20.4032 25.3519C20.5312 24.9679 20.5312 24.6479 20.6592 24.2639L20.9792 23.1759C21.1712 22.4719 21.8112 20.4879 21.8112 19.6559C21.8112 19.0159 21.4912 18.8879 20.9152 18.8879H20.0192C18.0352 18.8879 15.7952 19.2719 13.6192 19.2719C12.5952 19.2719 11.6352 19.2079 10.6112 19.2079C9.6512 19.2079 9.0752 19.4639 9.0752 18.1839L9.4592 13.3839C9.5232 12.7439 9.5232 12.1679 10.1632 12.1679C10.8032 12.2959 11.5072 12.2959 12.2112 12.2959C14.0672 12.2959 16.8192 12.0399 19.0592 12.0399H20.8512C21.2352 12.0399 21.5552 12.1039 21.9392 12.1039H23.7952C24.9472 12.1039 26.0352 11.9759 27.1232 11.8479L30.4512 11.4639C31.4752 11.3359 32.6912 11.2079 33.7792 11.2079H34.9312C35.1872 11.2719 35.6352 11.2719 36.1472 11.2719C36.8512 11.2719 38.0672 11.2079 39.3472 11.2079C40.1792 11.2079 41.1392 11.1439 42.0992 11.1439C42.9952 11.1439 43.9552 11.0799 44.8512 11.0159L48.4992 10.8239C48.4992 12.5519 49.0112 17.9919 46.5152 18.5679L44.0832 18.8239C42.7392 18.9519 41.3952 19.0159 40.0512 19.0159C39.0912 19.0159 37.5552 18.9519 37.2992 19.2079C37.2992 19.3359 37.3632 19.4639 37.3632 19.5919L37.8752 21.8319L38.2592 23.6239L38.5152 24.7759L38.7712 25.8639L39.0912 27.7199L39.3472 29.5119L39.4752 31.0479C39.6032 32.6479 39.4752 35.2719 39.7952 37.3199L40.1792 39.8799L40.6912 42.0559L40.8832 42.7599L41.6512 44.9359C41.7792 45.3199 41.8432 45.7039 41.9712 46.0239L42.2272 47.1119C42.4832 48.1999 42.7392 49.3519 42.9312 50.4399L43.0592 51.2079C43.1232 51.3999 43.1872 51.6559 43.1872 51.8479C43.1872 52.6799 42.9952 53.4479 42.9952 54.2799C42.9952 54.9839 42.9952 55.7519 43.1232 56.4559L43.4432 58.5679L43.5712 59.3359ZM21.2352 47.4959H22.1952C24.0512 47.4959 25.9072 47.3679 27.7632 47.3679H28.4032C28.9152 47.3679 29.4272 47.3039 29.9392 47.3039C30.7712 47.3039 31.6032 47.2399 32.4352 47.2399L32.3072 46.5999L31.7312 44.1039C31.6672 43.9119 31.7312 43.7199 31.6672 43.5279L31.5392 42.8879L31.0912 40.8399C31.0272 40.6479 31.0912 40.3919 31.0272 40.1999L30.6432 38.4079C30.5792 38.2159 30.6432 37.9599 30.5792 37.7679L30.3872 36.8719L30.0672 35.3359L29.6192 32.5199C29.5552 32.0079 29.4272 31.4959 29.3632 30.9839L29.2352 29.7679C29.1072 28.8079 28.9152 27.7199 28.9152 26.6319C28.9152 25.4159 28.5312 24.1359 28.5312 22.9199L28.4032 22.0879C28.2752 21.3839 27.9552 20.7439 27.4432 20.2319L26.6752 22.6639L26.4832 23.3039L26.2272 24.1999L26.0992 24.7759L25.6512 26.2479L25.2672 27.7199L25.0112 28.6159L24.8192 29.1919C24.8192 29.4479 24.6272 29.8959 24.5632 30.1519L24.3712 30.7279C24.1792 31.3039 23.6672 33.0319 23.6672 34.7599L23.5392 35.6559L22.8992 39.3679L22.7072 40.2639L22.3872 41.7999L22.0672 43.3999L21.6832 45.2559L21.2352 47.4959Z" fill="#6D16CF"/>
<path d="M383.808 25.7359C382.144 34.9519 381.056 39.8159 380.16 48.3919C379.904 48.7759 379.392 48.9679 378.56 48.9039C378.048 48.9039 377.6 48.7759 377.024 48.7759L373.824 48.3919C373.12 47.9439 372.992 45.4479 373.056 42.1839L373.376 15.2399C373.568 14.1519 374.912 14.4079 375.68 14.4079C376.064 14.4719 376.448 14.5359 376.832 14.5359C379.584 14.7279 382.4 14.7279 385.088 14.8559C385.344 15.4319 385.408 16.1999 385.408 17.1599C385.344 17.3519 385.344 17.6079 385.28 17.9279L383.808 25.7359ZM370.112 58.0559C369.984 59.9119 371.776 61.5759 374.08 61.7039H374.336C375.616 61.7679 377.152 61.7679 377.856 61.7039C379.904 61.8319 381.76 59.9759 381.888 57.4799L381.952 56.9039C382.08 54.4719 380.352 52.4879 378.176 52.3599H377.92C377.024 52.2959 375.296 52.2959 374.272 52.3599C372.16 52.2959 370.24 54.5359 370.112 57.4159V58.0559Z" stroke="#FCF8DA" stroke-width="18" mask="url(#path-1-outside-1_260_56)"/>
<path d="M340.378 60.3599V52.8079L340.634 52.4239L341.21 51.2079L341.658 50.2479L342.17 49.2239C342.426 48.7119 342.874 48.1999 343.386 47.7519L343.834 46.9199C344.474 45.7679 345.05 44.5519 345.626 43.3359L346.266 41.9919C346.65 41.1599 347.034 40.5199 347.354 39.6239L347.738 38.5999L348.826 36.1039L349.466 34.5679L349.914 33.4799L350.618 31.8799L352.026 28.5519C352.41 27.5919 352.858 26.6319 353.306 25.6719L353.818 24.5199L354.97 22.0879C355.226 21.7039 355.29 21.2559 355.546 20.8719H355.098C354.778 20.8719 354.522 20.9359 354.202 20.9359H352.858C352.41 20.9359 351.898 20.9999 351.386 20.9999C349.914 20.9999 348.57 21.0639 346.778 21.0639H343.834C340.122 21.0639 341.274 20.7439 340.25 20.5519L339.482 16.7759C339.482 15.4319 339.674 13.6399 340.442 12.1039H342.17C342.938 12.1039 343.642 12.1679 344.41 12.1679H347.29C348.442 12.1679 349.53 12.2319 350.682 12.2319L367.77 12.4239L367.514 14.0239L367.258 15.5599L366.746 18.6959C366.426 19.0159 365.722 20.1039 365.082 21.5119L364.186 23.4319L362.842 26.3759L362.138 27.8479L360.474 31.3679L359.706 32.9039L358.49 35.4639L357.786 36.9999L356.762 39.0479L355.546 41.7359L353.882 44.3599L352.986 46.5359L352.218 48.1999L350.874 51.5279L350.618 52.1039H351.514C351.834 52.1039 352.09 52.0399 352.346 52.0399C352.922 52.0399 353.498 51.9759 354.074 51.9759C356.378 51.8479 358.362 51.7839 360.154 51.7839H361.69C363.93 51.7839 365.85 51.5919 367.386 51.5919C367.706 51.5919 368.026 51.5279 368.282 51.5279C368.41 52.1679 368.538 53.0639 368.602 54.2799C368.602 55.9439 368.538 57.6079 368.538 59.2719V60.3599H365.594C362.842 60.3599 360.282 60.2319 357.53 60.2319H354.97C353.754 60.2319 352.538 60.2959 351.322 60.2959H349.082C348.57 60.2959 347.93 60.3599 347.418 60.3599H340.378Z" stroke="#FCF8DA" stroke-width="18" mask="url(#path-1-outside-1_260_56)"/>
<path d="M305.939 71.8799L305.811 70.664L305.299 66.888C306.707 65.096 307.027 63.752 308.179 61.576L309.523 59.08L310.995 56.2C311.187 55.816 311.315 55.304 326.419 33.2879L327.123 32.2639L327.507 31.7519C326.227 31.7519 323.539 31.8799 322.067 31.8799H320.467C318.931 31.8799 316.499 31.6239 310.931 31.6239H308.051C307.539 31.6239 307.027 31.5599 306.451 31.5599L305.683 27.6559C305.683 27.6559 305.619 22.9839 307.347 22.9839C308.051 22.9839 308.691 23.0479 309.395 23.0479H312.915C314.515 23.0479 316.179 23.1119 317.779 23.1119C318.483 23.1119 319.123 23.1759 319.827 23.1759C325.651 23.3039 331.411 23.2399 337.235 23.368C337.235 25.4159 337.427 27.528 337.427 29.5759C337.299 29.8319 336.851 32.5199 336.403 33.4159H336.211C335.891 33.7359 335.635 34.1199 335.315 34.5039L334.355 35.7839L332.819 38.216L331.859 39.8159C331.283 40.7759 330.067 41.2879 318.739 59.5919L317.907 60.936L316.179 63.624L315.731 64.264C316.499 64.264 317.267 64.2 318.035 64.2L331.027 63.816C334.163 63.752 337.299 63.7519 340.435 63.4959H341.715C342.739 63.4959 343.827 63.368 344.851 63.368C344.979 64.008 345.107 64.9679 345.171 66.1199C345.171 67.9759 345.107 69.7039 345.107 71.5599V72.1999H343.187C342.355 72.1999 341.459 72.264 340.627 72.264C338.195 72.264 335.699 72.136 333.267 72.136H330.387C329.683 72.136 328.915 72.0719 328.211 72.0719H326.803C322.003 72.0719 317.139 71.944 312.403 71.944H311.123C310.483 71.944 309.779 71.8799 309.139 71.8799H305.939Z" stroke="#FCF8DA" stroke-width="18" mask="url(#path-1-outside-1_260_56)"/>
<path d="M303.509 59.3359C303.637 60.2319 303.701 59.6559 294.229 60.5519C294.037 59.2079 293.461 58.1199 293.461 56.4559V55.4319C293.461 54.4719 293.333 53.5119 293.077 52.5519H292.693C292.565 52.5519 292.437 52.6159 292.309 52.6159H291.221C290.837 52.6159 290.517 52.6799 290.133 52.6799L286.741 52.7439C285.525 52.7439 284.245 52.7439 283.029 52.8719L281.557 52.9999C280.277 53.1279 280.469 54.1519 280.405 55.2399L280.213 57.5439C280.277 57.5439 280.469 61.1279 277.589 60.9359L275.733 60.8079L274.069 60.6159C273.749 60.1039 273.621 59.3999 273.621 58.8239C273.621 58.1199 273.813 57.2879 273.941 56.5839L274.389 54.4079L274.901 51.0159L275.029 50.2479C275.157 49.3519 275.349 48.5199 275.541 47.6239L275.669 46.9199L276.245 43.9119L276.437 42.7599L276.693 41.7359L277.333 38.8559L277.717 36.6799L277.845 35.5919L278.037 34.4399L278.421 32.2639L279.125 29.7039L279.765 27.5279L280.341 25.3519C280.469 24.9679 280.469 24.6479 280.597 24.2639L280.917 23.1759C281.109 22.4719 281.749 20.4879 281.749 19.6559C281.749 19.0159 281.429 18.8879 280.853 18.8879H279.957C277.973 18.8879 275.733 19.2719 273.557 19.2719C272.533 19.2719 271.573 19.2079 270.549 19.2079C269.589 19.2079 269.013 19.4639 269.013 18.1839L269.397 13.3839C269.461 12.7439 269.461 12.1679 270.101 12.1679C270.741 12.2959 271.445 12.2959 272.149 12.2959C274.005 12.2959 276.757 12.0399 278.997 12.0399H280.789C281.173 12.0399 281.493 12.1039 281.877 12.1039H283.733C284.885 12.1039 285.973 11.9759 287.061 11.8479L290.389 11.4639C291.413 11.3359 292.629 11.2079 293.717 11.2079H294.869C295.125 11.2719 295.573 11.2719 296.085 11.2719C296.789 11.2719 298.005 11.2079 299.285 11.2079C300.117 11.2079 301.077 11.1439 302.037 11.1439C302.933 11.1439 303.893 11.0799 304.789 11.0159L308.437 10.8239C308.437 12.5519 308.949 17.9919 306.453 18.5679L304.021 18.8239C302.677 18.9519 301.333 19.0159 299.989 19.0159C299.029 19.0159 297.493 18.9519 297.237 19.2079C297.237 19.3359 297.301 19.4639 297.301 19.5919L297.813 21.8319L298.197 23.6239L298.453 24.7759L298.709 25.8639L299.029 27.7199L299.285 29.5119L299.413 31.0479C299.541 32.6479 299.413 35.2719 299.733 37.3199L300.117 39.8799L300.629 42.0559L300.821 42.7599L301.589 44.9359C301.717 45.3199 301.781 45.7039 301.909 46.0239L302.165 47.1119C302.421 48.1999 302.677 49.3519 302.869 50.4399L302.997 51.2079C303.061 51.3999 303.125 51.6559 303.125 51.8479C303.125 52.6799 302.933 53.4479 302.933 54.2799C302.933 54.9839 302.933 55.7519 303.061 56.4559L303.381 58.5679L303.509 59.3359ZM281.173 47.4959H282.133C283.989 47.4959 285.845 47.3679 287.701 47.3679H288.341C288.853 47.3679 289.365 47.3039 289.877 47.3039C290.709 47.3039 291.541 47.2399 292.373 47.2399L292.245 46.5999L291.669 44.1039C291.605 43.9119 291.669 43.7199 291.605 43.5279L291.477 42.8879L291.029 40.8399C290.965 40.6479 291.029 40.3919 290.965 40.1999L290.581 38.4079C290.517 38.2159 290.581 37.9599 290.517 37.7679L290.325 36.8719L290.005 35.3359L289.557 32.5199C289.493 32.0079 289.365 31.4959 289.301 30.9839L289.173 29.7679C289.045 28.8079 288.853 27.7199 288.853 26.6319C288.853 25.4159 288.469 24.1359 288.469 22.9199L288.341 22.0879C288.213 21.3839 287.893 20.7439 287.381 20.2319L286.613 22.6639L286.421 23.3039L286.165 24.1999L286.037 24.7759L285.589 26.2479L285.205 27.7199L284.949 28.6159L284.757 29.1919C284.757 29.4479 284.565 29.8959 284.501 30.1519L284.309 30.7279C284.117 31.3039 283.605 33.0319 283.605 34.7599L283.477 35.6559L282.837 39.3679L282.645 40.2639L282.325 41.7999L282.005 43.3999L281.621 45.2559L281.173 47.4959Z" stroke="#FCF8DA" stroke-width="18" mask="url(#path-1-outside-1_260_56)"/>
<path d="M240.246 57.7999C240.246 56.9039 240.438 55.9439 240.438 55.0479C244.214 54.9199 247.99 55.0479 251.894 55.4319C251.83 57.2239 251.958 59.0159 252.406 60.9359C252.662 62.4079 253.494 64.0719 256.054 64.0719C259.894 64.0719 260.534 62.4079 260.854 60.1039V59.5919C260.854 57.9279 261.11 56.1359 261.11 54.4719V47.1119C261.11 45.2559 261.046 43.8479 260.982 42.1839L260.854 36.6159C260.79 35.0159 260.662 33.2879 260.662 31.6879V31.1119H260.086L255.67 31.3039C251.958 31.4959 248.246 31.5599 244.534 31.8159C244.278 31.8159 244.214 31.7519 244.15 31.4319L243.638 27.1439C243.638 23.8159 245.494 24.7119 248.118 24.5839C250.166 24.4559 252.278 24.4559 254.326 24.3279L265.078 23.8159C265.654 23.8159 266.166 23.7519 266.742 23.7519L270.134 23.6239C270.262 24.5199 270.454 25.6719 270.454 26.9519V27.5279C270.454 28.8719 270.582 30.2159 270.582 31.5599C270.582 31.9439 270.646 32.3279 270.646 32.7119V33.8639C270.646 34.8239 270.71 35.7199 270.71 36.6799C270.71 37.0639 270.774 37.4479 270.774 37.8319V38.9839C270.774 40.3279 270.838 41.6079 270.838 42.9519V45.1279C270.838 46.2159 270.902 47.3039 270.902 48.3919V50.0559C270.902 50.8879 270.966 51.6559 270.966 52.4879V53.7039C270.966 54.0879 271.03 54.4079 271.03 54.7919V56.3279C271.03 57.9919 271.03 59.7199 270.774 61.3199L270.582 62.6639C269.878 67.5919 267.126 68.8079 263.798 69.4479L262.774 69.6399C260.598 70.0239 257.846 70.5359 255.478 70.5359C253.366 70.5359 251.19 70.5359 249.206 70.0879C244.982 69.1279 243.126 67.9759 241.782 65.3519L241.334 64.4559C241.078 63.9439 240.95 63.4959 240.822 62.9199L240.566 61.7679C240.31 60.4879 240.246 59.2079 240.246 57.7999Z" stroke="#FCF8DA" stroke-width="18" mask="url(#path-1-outside-1_260_56)"/>
<path d="M209.392 23.3679C212.912 23.3679 214 23.2399 218.672 23.2399V32.5199C218.16 32.5839 217.584 32.5839 216.88 32.5839H215.6C215.28 32.5839 215.088 32.5199 214.704 32.5199H214C211.696 32.5199 211.248 32.5839 209.648 32.5839V40.9039C209.648 42.5679 209.712 44.1039 209.712 45.5759V46.6639C209.712 53.1279 210.16 55.8159 209.968 62.2159C209.84 62.2159 208.048 62.8559 204.656 62.9199C201.392 62.9839 200.112 62.9199 200.112 62.2159C200.112 60.6799 200.24 59.2719 200.24 57.7359C200.24 56.4559 200.368 55.1119 200.368 53.7679C200.368 52.8719 200.432 52.1039 200.432 51.1439C200.432 50.6959 200.496 50.1839 200.496 49.6719V42.1839C200.496 40.8399 200.432 39.7519 200.432 38.5359V36.6799C200.432 35.8479 200.496 35.0159 200.496 34.1839V33.5439C199.024 33.4159 198.192 33.4799 196.848 33.3519C196.4 33.3519 190.704 34.0559 190.704 31.0479C190.896 29.3199 190.768 26.2479 191.152 24.3919L191.344 23.4319C191.6 23.2399 192.176 23.1119 192.88 23.1119H195.12C195.824 23.1119 196.528 23.1759 197.232 23.1759C201.008 23.1759 204.08 23.3679 209.392 23.3679Z" stroke="#FCF8DA" stroke-width="18" mask="url(#path-1-outside-1_260_56)"/>
<path d="M187.634 59.3359C187.762 60.2319 187.826 59.6559 178.354 60.5519C178.162 59.2079 177.586 58.1199 177.586 56.4559V55.4319C177.586 54.4719 177.458 53.5119 177.202 52.5519H176.818C176.69 52.5519 176.562 52.6159 176.434 52.6159H175.346C174.962 52.6159 174.642 52.6799 174.258 52.6799L170.866 52.7439C169.65 52.7439 168.37 52.7439 167.154 52.8719L165.682 52.9999C164.402 53.1279 164.594 54.1519 164.53 55.2399L164.338 57.5439C164.402 57.5439 164.594 61.1279 161.714 60.9359L159.858 60.8079L158.194 60.6159C157.874 60.1039 157.746 59.3999 157.746 58.8239C157.746 58.1199 157.938 57.2879 158.066 56.5839L158.514 54.4079L159.026 51.0159L159.154 50.2479C159.282 49.3519 159.474 48.5199 159.666 47.6239L159.794 46.9199L160.37 43.9119L160.562 42.7599L160.818 41.7359L161.458 38.8559L161.842 36.6799L161.97 35.5919L162.162 34.4399L162.546 32.2639L163.25 29.7039L163.89 27.5279L164.466 25.3519C164.594 24.9679 164.594 24.6479 164.722 24.2639L165.042 23.1759C165.234 22.4719 165.874 20.4879 165.874 19.6559C165.874 19.0159 165.554 18.8879 164.978 18.8879H164.082C162.098 18.8879 159.858 19.2719 157.682 19.2719C156.658 19.2719 155.698 19.2079 154.674 19.2079C153.714 19.2079 153.138 19.4639 153.138 18.1839L153.522 13.3839C153.586 12.7439 153.586 12.1679 154.226 12.1679C154.866 12.2959 155.57 12.2959 156.274 12.2959C158.13 12.2959 160.882 12.0399 163.122 12.0399H164.914C165.298 12.0399 165.618 12.1039 166.002 12.1039H167.858C169.01 12.1039 170.098 11.9759 171.186 11.8479L174.514 11.4639C175.538 11.3359 176.754 11.2079 177.842 11.2079H178.994C179.25 11.2719 179.698 11.2719 180.21 11.2719C180.914 11.2719 182.13 11.2079 183.41 11.2079C184.242 11.2079 185.202 11.1439 186.162 11.1439C187.058 11.1439 188.018 11.0799 188.914 11.0159L192.562 10.8239C192.562 12.5519 193.074 17.9919 190.578 18.5679L188.146 18.8239C186.802 18.9519 185.458 19.0159 184.114 19.0159C183.154 19.0159 181.618 18.9519 181.362 19.2079C181.362 19.3359 181.426 19.4639 181.426 19.5919L181.938 21.8319L182.322 23.6239L182.578 24.7759L182.834 25.8639L183.154 27.7199L183.41 29.5119L183.538 31.0479C183.666 32.6479 183.538 35.2719 183.858 37.3199L184.242 39.8799L184.754 42.0559L184.946 42.7599L185.714 44.9359C185.842 45.3199 185.906 45.7039 186.034 46.0239L186.29 47.1119C186.546 48.1999 186.802 49.3519 186.994 50.4399L187.122 51.2079C187.186 51.3999 187.25 51.6559 187.25 51.8479C187.25 52.6799 187.058 53.4479 187.058 54.2799C187.058 54.9839 187.058 55.7519 187.186 56.4559L187.506 58.5679L187.634 59.3359ZM165.298 47.4959H166.258C168.114 47.4959 169.97 47.3679 171.826 47.3679H172.466C172.978 47.3679 173.49 47.3039 174.002 47.3039C174.834 47.3039 175.666 47.2399 176.498 47.2399L176.37 46.5999L175.794 44.1039C175.73 43.9119 175.794 43.7199 175.73 43.5279L175.602 42.8879L175.154 40.8399C175.09 40.6479 175.154 40.3919 175.09 40.1999L174.706 38.4079C174.642 38.2159 174.706 37.9599 174.642 37.7679L174.45 36.8719L174.13 35.3359L173.682 32.5199C173.618 32.0079 173.49 31.4959 173.426 30.9839L173.298 29.7679C173.17 28.8079 172.978 27.7199 172.978 26.6319C172.978 25.4159 172.594 24.1359 172.594 22.9199L172.466 22.0879C172.338 21.3839 172.018 20.7439 171.506 20.2319L170.738 22.6639L170.546 23.3039L170.29 24.1999L170.162 24.7759L169.714 26.2479L169.33 27.7199L169.074 28.6159L168.882 29.1919C168.882 29.4479 168.69 29.8959 168.626 30.1519L168.434 30.7279C168.242 31.3039 167.73 33.0319 167.73 34.7599L167.602 35.6559L166.962 39.3679L166.77 40.2639L166.45 41.7999L166.13 43.3999L165.746 45.2559L165.298 47.4959Z" stroke="#FCF8DA" stroke-width="18" mask="url(#path-1-outside-1_260_56)"/>
<path d="M152.711 23.1119C153.671 23.1119 153.415 23.1119 153.479 24.2639L153.671 26.8879V27.9759C153.671 28.2959 153.735 28.6159 153.735 28.9999V39.0479C153.735 40.1359 153.671 41.0959 153.671 42.1839C153.671 43.0159 153.607 43.9119 153.607 44.7439C153.607 46.0239 153.479 47.2399 153.479 48.5199V50.5679C153.479 51.2719 153.415 52.0399 153.415 52.7439C153.415 53.1279 153.351 53.5119 153.351 53.8959C153.351 54.2799 153.287 54.6639 153.287 55.0479C153.287 55.8159 153.223 56.5839 153.223 57.4159V58.6959C153.223 59.9759 153.159 61.2559 153.031 62.5999C153.031 63.5599 152.967 64.4559 152.967 65.4159C152.967 65.8639 152.903 66.3119 152.903 66.8239C152.903 69.7039 152.263 69.4479 150.599 69.4479C150.087 69.3839 144.583 69.3199 144.583 68.6799V66.3759C144.583 62.8559 144.711 59.3359 144.711 55.8159V54.7279C144.711 54.2159 144.647 53.7039 144.647 53.1919V52.2319C144.647 51.5279 144.583 50.9519 144.583 50.3119C144.455 50.3119 144.391 50.2479 144.263 50.2479H143.815C142.407 50.0559 140.487 49.9279 139.143 49.9279H138.247C137.479 49.9279 136.711 49.8639 136.071 50.1839C135.623 50.8239 135.687 52.4239 135.687 54.7919C135.687 55.4319 135.751 56.0719 135.751 56.7759V59.2719C135.751 60.1039 135.815 60.9359 135.815 61.7679V62.7279C135.815 63.3679 135.559 64.0079 135.239 64.4559L128.647 64.6479C127.879 64.6479 126.727 64.9679 126.727 63.3679V62.6639C126.727 62.6639 126.663 62.5359 126.663 62.2799C126.663 62.1519 126.663 61.8959 126.727 61.5759C126.727 60.9359 126.663 60.2319 126.663 59.5279C126.663 59.2079 126.599 58.8239 126.599 58.4399C126.599 53.7679 126.343 48.3279 126.343 41.5439V38.0239C125.255 38.3439 124.423 38.4719 124.359 38.1519L124.039 31.1759C123.975 30.4079 124.103 29.5119 124.295 28.8079C124.807 28.8079 125.319 28.7439 125.831 28.7439C127.687 28.7439 129.607 28.4879 131.463 28.4879H135.175C136.455 29.1279 136.263 33.8639 136.263 36.8079C136.263 38.2159 136.327 39.5599 136.327 40.7119V41.4799C136.327 42.8879 137.223 42.5679 138.887 42.5679H139.719C140.295 42.5679 140.871 42.5679 141.511 42.5039C141.703 42.5039 141.895 42.5679 142.087 42.5679C142.471 42.5679 142.791 42.5039 143.111 42.5039C144.007 42.4399 143.879 40.5199 143.879 39.3679V37.4479C143.879 36.8079 143.943 36.1679 143.943 35.5919C143.943 34.7599 144.007 34.0559 144.007 33.2879V31.6239L144.071 25.4159C144.327 22.3439 149.127 22.5999 152.711 23.1119Z" stroke="#FCF8DA" stroke-width="18" mask="url(#path-1-outside-1_260_56)"/>
<path d="M133.17 18.7599C132.466 18.8239 131.634 18.8239 130.674 18.8239C129.65 18.8239 130.482 18.7599 127.474 18.7599H124.274C123.058 18.7599 121.778 18.8239 120.562 18.8239V28.7439C120.562 29.3199 120.626 29.9599 120.626 30.5359V36.2959C120.626 36.6799 120.69 36.9999 120.69 37.3839V40.1999C120.69 41.1599 120.754 42.0559 120.754 43.0159C120.754 43.5919 120.818 44.1039 120.818 44.6799V45.7679C120.818 46.3439 120.882 46.8559 120.882 47.3679V48.4559C120.882 48.9679 120.946 49.5439 120.946 50.0559V51.2079C120.946 51.7839 121.01 52.2959 121.01 52.8719V54.5999C121.01 56.1359 121.074 57.6079 121.074 59.0799C121.074 60.3599 116.146 60.2959 114.546 60.2959C113.778 60.2959 111.026 61.3199 111.026 57.8639V56.3279C111.026 54.5359 111.154 52.4879 111.154 50.5679V49.3519C111.154 47.0479 111.346 44.8079 111.346 42.5039V41.2879C111.346 39.7519 111.41 38.2159 111.41 36.6799V23.0479C111.41 21.8959 111.474 20.7439 111.474 19.6559V19.1439C110.258 19.1439 109.17 19.0159 108.018 18.9519L105.458 18.8239C104.242 18.7599 103.026 18.8239 101.426 18.6959C99.6977 18.6959 100.146 17.4799 100.146 16.6479C100.338 13.9599 99.5057 9.99194 102.386 9.99194H104.306C109.042 9.99194 113.266 10.2479 119.538 10.2479H123.698C127.794 10.2479 129.906 10.1199 133.17 10.1199V18.7599Z" stroke="#FCF8DA" stroke-width="18" mask="url(#path-1-outside-1_260_56)"/>
<path d="M62.9437 12.1039C65.9517 11.7199 68.8957 11.3999 71.9037 10.9519C72.1597 13.6399 72.0957 15.9439 72.4157 18.3119C72.5437 19.5279 72.5437 20.6799 72.5437 21.8959C72.5437 23.1119 72.4157 24.3919 72.4157 25.6079C72.4157 27.5919 72.5437 29.7679 72.6717 31.7519C72.9917 36.5519 72.4797 39.6239 72.4797 44.0399V45.8319C72.4797 46.4079 72.4157 46.9839 72.4157 47.6239V53.3839C72.6717 53.5119 72.8637 53.6399 73.1197 53.7039C74.0797 54.0239 75.0397 53.8959 75.9997 53.7679C77.2157 53.5759 78.6237 53.3839 79.9037 53.3839C82.0797 53.3199 84.3837 53.3839 86.3677 53.4479C87.3277 53.4479 88.3517 53.3839 89.3757 53.2559C89.3757 53.6399 89.5677 55.1119 89.5677 55.6879C89.5677 57.6079 89.7597 60.6799 88.4797 60.9359C87.0717 60.9359 85.7277 60.8079 84.1277 60.8079C81.2477 60.8079 78.6237 61.2559 75.9357 61.2559H75.1037C74.5917 61.2559 74.0797 61.3199 73.5037 61.3199H71.8397C70.8157 61.5119 64.4797 61.7679 63.3917 61.5119C63.5197 60.6799 63.6477 59.8479 63.6477 58.9519V56.0079C63.6477 54.3439 63.5837 52.4879 63.5837 50.8879V37.1279C63.5197 36.4879 63.4557 35.7839 63.4557 35.0799V32.7759C63.4557 31.9439 63.5197 31.1759 63.5197 30.3439V27.1439C63.5197 26.6319 63.4557 26.0559 63.4557 25.5439V24.7119C63.4557 20.4879 63.0717 16.3279 62.9437 12.1039Z" stroke="#FCF8DA" stroke-width="18" mask="url(#path-1-outside-1_260_56)"/>
<path d="M59.3138 27.2079C59.3138 28.0399 59.2497 28.9359 59.2497 30.0239V30.6639C59.2497 31.1119 59.1858 31.4959 59.1858 31.9439L58.9938 35.0799C58.8658 36.7439 58.7378 38.5359 58.6738 40.1999L58.3538 45.8959C58.2898 46.5359 58.3537 47.1759 58.2897 47.8159C58.1617 49.4799 58.1617 51.2079 57.9697 52.8719V54.4719C57.9697 56.4559 57.6497 59.8479 57.6497 61.8959L58.1618 65.7999C58.2898 65.7999 58.9297 65.8639 59.5697 65.8639H60.9778C61.5538 65.8639 62.1298 65.9279 62.8978 65.9279C63.4097 65.8639 63.9217 65.7999 64.4977 65.7999H66.7377C67.9537 65.7999 67.6338 65.8639 68.0178 65.8639H69.7458C70.5778 65.8639 71.8578 65.9919 74.1618 65.9919L72.8177 73.4799C71.7937 73.4799 71.1538 73.5439 70.5778 73.5439H63.7937C58.6097 73.5439 60.5938 73.0959 53.9378 73.0959C52.8498 73.0959 51.6337 73.2239 50.6097 73.2239C50.2257 73.2239 49.9058 73.1599 49.5218 73.1599C49.0738 73.1599 48.6898 73.2879 48.3698 73.2879C48.1778 73.2879 48.0498 73.2239 47.9218 73.1599C48.3058 71.0479 48.3698 68.4879 48.3698 65.9279C48.3698 65.4799 48.4337 65.0319 48.4337 64.5839V54.9199C48.4337 53.6399 48.4977 52.2319 48.4977 50.9519V46.5359C48.4977 45.3839 48.3698 43.1439 48.3698 42.3119V38.4719C48.3698 37.6399 48.4337 36.6799 48.4337 35.6559V34.3759C48.4337 32.7759 48.4977 31.1759 48.4977 29.5119V27.5919C48.4977 26.6319 48.5618 25.4799 48.5618 24.4559V23.3039C48.1138 22.7279 57.5217 23.4319 58.9297 23.4319L59.3138 27.2079Z" stroke="#FCF8DA" stroke-width="18" mask="url(#path-1-outside-1_260_56)"/>
<path d="M43.5712 59.3359C43.6992 60.2319 43.7632 59.6559 34.2912 60.5519C34.0992 59.2079 33.5232 58.1199 33.5232 56.4559V55.4319C33.5232 54.4719 33.3952 53.5119 33.1392 52.5519H32.7552C32.6272 52.5519 32.4992 52.6159 32.3712 52.6159H31.2832C30.8992 52.6159 30.5792 52.6799 30.1952 52.6799L26.8032 52.7439C25.5872 52.7439 24.3072 52.7439 23.0912 52.8719L21.6192 52.9999C20.3392 53.1279 20.5312 54.1519 20.4672 55.2399L20.2752 57.5439C20.3392 57.5439 20.5312 61.1279 17.6512 60.9359L15.7952 60.8079L14.1312 60.6159C13.8112 60.1039 13.6832 59.3999 13.6832 58.8239C13.6832 58.1199 13.8752 57.2879 14.0032 56.5839L14.4512 54.4079L14.9632 51.0159L15.0912 50.2479C15.2192 49.3519 15.4112 48.5199 15.6032 47.6239L15.7312 46.9199L16.3072 43.9119L16.4992 42.7599L16.7552 41.7359L17.3952 38.8559L17.7792 36.6799L17.9072 35.5919L18.0992 34.4399L18.4832 32.2639L19.1872 29.7039L19.8272 27.5279L20.4032 25.3519C20.5312 24.9679 20.5312 24.6479 20.6592 24.2639L20.9792 23.1759C21.1712 22.4719 21.8112 20.4879 21.8112 19.6559C21.8112 19.0159 21.4912 18.8879 20.9152 18.8879H20.0192C18.0352 18.8879 15.7952 19.2719 13.6192 19.2719C12.5952 19.2719 11.6352 19.2079 10.6112 19.2079C9.6512 19.2079 9.0752 19.4639 9.0752 18.1839L9.4592 13.3839C9.5232 12.7439 9.5232 12.1679 10.1632 12.1679C10.8032 12.2959 11.5072 12.2959 12.2112 12.2959C14.0672 12.2959 16.8192 12.0399 19.0592 12.0399H20.8512C21.2352 12.0399 21.5552 12.1039 21.9392 12.1039H23.7952C24.9472 12.1039 26.0352 11.9759 27.1232 11.8479L30.4512 11.4639C31.4752 11.3359 32.6912 11.2079 33.7792 11.2079H34.9312C35.1872 11.2719 35.6352 11.2719 36.1472 11.2719C36.8512 11.2719 38.0672 11.2079 39.3472 11.2079C40.1792 11.2079 41.1392 11.1439 42.0992 11.1439C42.9952 11.1439 43.9552 11.0799 44.8512 11.0159L48.4992 10.8239C48.4992 12.5519 49.0112 17.9919 46.5152 18.5679L44.0832 18.8239C42.7392 18.9519 41.3952 19.0159 40.0512 19.0159C39.0912 19.0159 37.5552 18.9519 37.2992 19.2079C37.2992 19.3359 37.3632 19.4639 37.3632 19.5919L37.8752 21.8319L38.2592 23.6239L38.5152 24.7759L38.7712 25.8639L39.0912 27.7199L39.3472 29.5119L39.4752 31.0479C39.6032 32.6479 39.4752 35.2719 39.7952 37.3199L40.1792 39.8799L40.6912 42.0559L40.8832 42.7599L41.6512 44.9359C41.7792 45.3199 41.8432 45.7039 41.9712 46.0239L42.2272 47.1119C42.4832 48.1999 42.7392 49.3519 42.9312 50.4399L43.0592 51.2079C43.1232 51.3999 43.1872 51.6559 43.1872 51.8479C43.1872 52.6799 42.9952 53.4479 42.9952 54.2799C42.9952 54.9839 42.9952 55.7519 43.1232 56.4559L43.4432 58.5679L43.5712 59.3359ZM21.2352 47.4959H22.1952C24.0512 47.4959 25.9072 47.3679 27.7632 47.3679H28.4032C28.9152 47.3679 29.4272 47.3039 29.9392 47.3039C30.7712 47.3039 31.6032 47.2399 32.4352 47.2399L32.3072 46.5999L31.7312 44.1039C31.6672 43.9119 31.7312 43.7199 31.6672 43.5279L31.5392 42.8879L31.0912 40.8399C31.0272 40.6479 31.0912 40.3919 31.0272 40.1999L30.6432 38.4079C30.5792 38.2159 30.6432 37.9599 30.5792 37.7679L30.3872 36.8719L30.0672 35.3359L29.6192 32.5199C29.5552 32.0079 29.4272 31.4959 29.3632 30.9839L29.2352 29.7679C29.1072 28.8079 28.9152 27.7199 28.9152 26.6319C28.9152 25.4159 28.5312 24.1359 28.5312 22.9199L28.4032 22.0879C28.2752 21.3839 27.9552 20.7439 27.4432 20.2319L26.6752 22.6639L26.4832 23.3039L26.2272 24.1999L26.0992 24.7759L25.6512 26.2479L25.2672 27.7199L25.0112 28.6159L24.8192 29.1919C24.8192 29.4479 24.6272 29.8959 24.5632 30.1519L24.3712 30.7279C24.1792 31.3039 23.6672 33.0319 23.6672 34.7599L23.5392 35.6559L22.8992 39.3679L22.7072 40.2639L22.3872 41.7999L22.0672 43.3999L21.6832 45.2559L21.2352 47.4959Z" stroke="#FCF8DA" stroke-width="18" mask="url(#path-1-outside-1_260_56)"/>
</svg>
