<svg width="351" height="224" viewBox="0 0 351 224" fill="none" xmlns="http://www.w3.org/2000/svg">
<g filter="url(#filter0_d_256_398)">
<path d="M57.3309 19.53C56.5375 19.53 55.9709 19.275 55.6309 18.765C55.4042 18.4817 55.2909 18.1133 55.2909 17.66C55.2909 16.7533 55.7442 16.0167 56.6509 15.45C57.1609 15.11 57.7275 14.94 58.3509 14.94C59.1442 14.94 59.7109 15.195 60.0509 15.705C60.2775 15.9883 60.3909 16.3567 60.3909 16.81C60.3909 17.7167 59.9375 18.4533 59.0309 19.02C58.5209 19.36 57.9542 19.53 57.3309 19.53ZM16.7009 81.75C14.5475 81.75 12.4792 81.24 10.4959 80.22C8.45586 79.2567 6.95419 77.755 5.99086 75.715C5.65086 74.9783 5.42419 74.185 5.31086 73.335C5.19752 72.5417 5.14086 71.7483 5.14086 70.955V70.02C5.14086 69.5667 5.19752 69.1417 5.31086 68.745C5.42419 68.405 5.70752 68.235 6.16086 68.235C6.33086 68.235 6.41586 68.2917 6.41586 68.405C6.41586 68.745 6.38752 69.085 6.33086 69.425C6.21752 69.765 6.16086 70.1333 6.16086 70.53C6.16086 73.1367 7.01086 75.12 8.71086 76.48C10.3542 77.84 12.4225 78.52 14.9159 78.52C15.9359 78.52 16.9842 78.4067 18.0609 78.18C19.1375 77.9533 20.1575 77.6417 21.1209 77.245C24.6909 75.715 27.8075 73.5333 30.4709 70.7C33.0775 67.9233 35.3725 64.7783 37.3559 61.265C39.3392 57.7517 41.1242 54.1817 42.7109 50.555C44.0709 47.3817 45.2042 44.4067 46.1109 41.63C47.0175 38.8533 47.7259 36.5583 48.2359 34.745C48.8025 32.9317 49.1709 31.94 49.3409 31.77C50.2475 30.8633 51.4375 30.1267 52.9109 29.56C54.3842 28.9367 55.5459 28.625 56.3959 28.625C57.0759 28.625 57.4159 28.795 57.4159 29.135C57.4159 29.5883 57.1609 29.815 56.6509 29.815C56.0275 29.815 55.4609 29.985 54.9509 30.325C54.4409 30.6083 54.0442 30.9767 53.7609 31.43C53.2509 32.1667 52.5142 33.4983 51.5509 35.425C50.6442 37.3517 49.6242 39.59 48.4909 42.14C47.4142 44.6333 46.3375 47.1833 45.2609 49.79C44.1842 52.34 43.1925 54.6917 42.2859 56.845C40.9259 60.075 39.3959 63.22 37.6959 66.28C35.9392 69.3967 33.8709 72.1733 31.4909 74.61C29.1109 77.1033 26.3059 79.0583 23.0759 80.475C21.1492 81.325 19.0242 81.75 16.7009 81.75ZM87.9109 52.255C87.3443 52.255 86.8626 52.1417 86.4659 51.915C86.0693 51.6883 85.8709 51.2633 85.8709 50.64C85.8709 49.8467 86.0693 48.94 86.4659 47.92C86.8626 46.9 87.3159 45.9083 87.8259 44.945C88.3359 43.925 88.7893 43.1033 89.1859 42.48C87.2026 44.5767 85.1343 46.56 82.9809 48.43C81.9043 49.3367 80.7143 50.1867 79.4109 50.98C78.1076 51.7733 76.7193 52.17 75.2459 52.17C74.6793 52.17 74.2826 52 74.0559 51.66C73.8293 51.2633 73.7159 50.81 73.7159 50.3C73.7159 50.0167 73.7443 49.8183 73.8009 49.705C74.0843 47.495 74.7926 45.2 75.9259 42.82C77.0593 40.44 78.4476 38.2017 80.0909 36.105C81.7343 34.0083 83.4059 32.3083 85.1059 31.005C87.0326 29.5317 89.1576 28.795 91.4809 28.795H101.256C101.539 28.795 101.681 28.9083 101.681 29.135C101.681 29.5883 101.426 29.815 100.916 29.815C100.349 29.815 99.7826 30.1833 99.2159 30.92C98.6493 31.6 98.2243 32.1667 97.9409 32.62C97.5443 33.2433 96.9209 34.2917 96.0709 35.765C95.2209 37.2383 94.3426 38.8533 93.4359 40.61C92.5859 42.31 91.8493 43.8967 91.2259 45.37C90.6026 46.8433 90.2909 47.92 90.2909 48.6C90.2909 49.3933 90.6876 49.79 91.4809 49.79C92.3309 49.79 93.2943 49.3933 94.3709 48.6C95.4476 47.8067 96.5243 46.8433 97.6009 45.71C98.7343 44.52 99.7543 43.3583 100.661 42.225C101.624 41.035 102.389 40.1 102.956 39.42C103.296 39.76 103.268 40.2417 102.871 40.865C102.531 41.4317 102.219 41.885 101.936 42.225C100.803 43.6983 99.4993 45.2283 98.0259 46.815C96.5526 48.345 94.9376 49.6483 93.1809 50.725C91.4809 51.745 89.7243 52.255 87.9109 52.255ZM78.7309 49.28C79.4109 49.28 80.3459 48.7983 81.5359 47.835C82.7826 46.815 84.1143 45.5683 85.5309 44.095C86.9476 42.565 88.2793 40.9783 89.5259 39.335C90.7726 37.635 91.7926 36.105 92.5859 34.745C93.4359 33.3283 93.8609 32.2517 93.8609 31.515C93.8609 30.8917 93.6626 30.4667 93.2659 30.24C92.9259 30.0133 92.4726 29.9 91.9059 29.9C90.9993 29.9 90.0076 30.24 88.9309 30.92C87.9109 31.5433 87.0893 32.1667 86.4659 32.79C85.7859 33.4133 84.9643 34.405 84.0009 35.765C83.0943 37.0683 82.1876 38.5133 81.2809 40.1C80.3743 41.6867 79.6093 43.2167 78.9859 44.69C78.3626 46.1633 78.0509 47.3533 78.0509 48.26C78.0509 48.94 78.2776 49.28 78.7309 49.28ZM145.621 62.795C144.771 62.795 143.921 62.54 143.071 62.03C142.221 61.5767 141.145 60.6983 139.841 59.395C138.595 58.0917 136.838 56.165 134.571 53.615C133.325 52.1417 132.135 50.8383 131.001 49.705C129.925 48.5717 128.593 48.005 127.006 48.005C125.76 48.005 124.541 48.4017 123.351 49.195C122.161 49.9317 121.396 50.9233 121.056 52.17C121 52.51 120.915 52.8217 120.801 53.105C120.688 53.3883 120.546 53.6717 120.376 53.955C120.206 54.2383 119.923 54.38 119.526 54.38C119.243 54.38 118.988 54.2667 118.761 54.04C118.478 53.8133 118.336 53.5017 118.336 53.105C118.336 52.935 118.45 52.6233 118.676 52.17C118.96 51.66 119.498 50.98 120.291 50.13C121.085 49.2233 121.963 48.26 122.926 47.24C123.89 46.22 124.796 45.285 125.646 44.435C126.496 43.5283 127.176 42.8767 127.686 42.48C130.01 40.4967 132.163 38.5983 134.146 36.785C136.186 34.915 138.396 33.0167 140.776 31.09C140.04 31.09 139.02 31.1183 137.716 31.175C136.413 31.2317 135.025 31.3167 133.551 31.43C132.135 31.5433 130.888 31.7133 129.811 31.94C128.735 32.1667 128.055 32.4783 127.771 32.875C127.375 33.385 126.978 33.64 126.581 33.64C126.355 33.64 126.241 33.555 126.241 33.385C126.241 33.215 126.383 32.9883 126.666 32.705C127.176 32.1383 127.573 31.6 127.856 31.09C128.14 30.5233 128.423 29.985 128.706 29.475C129.33 29.5317 129.953 29.5883 130.576 29.645C131.2 29.645 131.851 29.645 132.531 29.645C134.231 29.645 135.96 29.6167 137.716 29.56C139.53 29.4467 141.201 29.39 142.731 29.39C143.241 29.39 143.638 29.7583 143.921 30.495C144.261 31.175 144.46 31.7133 144.516 32.11C142.59 33.5267 140.436 35.085 138.056 36.785C135.676 38.4283 133.353 40.1567 131.086 41.97C130.01 42.7633 128.763 43.8117 127.346 45.115C125.986 46.3617 124.825 47.3817 123.861 48.175C125.448 47.3817 126.921 46.985 128.281 46.985C130.095 46.985 131.71 47.58 133.126 48.77C134.6 49.96 136.186 51.3767 137.886 53.02C139.586 54.72 141.286 56.1933 142.986 57.44C144.686 58.6867 146.131 59.31 147.321 59.31C147.718 59.2533 148.115 59.1683 148.511 59.055C148.908 58.9417 149.248 58.7717 149.531 58.545C149.985 58.1483 150.211 57.695 150.211 57.185C150.211 56.5617 149.956 55.91 149.446 55.23C148.936 54.6067 148.483 54.1817 148.086 53.955C148.03 53.8983 148.001 53.8417 148.001 53.785C148.001 53.615 148.115 53.4733 148.341 53.36C148.568 53.2467 148.795 53.2467 149.021 53.36C149.758 53.7567 150.353 54.3233 150.806 55.06C151.26 55.7967 151.486 56.6183 151.486 57.525C151.486 58.4317 151.203 59.2817 150.636 60.075C150.126 60.8117 149.418 61.435 148.511 61.945C147.605 62.5117 146.641 62.795 145.621 62.795ZM186.793 62.795C185.943 62.795 185.093 62.54 184.243 62.03C183.393 61.5767 182.316 60.6983 181.013 59.395C179.766 58.0917 178.01 56.165 175.743 53.615C174.496 52.1417 173.306 50.8383 172.173 49.705C171.096 48.5717 169.765 48.005 168.178 48.005C166.931 48.005 165.713 48.4017 164.523 49.195C163.333 49.9317 162.568 50.9233 162.228 52.17C162.171 52.51 162.086 52.8217 161.973 53.105C161.86 53.3883 161.718 53.6717 161.548 53.955C161.378 54.2383 161.095 54.38 160.698 54.38C160.415 54.38 160.16 54.2667 159.933 54.04C159.65 53.8133 159.508 53.5017 159.508 53.105C159.508 52.935 159.621 52.6233 159.848 52.17C160.131 51.66 160.67 50.98 161.463 50.13C162.256 49.2233 163.135 48.26 164.098 47.24C165.061 46.22 165.968 45.285 166.818 44.435C167.668 43.5283 168.348 42.8767 168.858 42.48C171.181 40.4967 173.335 38.5983 175.318 36.785C177.358 34.915 179.568 33.0167 181.948 31.09C181.211 31.09 180.191 31.1183 178.888 31.175C177.585 31.2317 176.196 31.3167 174.723 31.43C173.306 31.5433 172.06 31.7133 170.983 31.94C169.906 32.1667 169.226 32.4783 168.943 32.875C168.546 33.385 168.15 33.64 167.753 33.64C167.526 33.64 167.413 33.555 167.413 33.385C167.413 33.215 167.555 32.9883 167.838 32.705C168.348 32.1383 168.745 31.6 169.028 31.09C169.311 30.5233 169.595 29.985 169.878 29.475C170.501 29.5317 171.125 29.5883 171.748 29.645C172.371 29.645 173.023 29.645 173.703 29.645C175.403 29.645 177.131 29.6167 178.888 29.56C180.701 29.4467 182.373 29.39 183.903 29.39C184.413 29.39 184.81 29.7583 185.093 30.495C185.433 31.175 185.631 31.7133 185.688 32.11C183.761 33.5267 181.608 35.085 179.228 36.785C176.848 38.4283 174.525 40.1567 172.258 41.97C171.181 42.7633 169.935 43.8117 168.518 45.115C167.158 46.3617 165.996 47.3817 165.033 48.175C166.62 47.3817 168.093 46.985 169.453 46.985C171.266 46.985 172.881 47.58 174.298 48.77C175.771 49.96 177.358 51.3767 179.058 53.02C180.758 54.72 182.458 56.1933 184.158 57.44C185.858 58.6867 187.303 59.31 188.493 59.31C188.89 59.2533 189.286 59.1683 189.683 59.055C190.08 58.9417 190.42 58.7717 190.703 58.545C191.156 58.1483 191.383 57.695 191.383 57.185C191.383 56.5617 191.128 55.91 190.618 55.23C190.108 54.6067 189.655 54.1817 189.258 53.955C189.201 53.8983 189.173 53.8417 189.173 53.785C189.173 53.615 189.286 53.4733 189.513 53.36C189.74 53.2467 189.966 53.2467 190.193 53.36C190.93 53.7567 191.525 54.3233 191.978 55.06C192.431 55.7967 192.658 56.6183 192.658 57.525C192.658 58.4317 192.375 59.2817 191.808 60.075C191.298 60.8117 190.59 61.435 189.683 61.945C188.776 62.5117 187.813 62.795 186.793 62.795ZM220.82 71.21C218.61 71.21 216.769 70.8417 215.295 70.105C213.765 69.425 212.745 68.3767 212.235 66.96C212.179 66.79 212.15 66.62 212.15 66.45C212.094 66.28 212.065 66.0817 212.065 65.855C212.065 65.005 212.264 64.0417 212.66 62.965C213.057 61.945 213.482 60.84 213.935 59.65C214.105 59.31 214.304 59.14 214.53 59.14C214.927 59.14 215.04 59.4233 214.87 59.99C214.474 60.84 214.275 61.7467 214.275 62.71C214.275 64.6933 215.154 66.28 216.91 67.47C218.61 68.7167 220.565 69.34 222.775 69.34C224.475 69.34 226.119 68.9433 227.705 68.15C230.369 66.79 232.55 64.92 234.25 62.54C235.95 60.16 237.452 57.7517 238.755 55.315C240.739 51.5183 242.439 47.5517 243.855 43.415C245.329 39.2217 246.887 35.085 248.53 31.005H246.575C246.292 31.005 245.98 31.0333 245.64 31.09C245.3 31.1467 244.989 31.2033 244.705 31.26L244.535 31.175C244.649 30.5517 245.187 30.0133 246.15 29.56C247.17 29.05 247.964 28.795 248.53 28.795H249.55C250.4 26.755 251.392 24.5167 252.525 22.08C253.715 19.6433 254.99 17.2067 256.35 14.77C257.71 12.2767 259.184 10.01 260.77 7.97C262.414 5.93 264.114 4.315 265.87 3.125C268.76 1.085 271.962 0.0649999 275.475 0.0649999C276.155 0.0649999 276.807 0.291665 277.43 0.744996C278.11 1.14166 278.422 1.765 278.365 2.615L278.11 5.675C278.11 5.78833 278.025 5.87333 277.855 5.93C277.685 5.98666 277.572 5.95833 277.515 5.845C277.289 4.71166 276.665 3.89 275.645 3.38C274.682 2.81333 273.549 2.53 272.245 2.53C270.149 2.53 268.222 3.21 266.465 4.57C264.765 5.93 262.924 8.45166 260.94 12.135C260.204 13.5517 259.382 15.2233 258.475 17.15C257.625 19.0767 256.775 21.06 255.925 23.1C255.075 25.14 254.254 27.0383 253.46 28.795H259.58C259.977 28.795 260.374 28.795 260.77 28.795C261.224 28.7383 261.649 28.6817 262.045 28.625C262.045 28.8517 261.875 29.0783 261.535 29.305C261.252 29.475 260.997 29.6167 260.77 29.73C259.354 30.4667 258.022 30.8917 256.775 31.005C255.529 31.0617 254.112 31.0617 252.525 31.005C251.279 34.1217 250.089 37.0967 248.955 39.93C247.879 42.7067 246.689 45.4267 245.385 48.09C244.309 50.47 242.977 52.9917 241.39 55.655C239.804 58.3183 237.99 60.84 235.95 63.22C233.91 65.6 231.644 67.5267 229.15 69C226.6 70.4733 223.824 71.21 220.82 71.21ZM278.59 52.17C277.683 52.17 276.862 52 276.125 51.66C275.445 51.2633 275.105 50.4417 275.105 49.195C275.105 47.2117 275.615 45.2283 276.635 43.245C277.655 41.205 278.703 39.42 279.78 37.89C280.743 36.5867 281.82 35.3683 283.01 34.235C284.257 33.045 285.588 32.025 287.005 31.175C287.912 30.6083 289.13 30.0133 290.66 29.39C292.247 28.71 293.578 28.37 294.655 28.37C295.562 28.37 296.355 28.625 297.035 29.135C297.715 29.5883 298.055 30.4383 298.055 31.685C298.055 33.6117 297.545 35.595 296.525 37.635C295.562 39.6183 294.542 41.375 293.465 42.905C292.955 43.585 292.445 44.2367 291.935 44.86C291.425 45.4267 290.858 46.0217 290.235 46.645C292.332 46.645 294.258 46.05 296.015 44.86C297.772 43.6133 299.302 42.1117 300.605 40.355L300.775 40.185C300.945 40.185 301.03 40.355 301.03 40.695C301.03 41.0917 300.917 41.46 300.69 41.8C299.557 43.3867 298.14 44.8033 296.44 46.05C294.74 47.24 292.813 47.835 290.66 47.835C290.433 47.835 290.207 47.835 289.98 47.835C289.753 47.835 289.527 47.8067 289.3 47.75C286.127 50.6967 282.557 52.17 278.59 52.17ZM280.8 50.725C281.593 50.725 282.443 50.4417 283.35 49.875C284.313 49.3083 285.05 48.77 285.56 48.26C286.523 47.2967 287.402 46.2767 288.195 45.2C288.988 44.0667 289.725 42.9333 290.405 41.8C291.198 40.44 291.992 38.825 292.785 36.955C293.578 35.085 293.975 33.3283 293.975 31.685C293.975 30.3817 293.522 29.73 292.615 29.73C291.878 29.73 290.972 30.0417 289.895 30.665C288.875 31.2883 288.11 31.855 287.6 32.365C285.673 34.3483 284.058 36.5017 282.755 38.825C282.018 40.1283 281.225 41.6583 280.375 43.415C279.525 45.1717 279.1 46.7867 279.1 48.26C279.1 48.4867 279.1 48.7133 279.1 48.94C279.157 49.11 279.213 49.3083 279.27 49.535C279.497 50.3283 280.007 50.725 280.8 50.725ZM321.485 53.19C321.258 53.19 321.258 52.9633 321.485 52.51C321.768 52 322.023 51.4333 322.25 50.81C322.533 50.1867 322.817 49.5067 323.1 48.77C323.667 47.41 324.29 45.88 324.97 44.18C325.65 42.48 326.302 40.8367 326.925 39.25C327.548 37.6067 328.087 36.2183 328.54 35.085C329.05 33.895 329.39 33.13 329.56 32.79C328.767 33.64 327.803 34.7167 326.67 36.02C325.593 37.2667 324.573 38.485 323.61 39.675C322.647 40.865 321.91 41.8 321.4 42.48C321.23 42.7067 321.088 42.82 320.975 42.82C320.862 42.82 320.805 42.6783 320.805 42.395C320.805 41.9417 320.947 41.5167 321.23 41.12C322.307 39.76 323.497 38.23 324.8 36.53C326.16 34.83 327.378 33.2717 328.455 31.855C329.532 30.3817 330.212 29.4183 330.495 28.965C331.118 28.8517 332.025 28.6817 333.215 28.455C334.462 28.2283 335.312 27.9167 335.765 27.52C335.935 27.35 336.105 27.265 336.275 27.265C336.388 27.265 336.445 27.3783 336.445 27.605C336.502 27.775 336.445 27.9733 336.275 28.2C335.935 28.54 335.425 29.2767 334.745 30.41C334.122 31.5433 333.413 32.8467 332.62 34.32C331.827 35.7933 331.062 37.21 330.325 38.57C330.892 37.72 331.628 36.7283 332.535 35.595C333.498 34.405 334.547 33.2717 335.68 32.195C336.813 31.0617 337.947 30.1267 339.08 29.39C340.27 28.6533 341.375 28.285 342.395 28.285C343.132 28.285 343.755 28.455 344.265 28.795C344.775 29.0783 345.172 29.6167 345.455 30.41C345.625 30.8067 345.71 31.26 345.71 31.77C345.71 32.7333 345.455 33.6683 344.945 34.575C344.492 35.425 344.152 36.0767 343.925 36.53C343.868 36.7 343.67 36.87 343.33 37.04C342.99 37.1533 342.848 37.0967 342.905 36.87C342.962 36.5867 342.99 36.3033 342.99 36.02C343.047 35.7367 343.075 35.425 343.075 35.085C343.075 34.1217 342.877 33.2433 342.48 32.45C342.14 31.6567 341.488 31.26 340.525 31.26C339.618 31.26 338.513 31.8267 337.21 32.96C335.907 34.0933 334.603 35.3967 333.3 36.87C331.657 38.7967 330.353 40.6383 329.39 42.395C328.427 44.095 327.633 45.7667 327.01 47.41C326.67 48.3167 326.33 49.2233 325.99 50.13C325.65 50.98 325.395 51.66 325.225 52.17C324.488 52.2267 323.752 52.3967 323.015 52.68C322.278 53.02 321.768 53.19 321.485 53.19ZM99.1389 161.75C96.9856 161.75 94.9172 161.24 92.9339 160.22C90.8939 159.257 89.3922 157.755 88.4289 155.715C88.0889 154.978 87.8622 154.185 87.7489 153.335C87.6356 152.542 87.5789 151.748 87.5789 150.955V150.02C87.5789 149.567 87.6356 149.142 87.7489 148.745C87.8622 148.405 88.1456 148.235 88.5989 148.235C88.7122 148.235 88.7689 148.292 88.7689 148.405C88.7689 148.745 88.7406 149.085 88.6839 149.425C88.6272 149.765 88.5989 150.133 88.5989 150.53C88.5989 153.137 89.4489 155.12 91.1489 156.48C92.7922 157.84 94.8606 158.52 97.3539 158.52C98.3739 158.52 99.4222 158.407 100.499 158.18C101.576 157.953 102.596 157.642 103.559 157.245C107.129 155.715 110.217 153.533 112.824 150.7C115.487 147.923 117.811 144.778 119.794 141.265C121.777 137.752 123.562 134.182 125.149 130.555C126.056 128.402 126.849 126.305 127.529 124.265C128.266 122.225 128.917 120.383 129.484 118.74C128.917 119.533 128.181 120.497 127.274 121.63C126.367 122.763 125.461 123.868 124.554 124.945C123.647 125.965 122.854 126.787 122.174 127.41C120.757 128.77 119.227 129.932 117.584 130.895C115.997 131.802 114.354 132.255 112.654 132.255C112.087 132.255 111.606 132.142 111.209 131.915C110.812 131.688 110.614 131.263 110.614 130.64C110.614 129.847 110.812 128.912 111.209 127.835C111.662 126.758 112.144 125.682 112.654 124.605C113.164 123.528 113.589 122.65 113.929 121.97C114.609 120.667 115.261 119.363 115.884 118.06C116.507 116.757 117.046 115.652 117.499 114.745C117.952 113.895 118.179 113.328 118.179 113.045C118.179 112.592 117.839 112.592 117.159 113.045C116.536 113.498 115.941 113.952 115.374 114.405C114.127 115.595 112.824 117.012 111.464 118.655C110.104 120.242 109.056 121.517 108.319 122.48C108.149 122.707 108.007 122.82 107.894 122.82C107.781 122.82 107.724 122.678 107.724 122.395C107.724 121.942 107.866 121.517 108.149 121.12C108.942 119.987 109.877 118.74 110.954 117.38C112.031 116.02 113.136 114.717 114.269 113.47C115.346 112.337 116.451 111.232 117.584 110.155C118.717 109.078 120.162 108.54 121.919 108.54C123.109 108.54 123.704 108.993 123.704 109.9C123.704 110.693 123.364 111.6 122.684 112.62C122.287 113.243 121.664 114.292 120.814 115.765C119.964 117.238 119.086 118.853 118.179 120.61C117.329 122.31 116.592 123.897 115.969 125.37C115.346 126.843 115.034 127.92 115.034 128.6C115.034 129.393 115.431 129.79 116.224 129.79C116.847 129.79 117.612 129.478 118.519 128.855C119.426 128.175 120.361 127.382 121.324 126.475C122.967 124.888 124.469 123.132 125.829 121.205C127.246 119.278 128.464 117.437 129.484 115.68C129.654 115.397 129.937 114.887 130.334 114.15C130.787 113.413 131.241 112.705 131.694 112.025C132.204 111.345 132.601 110.948 132.884 110.835C133.167 110.722 133.734 110.41 134.584 109.9C135.434 109.39 136.284 109.05 137.134 108.88C137.927 108.71 138.522 108.625 138.919 108.625C139.542 108.625 139.854 108.795 139.854 109.135C139.854 109.588 139.599 109.815 139.089 109.815C138.466 109.815 137.899 109.985 137.389 110.325C136.879 110.608 136.482 110.977 136.199 111.43C135.689 112.167 134.952 113.498 133.989 115.425C133.082 117.352 132.062 119.59 130.929 122.14C129.852 124.633 128.776 127.183 127.699 129.79C126.622 132.34 125.631 134.692 124.724 136.845C123.364 140.075 121.806 143.22 120.049 146.28C118.292 149.397 116.224 152.173 113.844 154.61C111.521 157.103 108.744 159.058 105.514 160.475C103.587 161.325 101.462 161.75 99.1389 161.75ZM159.723 132.17C158.816 132.17 157.994 132 157.258 131.66C156.578 131.263 156.238 130.442 156.238 129.195C156.238 127.212 156.748 125.228 157.768 123.245C158.788 121.205 159.836 119.42 160.913 117.89C161.876 116.587 162.953 115.368 164.143 114.235C165.389 113.045 166.721 112.025 168.138 111.175C169.044 110.608 170.263 110.013 171.793 109.39C173.379 108.71 174.711 108.37 175.788 108.37C176.694 108.37 177.488 108.625 178.168 109.135C178.848 109.588 179.188 110.438 179.188 111.685C179.188 113.612 178.678 115.595 177.658 117.635C176.694 119.618 175.674 121.375 174.598 122.905C174.088 123.585 173.578 124.237 173.068 124.86C172.558 125.427 171.991 126.022 171.368 126.645C173.464 126.645 175.391 126.05 177.148 124.86C178.904 123.613 180.434 122.112 181.738 120.355L181.908 120.185C182.078 120.185 182.163 120.355 182.163 120.695C182.163 121.092 182.049 121.46 181.823 121.8C180.689 123.387 179.273 124.803 177.573 126.05C175.873 127.24 173.946 127.835 171.793 127.835C171.566 127.835 171.339 127.835 171.113 127.835C170.886 127.835 170.659 127.807 170.433 127.75C167.259 130.697 163.689 132.17 159.723 132.17ZM161.933 130.725C162.726 130.725 163.576 130.442 164.483 129.875C165.446 129.308 166.183 128.77 166.693 128.26C167.656 127.297 168.534 126.277 169.328 125.2C170.121 124.067 170.858 122.933 171.538 121.8C172.331 120.44 173.124 118.825 173.918 116.955C174.711 115.085 175.108 113.328 175.108 111.685C175.108 110.382 174.654 109.73 173.748 109.73C173.011 109.73 172.104 110.042 171.028 110.665C170.008 111.288 169.243 111.855 168.733 112.365C166.806 114.348 165.191 116.502 163.888 118.825C163.151 120.128 162.358 121.658 161.508 123.415C160.658 125.172 160.233 126.787 160.233 128.26C160.233 128.487 160.233 128.713 160.233 128.94C160.289 129.11 160.346 129.308 160.403 129.535C160.629 130.328 161.139 130.725 161.933 130.725ZM206.868 132.255C206.301 132.255 205.819 132.142 205.423 131.915C205.026 131.688 204.828 131.263 204.828 130.64C204.828 129.847 205.026 128.912 205.423 127.835C205.876 126.758 206.358 125.682 206.868 124.605C207.378 123.528 207.803 122.65 208.143 121.97C208.823 120.667 209.474 119.363 210.098 118.06C210.721 116.757 211.259 115.652 211.713 114.745C212.166 113.895 212.393 113.328 212.393 113.045C212.393 112.592 212.053 112.592 211.373 113.045C210.749 113.498 210.154 113.952 209.588 114.405C208.341 115.595 207.038 117.012 205.678 118.655C204.318 120.242 203.269 121.517 202.533 122.48C202.363 122.707 202.221 122.82 202.108 122.82C201.994 122.82 201.938 122.678 201.938 122.395C201.938 121.942 202.079 121.517 202.363 121.12C203.156 119.987 204.091 118.74 205.168 117.38C206.244 116.02 207.349 114.717 208.483 113.47C209.559 112.337 210.664 111.232 211.798 110.155C212.931 109.078 214.376 108.54 216.133 108.54C217.323 108.54 217.918 108.993 217.918 109.9C217.918 110.693 217.578 111.6 216.898 112.62C216.501 113.243 215.878 114.292 215.028 115.765C214.178 117.238 213.299 118.853 212.393 120.61C211.543 122.31 210.806 123.897 210.183 125.37C209.559 126.843 209.248 127.92 209.248 128.6C209.248 129.393 209.644 129.79 210.438 129.79C211.061 129.79 211.826 129.478 212.733 128.855C213.639 128.175 214.574 127.382 215.538 126.475C217.294 124.775 218.881 122.933 220.298 120.95C221.771 118.91 223.018 116.955 224.038 115.085C225.114 113.215 225.964 111.685 226.588 110.495C226.701 110.268 226.814 110.013 226.928 109.73C227.098 109.39 227.353 109.192 227.693 109.135C228.033 109.078 228.769 109.05 229.903 109.05C231.036 109.05 232.084 108.823 233.048 108.37H233.218C233.388 108.37 233.473 108.455 233.473 108.625C233.473 109.078 233.104 109.418 232.368 109.645C231.688 109.872 230.894 110.552 229.988 111.685C229.138 112.818 228.288 114.207 227.438 115.85C226.588 117.437 225.823 119.08 225.143 120.78C224.463 122.48 223.953 124.038 223.613 125.455C223.273 126.872 223.188 127.92 223.358 128.6C223.584 129.393 223.981 129.79 224.548 129.79C225.284 129.79 226.304 129.337 227.608 128.43C228.968 127.523 230.356 126.447 231.773 125.2C233.189 123.897 234.351 122.707 235.258 121.63C235.654 121.177 236.023 120.723 236.363 120.27C236.703 119.817 236.929 119.533 237.043 119.42C237.099 119.477 237.156 119.59 237.213 119.76C237.269 119.873 237.298 119.987 237.298 120.1C237.241 120.497 237.099 120.893 236.873 121.29C236.646 121.63 236.391 121.942 236.108 122.225C235.031 123.642 233.728 125.143 232.198 126.73C230.724 128.26 229.109 129.563 227.353 130.64C225.653 131.717 223.896 132.255 222.083 132.255C221.516 132.255 220.864 132.113 220.128 131.83C219.448 131.547 219.108 130.923 219.108 129.96C219.108 129.223 219.306 128.232 219.703 126.985C220.099 125.682 220.524 124.407 220.978 123.16C221.488 121.857 221.913 120.893 222.253 120.27C221.516 121.347 220.609 122.565 219.533 123.925C218.513 125.228 217.464 126.39 216.388 127.41C214.971 128.77 213.441 129.932 211.798 130.895C210.211 131.802 208.568 132.255 206.868 132.255ZM257.237 133.19C257.01 133.19 257.01 132.963 257.237 132.51C257.52 132 257.775 131.433 258.002 130.81C258.285 130.187 258.569 129.507 258.852 128.77C259.419 127.41 260.042 125.88 260.722 124.18C261.402 122.48 262.054 120.837 262.677 119.25C263.3 117.607 263.839 116.218 264.292 115.085C264.802 113.895 265.142 113.13 265.312 112.79C264.519 113.64 263.555 114.717 262.422 116.02C261.345 117.267 260.325 118.485 259.362 119.675C258.399 120.865 257.662 121.8 257.152 122.48C256.982 122.707 256.84 122.82 256.727 122.82C256.614 122.82 256.557 122.678 256.557 122.395C256.557 121.942 256.699 121.517 256.982 121.12C258.059 119.76 259.249 118.23 260.552 116.53C261.912 114.83 263.13 113.272 264.207 111.855C265.284 110.382 265.964 109.418 266.247 108.965C266.87 108.852 267.777 108.682 268.967 108.455C270.214 108.228 271.064 107.917 271.517 107.52C271.687 107.35 271.857 107.265 272.027 107.265C272.14 107.265 272.197 107.378 272.197 107.605C272.254 107.775 272.197 107.973 272.027 108.2C271.687 108.54 271.177 109.277 270.497 110.41C269.874 111.543 269.165 112.847 268.372 114.32C267.579 115.793 266.814 117.21 266.077 118.57C266.644 117.72 267.38 116.728 268.287 115.595C269.25 114.405 270.299 113.272 271.432 112.195C272.565 111.062 273.699 110.127 274.832 109.39C276.022 108.653 277.127 108.285 278.147 108.285C278.884 108.285 279.507 108.455 280.017 108.795C280.527 109.078 280.924 109.617 281.207 110.41C281.377 110.807 281.462 111.26 281.462 111.77C281.462 112.733 281.207 113.668 280.697 114.575C280.244 115.425 279.904 116.077 279.677 116.53C279.62 116.7 279.422 116.87 279.082 117.04C278.742 117.153 278.6 117.097 278.657 116.87C278.714 116.587 278.742 116.303 278.742 116.02C278.799 115.737 278.827 115.425 278.827 115.085C278.827 114.122 278.629 113.243 278.232 112.45C277.892 111.657 277.24 111.26 276.277 111.26C275.37 111.26 274.265 111.827 272.962 112.96C271.659 114.093 270.355 115.397 269.052 116.87C267.409 118.797 266.105 120.638 265.142 122.395C264.179 124.095 263.385 125.767 262.762 127.41C262.422 128.317 262.082 129.223 261.742 130.13C261.402 130.98 261.147 131.66 260.977 132.17C260.24 132.227 259.504 132.397 258.767 132.68C258.03 133.02 257.52 133.19 257.237 133.19ZM69.2903 213.36C68.2703 213.36 67.1936 213.218 66.0603 212.935C64.927 212.652 63.907 212.198 63.0003 211.575C62.1503 210.895 61.5836 209.988 61.3003 208.855C61.2436 208.685 61.2153 208.43 61.2153 208.09C61.2153 207.297 61.3853 206.418 61.7253 205.455C62.122 204.492 62.6036 203.812 63.1703 203.415C63.397 203.302 63.567 203.302 63.6803 203.415C63.8503 203.528 63.8786 203.642 63.7653 203.755C63.7086 203.925 63.6236 204.152 63.5103 204.435C63.397 204.662 63.312 204.917 63.2553 205.2C63.0853 206.673 63.397 207.977 64.1903 209.11C64.5303 209.563 64.927 209.988 65.3803 210.385C65.8903 210.782 66.372 211.122 66.8253 211.405C67.222 211.632 67.7036 211.802 68.2703 211.915C68.837 211.972 69.4036 212 69.9703 212C70.877 212 71.7553 211.887 72.6053 211.66C73.4553 211.433 74.0786 211.065 74.4753 210.555C75.212 209.648 75.5803 208.628 75.5803 207.495C75.5803 206.645 75.3536 205.738 74.9003 204.775C74.447 203.812 73.7386 202.792 72.7753 201.715C72.152 201.035 71.557 200.298 70.9903 199.505C70.4236 198.712 70.0553 197.862 69.8853 196.955C69.8286 196.785 69.772 196.615 69.7153 196.445C69.7153 196.275 69.7153 196.105 69.7153 195.935C68.9786 197.012 68.2136 198.032 67.4203 198.995C66.6836 199.902 66.032 200.695 65.4653 201.375C65.2386 201.715 65.0403 201.885 64.8703 201.885C64.757 201.885 64.7003 201.772 64.7003 201.545C64.7003 201.035 64.927 200.497 65.3803 199.93C65.8336 199.42 66.3436 198.797 66.9103 198.06C67.477 197.267 67.9303 196.643 68.2703 196.19C69.2336 194.773 69.942 193.668 70.3953 192.875C70.9053 192.025 71.4436 191.26 72.0103 190.58C72.6336 189.843 73.3986 189.248 74.3053 188.795C75.2686 188.342 76.2603 188.115 77.2803 188.115C78.4703 188.115 79.547 188.313 80.5103 188.71C81.5303 189.05 82.0686 189.957 82.1253 191.43C82.1253 192.11 81.9836 192.818 81.7003 193.555C81.4736 194.235 81.2186 194.887 80.9353 195.51C80.7653 195.85 80.5103 196.105 80.1703 196.275C79.887 196.388 79.7453 196.332 79.7453 196.105C79.7453 195.878 79.7736 195.623 79.8303 195.34C79.887 195.057 79.9153 194.802 79.9153 194.575C79.9153 193.612 79.7453 192.762 79.4053 192.025C79.122 191.232 78.697 190.665 78.1303 190.325C77.5636 189.928 76.9686 189.73 76.3453 189.73C75.4386 189.73 74.5603 190.098 73.7103 190.835C72.8603 191.515 72.4353 192.422 72.4353 193.555C72.4353 193.668 72.4353 193.81 72.4353 193.98C72.4353 194.15 72.4636 194.292 72.5203 194.405C72.747 195.312 73.427 196.332 74.5603 197.465C75.6936 198.598 76.572 199.59 77.1953 200.44C78.272 201.913 78.8103 203.415 78.8103 204.945C78.8103 206.475 78.357 207.892 77.4503 209.195C76.6003 210.442 75.4386 211.433 73.9653 212.17C72.5486 212.963 70.9903 213.36 69.2903 213.36ZM106.556 212.17C105.649 212.17 104.828 212 104.091 211.66C103.411 211.263 103.071 210.442 103.071 209.195C103.071 207.212 103.581 205.228 104.601 203.245C105.621 201.205 106.669 199.42 107.746 197.89C108.709 196.587 109.786 195.368 110.976 194.235C112.223 193.045 113.554 192.025 114.971 191.175C115.878 190.608 117.096 190.013 118.626 189.39C120.213 188.71 121.544 188.37 122.621 188.37C123.528 188.37 124.321 188.625 125.001 189.135C125.681 189.588 126.021 190.438 126.021 191.685C126.021 193.612 125.511 195.595 124.491 197.635C123.528 199.618 122.508 201.375 121.431 202.905C120.921 203.585 120.411 204.237 119.901 204.86C119.391 205.427 118.824 206.022 118.201 206.645C120.298 206.645 122.224 206.05 123.981 204.86C125.738 203.613 127.268 202.112 128.571 200.355L128.741 200.185C128.911 200.185 128.996 200.355 128.996 200.695C128.996 201.092 128.883 201.46 128.656 201.8C127.523 203.387 126.106 204.803 124.406 206.05C122.706 207.24 120.779 207.835 118.626 207.835C118.399 207.835 118.173 207.835 117.946 207.835C117.719 207.835 117.493 207.807 117.266 207.75C114.093 210.697 110.523 212.17 106.556 212.17ZM108.766 210.725C109.559 210.725 110.409 210.442 111.316 209.875C112.279 209.308 113.016 208.77 113.526 208.26C114.489 207.297 115.368 206.277 116.161 205.2C116.954 204.067 117.691 202.933 118.371 201.8C119.164 200.44 119.958 198.825 120.751 196.955C121.544 195.085 121.941 193.328 121.941 191.685C121.941 190.382 121.488 189.73 120.581 189.73C119.844 189.73 118.938 190.042 117.861 190.665C116.841 191.288 116.076 191.855 115.566 192.365C113.639 194.348 112.024 196.502 110.721 198.825C109.984 200.128 109.191 201.658 108.341 203.415C107.491 205.172 107.066 206.787 107.066 208.26C107.066 208.487 107.066 208.713 107.066 208.94C107.123 209.11 107.179 209.308 107.236 209.535C107.463 210.328 107.973 210.725 108.766 210.725ZM153.701 212.255C153.135 212.255 152.653 212.142 152.256 211.915C151.86 211.688 151.661 211.263 151.661 210.64C151.661 209.847 151.86 208.912 152.256 207.835C152.71 206.758 153.191 205.682 153.701 204.605C154.211 203.528 154.636 202.65 154.976 201.97C155.656 200.667 156.308 199.363 156.931 198.06C157.555 196.757 158.093 195.652 158.546 194.745C159 193.895 159.226 193.328 159.226 193.045C159.226 192.592 158.886 192.592 158.206 193.045C157.583 193.498 156.988 193.952 156.421 194.405C155.175 195.595 153.871 197.012 152.511 198.655C151.151 200.242 150.103 201.517 149.366 202.48C149.196 202.707 149.055 202.82 148.941 202.82C148.828 202.82 148.771 202.678 148.771 202.395C148.771 201.942 148.913 201.517 149.196 201.12C149.99 199.987 150.925 198.74 152.001 197.38C153.078 196.02 154.183 194.717 155.316 193.47C156.393 192.337 157.498 191.232 158.631 190.155C159.765 189.078 161.21 188.54 162.966 188.54C164.156 188.54 164.751 188.993 164.751 189.9C164.751 190.693 164.411 191.6 163.731 192.62C163.335 193.243 162.711 194.292 161.861 195.765C161.011 197.238 160.133 198.853 159.226 200.61C158.376 202.31 157.64 203.897 157.016 205.37C156.393 206.843 156.081 207.92 156.081 208.6C156.081 209.393 156.478 209.79 157.271 209.79C157.895 209.79 158.66 209.478 159.566 208.855C160.473 208.175 161.408 207.382 162.371 206.475C164.128 204.775 165.715 202.933 167.131 200.95C168.605 198.91 169.851 196.955 170.871 195.085C171.948 193.215 172.798 191.685 173.421 190.495C173.535 190.268 173.648 190.013 173.761 189.73C173.931 189.39 174.186 189.192 174.526 189.135C174.866 189.078 175.603 189.05 176.736 189.05C177.87 189.05 178.918 188.823 179.881 188.37H180.051C180.221 188.37 180.306 188.455 180.306 188.625C180.306 189.078 179.938 189.418 179.201 189.645C178.521 189.872 177.728 190.552 176.821 191.685C175.971 192.818 175.121 194.207 174.271 195.85C173.421 197.437 172.656 199.08 171.976 200.78C171.296 202.48 170.786 204.038 170.446 205.455C170.106 206.872 170.021 207.92 170.191 208.6C170.418 209.393 170.815 209.79 171.381 209.79C172.118 209.79 173.138 209.337 174.441 208.43C175.801 207.523 177.19 206.447 178.606 205.2C180.023 203.897 181.185 202.707 182.091 201.63C182.488 201.177 182.856 200.723 183.196 200.27C183.536 199.817 183.763 199.533 183.876 199.42C183.933 199.477 183.99 199.59 184.046 199.76C184.103 199.873 184.131 199.987 184.131 200.1C184.075 200.497 183.933 200.893 183.706 201.29C183.48 201.63 183.225 201.942 182.941 202.225C181.865 203.642 180.561 205.143 179.031 206.73C177.558 208.26 175.943 209.563 174.186 210.64C172.486 211.717 170.73 212.255 168.916 212.255C168.35 212.255 167.698 212.113 166.961 211.83C166.281 211.547 165.941 210.923 165.941 209.96C165.941 209.223 166.14 208.232 166.536 206.985C166.933 205.682 167.358 204.407 167.811 203.16C168.321 201.857 168.746 200.893 169.086 200.27C168.35 201.347 167.443 202.565 166.366 203.925C165.346 205.228 164.298 206.39 163.221 207.41C161.805 208.77 160.275 209.932 158.631 210.895C157.045 211.802 155.401 212.255 153.701 212.255ZM209.17 212.17C207.47 212.17 206.309 211.773 205.685 210.98C205.062 210.13 204.75 209.11 204.75 207.92C204.75 206.333 205.09 204.633 205.77 202.82C206.507 201.007 207.102 199.59 207.555 198.57C206.819 199.363 206.11 200.128 205.43 200.865C204.75 201.602 204.269 202.14 203.985 202.48C203.815 202.707 203.674 202.82 203.56 202.82C203.447 202.82 203.39 202.678 203.39 202.395C203.39 201.942 203.532 201.517 203.815 201.12C204.609 200.1 205.515 199.023 206.535 197.89C207.555 196.757 208.547 195.567 209.51 194.32C210.644 192.223 211.89 189.787 213.25 187.01C214.667 184.177 216.112 181.287 217.585 178.34C219.115 175.337 220.589 172.588 222.005 170.095C223.479 167.545 224.782 165.505 225.915 163.975C226.879 163.578 227.785 163.068 228.635 162.445C229.542 161.822 230.42 161.255 231.27 160.745C232.177 160.178 233.112 159.895 234.075 159.895C234.699 159.895 235.152 160.065 235.435 160.405C235.775 160.745 236.002 161.142 236.115 161.595C236.172 161.765 236.2 162.077 236.2 162.53C236.2 163.833 235.747 165.42 234.84 167.29C233.99 169.16 232.97 171.002 231.78 172.815C230.647 174.572 229.655 176.017 228.805 177.15C226.539 180.323 224.215 183.213 221.835 185.82C219.455 188.37 217.302 190.523 215.375 192.28C213.505 193.98 212.145 195.227 211.295 196.02C210.899 196.757 210.417 197.748 209.85 198.995C209.34 200.185 208.887 201.46 208.49 202.82C208.094 204.123 207.895 205.342 207.895 206.475C207.895 207.438 208.122 208.26 208.575 208.94C209.029 209.563 209.794 209.875 210.87 209.875C211.04 209.875 211.21 209.875 211.38 209.875C211.55 209.875 211.749 209.847 211.975 209.79C212.939 209.62 213.987 209.082 215.12 208.175C216.254 207.268 217.387 206.22 218.52 205.03C219.654 203.84 220.674 202.707 221.58 201.63C221.977 201.177 222.345 200.752 222.685 200.355C223.025 199.902 223.252 199.59 223.365 199.42C223.762 199.817 223.734 200.327 223.28 200.95C222.884 201.517 222.544 201.998 222.26 202.395C221.864 202.905 221.297 203.613 220.56 204.52C219.824 205.37 218.974 206.305 218.01 207.325C216.934 208.402 215.602 209.478 214.015 210.555C212.429 211.632 210.814 212.17 209.17 212.17ZM212.74 192.62C214.497 191.147 216.707 189.05 219.37 186.33C222.09 183.553 224.754 180.21 227.36 176.3C227.644 175.847 228.097 175.082 228.72 174.005C229.4 172.928 230.08 171.71 230.76 170.35C231.497 168.933 232.12 167.573 232.63 166.27C233.14 164.91 233.395 163.748 233.395 162.785C233.395 161.878 233.14 161.425 232.63 161.425C232.007 161.425 231.185 161.963 230.165 163.04C228.975 164.287 227.615 166.128 226.085 168.565C224.612 170.945 223.054 173.608 221.41 176.555C219.767 179.502 218.18 182.392 216.65 185.225C215.177 188.058 213.874 190.523 212.74 192.62ZM246.049 212.51C245.482 212.51 244.887 212.312 244.264 211.915C243.697 211.462 243.244 211.037 242.904 210.64C242.847 210.527 243.074 210.3 243.584 209.96C244.094 209.563 244.632 209.195 245.199 208.855C245.822 208.515 246.162 208.373 246.219 208.43C246.672 208.657 247.126 208.912 247.579 209.195C248.032 209.422 248.514 209.507 249.024 209.45H249.364C249.647 209.45 249.789 209.535 249.789 209.705C249.789 209.875 249.591 210.158 249.194 210.555C248.684 210.952 248.146 211.377 247.579 211.83C247.069 212.283 246.559 212.51 246.049 212.51ZM279.999 212.51C279.433 212.51 278.838 212.312 278.214 211.915C277.648 211.462 277.194 211.037 276.854 210.64C276.798 210.527 277.024 210.3 277.534 209.96C278.044 209.563 278.583 209.195 279.149 208.855C279.773 208.515 280.113 208.373 280.169 208.43C280.623 208.657 281.076 208.912 281.529 209.195C281.983 209.422 282.464 209.507 282.974 209.45H283.314C283.598 209.45 283.739 209.535 283.739 209.705C283.739 209.875 283.541 210.158 283.144 210.555C282.634 210.952 282.096 211.377 281.529 211.83C281.019 212.283 280.509 212.51 279.999 212.51ZM313.95 212.51C313.383 212.51 312.788 212.312 312.165 211.915C311.598 211.462 311.145 211.037 310.805 210.64C310.748 210.527 310.975 210.3 311.485 209.96C311.995 209.563 312.533 209.195 313.1 208.855C313.723 208.515 314.063 208.373 314.12 208.43C314.573 208.657 315.026 208.912 315.48 209.195C315.933 209.422 316.415 209.507 316.925 209.45H317.265C317.548 209.45 317.69 209.535 317.69 209.705C317.69 209.875 317.491 210.158 317.095 210.555C316.585 210.952 316.046 211.377 315.48 211.83C314.97 212.283 314.46 212.51 313.95 212.51Z" fill="white"/>
</g>
<defs>
<filter id="filter0_d_256_398" x="0.140869" y="0.0649414" width="350.569" height="223.295" filterUnits="userSpaceOnUse" color-interpolation-filters="sRGB">
<feFlood flood-opacity="0" result="BackgroundImageFix"/>
<feColorMatrix in="SourceAlpha" type="matrix" values="0 0 0 0 0 0 0 0 0 0 0 0 0 0 0 0 0 0 127 0" result="hardAlpha"/>
<feOffset dy="5"/>
<feGaussianBlur stdDeviation="2.5"/>
<feComposite in2="hardAlpha" operator="out"/>
<feColorMatrix type="matrix" values="0 0 0 0 0 0 0 0 0 0 0 0 0 0 0 0 0 0 0.25 0"/>
<feBlend mode="normal" in2="BackgroundImageFix" result="effect1_dropShadow_256_398"/>
<feBlend mode="normal" in="SourceGraphic" in2="effect1_dropShadow_256_398" result="shape"/>
</filter>
</defs>
</svg>
